  0
SECTION
  2
HEADER
  9
$ACADVER
  1
AC1027
  9
$ACADMAINTVER
 70
   105
  9
$DWGCODEPAGE
  3
ANSI_1252
  9
$LASTSAVEDBY
  1
bastien
  9
$REQUIREDVERSIONS
160
                 0
  9
$INSBASE
 10
0.0
 20
0.0
 30
0.0
  9
$EXTMIN
 10
-235.8284271247462
 20
-101.4107768258297
 30
0.0
  9
$EXTMAX
 10
69.72243186433542
 20
33.97760615502915
 30
0.0
  9
$LIMMIN
 10
0.0
 20
0.0
  9
$LIMMAX
 10
12.0
 20
9.0
  9
$ORTHOMODE
 70
     0
  9
$REGENMODE
 70
     1
  9
$FILLMODE
 70
     1
  9
$QTEXTMODE
 70
     0
  9
$MIRRTEXT
 70
     1
  9
$LTSCALE
 40
1.0
  9
$ATTMODE
 70
     1
  9
$TEXTSIZE
 40
0.2
  9
$TRACEWID
 40
0.05
  9
$TEXTSTYLE
  7
Standard
  9
$CLAYER
  8
0
  9
$CELTYPE
  6
ByLayer
  9
$CECOLOR
 62
   256
  9
$CELTSCALE
 40
1.0
  9
$DISPSILH
 70
     0
  9
$DIMSCALE
 40
1.0
  9
$DIMASZ
 40
2.5
  9
$DIMEXO
 40
0.625
  9
$DIMDLI
 40
5.0
  9
$DIMRND
 40
0.0
  9
$DIMDLE
 40
0.0
  9
$DIMEXE
 40
1.25
  9
$DIMTP
 40
0.0
  9
$DIMTM
 40
0.0
  9
$DIMTXT
 40
2.5
  9
$DIMCEN
 40
0.09
  9
$DIMTSZ
 40
0.0
  9
$DIMTOL
 70
     0
  9
$DIMLIM
 70
     0
  9
$DIMTIH
 70
     1
  9
$DIMTOH
 70
     1
  9
$DIMSE1
 70
     0
  9
$DIMSE2
 70
     0
  9
$DIMTAD
 70
     0
  9
$DIMZIN
 70
     8
  9
$DIMBLK
  1

  9
$DIMASO
 70
     1
  9
$DIMSHO
 70
     1
  9
$DIMPOST
  1

  9
$DIMAPOST
  1

  9
$DIMALT
 70
     0
  9
$DIMALTD
 70
     2
  9
$DIMALTF
 40
25.4
  9
$DIMLFAC
 40
1.0
  9
$DIMTOFL
 70
     0
  9
$DIMTVP
 40
0.0
  9
$DIMTIX
 70
     0
  9
$DIMSOXD
 70
     0
  9
$DIMSAH
 70
     0
  9
$DIMBLK1
  1

  9
$DIMBLK2
  1

  9
$DIMSTYLE
  2
Standard
  9
$DIMCLRD
 70
     0
  9
$DIMCLRE
 70
     0
  9
$DIMCLRT
 70
     0
  9
$DIMTFAC
 40
1.0
  9
$DIMGAP
 40
0.625
  9
$DIMJUST
 70
     0
  9
$DIMSD1
 70
     0
  9
$DIMSD2
 70
     0
  9
$DIMTOLJ
 70
     1
  9
$DIMTZIN
 70
     0
  9
$DIMALTZ
 70
     0
  9
$DIMALTTZ
 70
     0
  9
$DIMUPT
 70
     0
  9
$DIMDEC
 70
     4
  9
$DIMTDEC
 70
     4
  9
$DIMALTU
 70
     2
  9
$DIMALTTD
 70
     2
  9
$DIMTXSTY
  7
Standard
  9
$DIMAUNIT
 70
     0
  9
$DIMADEC
 70
     0
  9
$DIMALTRND
 40
0.0
  9
$DIMAZIN
 70
     2
  9
$DIMDSEP
 70
    46
  9
$DIMATFIT
 70
     3
  9
$DIMFRAC
 70
     0
  9
$DIMLDRBLK
  1

  9
$DIMLUNIT
 70
     2
  9
$DIMLWD
 70
    -2
  9
$DIMLWE
 70
    -2
  9
$DIMTMOVE
 70
     0
  9
$DIMFXL
 40
1.0
  9
$DIMFXLON
 70
     0
  9
$DIMJOGANG
 40
0.7853981633974483
  9
$DIMTFILL
 70
     0
  9
$DIMTFILLCLR
 70
     0
  9
$DIMARCSYM
 70
     0
  9
$DIMLTYPE
  6

  9
$DIMLTEX1
  6

  9
$DIMLTEX2
  6

  9
$DIMTXTDIRECTION
 70
     0
  9
$LUNITS
 70
     2
  9
$LUPREC
 70
     4
  9
$SKETCHINC
 40
0.1
  9
$FILLETRAD
 40
0.5
  9
$AUNITS
 70
     0
  9
$AUPREC
 70
     0
  9
$MENU
  1
.
  9
$ELEVATION
 40
0.0
  9
$PELEVATION
 40
0.0
  9
$THICKNESS
 40
0.0
  9
$LIMCHECK
 70
     0
  9
$CHAMFERA
 40
0.0
  9
$CHAMFERB
 40
0.0
  9
$CHAMFERC
 40
0.0
  9
$CHAMFERD
 40
0.0
  9
$SKPOLY
 70
     0
  9
$TDCREATE
 40
2458964.738576019
  9
$TDUCREATE
 40
2458964.655242685
  9
$TDUPDATE
 40
2458964.738576204
  9
$TDUUPDATE
 40
2458964.655242871
  9
$TDINDWG
 40
0.0000000116
  9
$TDUSRTIMER
 40
0.0000000116
  9
$USRTIMER
 70
     1
  9
$ANGBASE
 50
0.0
  9
$ANGDIR
 70
     0
  9
$PDMODE
 70
     0
  9
$PDSIZE
 40
0.0
  9
$PLINEWID
 40
0.0
  9
$SPLFRAME
 70
     0
  9
$SPLINETYPE
 70
     6
  9
$SPLINESEGS
 70
     8
  9
$HANDSEED
  5
4FA
  9
$SURFTAB1
 70
     6
  9
$SURFTAB2
 70
     6
  9
$SURFTYPE
 70
     6
  9
$SURFU
 70
     6
  9
$SURFV
 70
     6
  9
$UCSBASE
  2

  9
$UCSNAME
  2

  9
$UCSORG
 10
0.0
 20
0.0
 30
0.0
  9
$UCSXDIR
 10
1.0
 20
0.0
 30
0.0
  9
$UCSYDIR
 10
0.0
 20
1.0
 30
0.0
  9
$UCSORTHOREF
  2

  9
$UCSORTHOVIEW
 70
     0
  9
$UCSORGTOP
 10
0.0
 20
0.0
 30
0.0
  9
$UCSORGBOTTOM
 10
0.0
 20
0.0
 30
0.0
  9
$UCSORGLEFT
 10
0.0
 20
0.0
 30
0.0
  9
$UCSORGRIGHT
 10
0.0
 20
0.0
 30
0.0
  9
$UCSORGFRONT
 10
0.0
 20
0.0
 30
0.0
  9
$UCSORGBACK
 10
0.0
 20
0.0
 30
0.0
  9
$PUCSBASE
  2

  9
$PUCSNAME
  2

  9
$PUCSORG
 10
0.0
 20
0.0
 30
0.0
  9
$PUCSXDIR
 10
1.0
 20
0.0
 30
0.0
  9
$PUCSYDIR
 10
0.0
 20
1.0
 30
0.0
  9
$PUCSORTHOREF
  2

  9
$PUCSORTHOVIEW
 70
     0
  9
$PUCSORGTOP
 10
0.0
 20
0.0
 30
0.0
  9
$PUCSORGBOTTOM
 10
0.0
 20
0.0
 30
0.0
  9
$PUCSORGLEFT
 10
0.0
 20
0.0
 30
0.0
  9
$PUCSORGRIGHT
 10
0.0
 20
0.0
 30
0.0
  9
$PUCSORGFRONT
 10
0.0
 20
0.0
 30
0.0
  9
$PUCSORGBACK
 10
0.0
 20
0.0
 30
0.0
  9
$USERI1
 70
     0
  9
$USERI2
 70
     0
  9
$USERI3
 70
     0
  9
$USERI4
 70
     0
  9
$USERI5
 70
     0
  9
$USERR1
 40
0.0
  9
$USERR2
 40
0.0
  9
$USERR3
 40
0.0
  9
$USERR4
 40
0.0
  9
$USERR5
 40
0.0
  9
$WORLDVIEW
 70
     1
  9
$SHADEDGE
 70
     3
  9
$SHADEDIF
 70
    70
  9
$TILEMODE
 70
     1
  9
$MAXACTVP
 70
    64
  9
$PINSBASE
 10
0.0
 20
0.0
 30
0.0
  9
$PLIMCHECK
 70
     0
  9
$PEXTMIN
 10
0.0
 20
0.0
 30
0.0
  9
$PEXTMAX
 10
0.0
 20
0.0
 30
0.0
  9
$PLIMMIN
 10
-20.0
 20
-7.5
  9
$PLIMMAX
 10
277.0
 20
202.5
  9
$UNITMODE
 70
     0
  9
$VISRETAIN
 70
     1
  9
$PLINEGEN
 70
     0
  9
$PSLTSCALE
 70
     1
  9
$TREEDEPTH
 70
  3020
  9
$CMLSTYLE
  2
Standard
  9
$CMLJUST
 70
     0
  9
$CMLSCALE
 40
1.0
  9
$PROXYGRAPHICS
 70
     1
  9
$MEASUREMENT
 70
     1
  9
$CELWEIGHT
370
    -1
  9
$ENDCAPS
280
     0
  9
$JOINSTYLE
280
     0
  9
$LWDISPLAY
290
     0
  9
$INSUNITS
 70
     4
  9
$HYPERLINKBASE
  1

  9
$STYLESHEET
  1

  9
$XEDIT
290
     1
  9
$CEPSNTYPE
380
     0
  9
$PSTYLEMODE
290
     1
  9
$FINGERPRINTGUID
  2
{b4b314cb-98ec-4e6e-a2a1-ba16fc7df2de}
  9
$VERSIONGUID
  2
{FAEB1C32-E019-11D5-929B-00C0DF256EC4}
  9
$EXTNAMES
290
     1
  9
$PSVPSCALE
 40
0.0
  9
$OLESTARTUP
290
     0
  9
$SORTENTS
280
   127
  9
$INDEXCTL
280
     0
  9
$HIDETEXT
280
     1
  9
$XCLIPFRAME
280
     2
  9
$HALOGAP
280
     0
  9
$OBSCOLOR
 70
   257
  9
$OBSLTYPE
280
     0
  9
$INTERSECTIONDISPLAY
280
     0
  9
$INTERSECTIONCOLOR
 70
   257
  9
$DIMASSOC
280
     2
  9
$PROJECTNAME
  1

  9
$CAMERADISPLAY
290
     0
  9
$LENSLENGTH
 40
50.0
  9
$CAMERAHEIGHT
 40
0.0
  9
$STEPSPERSEC
 40
2.0
  9
$STEPSIZE
 40
6.0
  9
$3DDWFPREC
 40
2.0
  9
$PSOLWIDTH
 40
0.25
  9
$PSOLHEIGHT
 40
4.0
  9
$LOFTANG1
 40
1.570796326794897
  9
$LOFTANG2
 40
1.570796326794897
  9
$LOFTMAG1
 40
0.0
  9
$LOFTMAG2
 40
0.0
  9
$LOFTPARAM
 70
     7
  9
$LOFTNORMALS
280
     1
  9
$LATITUDE
 40
37.795
  9
$LONGITUDE
 40
-122.394
  9
$NORTHDIRECTION
 40
0.0
  9
$TIMEZONE
 70
 -8000
  9
$LIGHTGLYPHDISPLAY
280
     1
  9
$TILEMODELIGHTSYNCH
280
     1
  9
$CMATERIAL
347
449
  9
$SOLIDHIST
280
     0
  9
$SHOWHIST
280
     1
  9
$DWFFRAME
280
     2
  9
$DGNFRAME
280
     2
  9
$REALWORLDSCALE
290
     1
  9
$INTERFERECOLOR
 62
   256
  9
$CSHADOW
280
     0
  9
$SHADOWPLANELOCATION
 40
0.0
  0
ENDSEC
  0
SECTION
  2
CLASSES
  0
CLASS
  1
ACDBDICTIONARYWDFLT
  2
AcDbDictionaryWithDefault
  3
ObjectDBX Classes
 90
        0
 91
        3
280
     0
281
     0
  0
CLASS
  1
VISUALSTYLE
  2
AcDbVisualStyle
  3
ObjectDBX Classes
 90
     4095
 91
        3
280
     0
281
     0
  0
CLASS
  1
MATERIAL
  2
AcDbMaterial
  3
ObjectDBX Classes
 90
     1153
 91
        3
280
     0
281
     0
  0
CLASS
  1
SCALE
  2
AcDbScale
  3
ObjectDBX Classes
 90
     1153
 91
        3
280
     0
281
     0
  0
CLASS
  1
TABLESTYLE
  2
AcDbTableStyle
  3
ObjectDBX Classes
 90
     4095
 91
        3
280
     0
281
     0
  0
CLASS
  1
MLEADERSTYLE
  2
AcDbMLeaderStyle
  3
ACDB_MLEADERSTYLE_CLASS
 90
     4095
 91
        3
280
     0
281
     0
  0
CLASS
  1
SUN
  2
AcDbSun
  3
SCENEOE
 90
     1153
 91
        3
280
     0
281
     0
  0
CLASS
  1
DICTIONARYVAR
  2
AcDbDictionaryVar
  3
ObjectDBX Classes
 90
        0
 91
        3
280
     0
281
     0
  0
CLASS
  1
CELLSTYLEMAP
  2
AcDbCellStyleMap
  3
ObjectDBX Classes
 90
     1152
 91
        3
280
     0
281
     0
  0
ENDSEC
  0
SECTION
  2
TABLES
  0
TABLE
  2
VPORT
  5
40E
330
0
100
AcDbSymbolTable
 70
     1
  0
VPORT
  5
42E
330
40E
100
AcDbSymbolTableRecord
100
AcDbViewportTableRecord
  2
*Active
 70
     0
 10
0.0
 20
0.0
 11
1.0
 21
1.0
 12
-225.1724480889444
 22
-74.64145141448475
 13
0.0
 23
0.0
 14
0.5
 24
0.5
 15
0.5
 25
0.5
 16
0.0
 26
0.0
 36
1.0
 17
0.0
 27
0.0
 37
0.0
 40
151.1654399999998
 41
1.736625514403292
 42
50.0
 43
0.0
 44
0.0
 50
0.0
 51
0.0
 71
     0
 72
   100
 73
     1
 74
     3
 75
     0
 76
     0
 77
     0
 78
     0
281
     0
 65
     1
110
0.0
120
0.0
130
0.0
111
1.0
121
0.0
131
0.0
112
0.0
122
1.0
132
0.0
 79
     0
146
0.0
348
434
 60
     3
 61
     5
292
     1
282
     1
141
0.0
142
0.0
 63
   250
361
472
  0
ENDTAB
  0
TABLE
  2
LTYPE
  5
40B
330
0
100
AcDbSymbolTable
 70
    48
  0
LTYPE
  5
419
330
40B
100
AcDbSymbolTableRecord
100
AcDbLinetypeTableRecord
  2
ByBlock
 70
     0
  3

 72
    65
 73
     0
 40
0.0
  0
LTYPE
  5
41A
330
40B
100
AcDbSymbolTableRecord
100
AcDbLinetypeTableRecord
  2
ByLayer
 70
     0
  3

 72
    65
 73
     0
 40
0.0
  0
LTYPE
  5
41B
330
40B
100
AcDbSymbolTableRecord
100
AcDbLinetypeTableRecord
  2
Continuous
 70
     0
  3
Solid line
 72
    65
 73
     0
 40
0.0
  0
LTYPE
  5
4AB
330
40B
100
AcDbSymbolTableRecord
100
AcDbLinetypeTableRecord
  2
DASHED
 70
     0
  3
Dashed __ __ __ __ __ __ __ __ __ __ __ __ __ _
 72
    65
 73
     2
 40
19.05
 49
12.7
 74
     0
 49
-6.35
 74
     0
  0
LTYPE
  5
4AC
330
40B
100
AcDbSymbolTableRecord
100
AcDbLinetypeTableRecord
  2
DASHED2
 70
     0
  3
Dashed (.5x) _ _ _ _ _ _ _ _ _ _ _ _ _ _ _ _ _ 
 72
    65
 73
     2
 40
9.524999999999999
 49
6.35
 74
     0
 49
-3.175
 74
     0
  0
LTYPE
  5
4AD
330
40B
100
AcDbSymbolTableRecord
100
AcDbLinetypeTableRecord
  2
DASHEDX2
 70
     0
  3
Dashed (2x) ____  ____  ____  ____  ____  ___
 72
    65
 73
     2
 40
38.09999999999999
 49
25.4
 74
     0
 49
-12.7
 74
     0
  0
LTYPE
  5
4AE
330
40B
100
AcDbSymbolTableRecord
100
AcDbLinetypeTableRecord
  2
DIVIDE
 70
     0
  3
Divide ____ . . ____ . . ____ . . ____ . . ____
 72
    65
 73
     6
 40
31.75
 49
12.7
 74
     0
 49
-6.35
 74
     0
 49
0.0
 74
     0
 49
-6.35
 74
     0
 49
0.0
 74
     0
 49
-6.35
 74
     0
  0
LTYPE
  5
4AF
330
40B
100
AcDbSymbolTableRecord
100
AcDbLinetypeTableRecord
  2
DIVIDE2
 70
     0
  3
Divide (.5x) __..__..__..__..__..__..__..__.._
 72
    65
 73
     6
 40
15.875
 49
6.35
 74
     0
 49
-3.175
 74
     0
 49
0.0
 74
     0
 49
-3.175
 74
     0
 49
0.0
 74
     0
 49
-3.175
 74
     0
  0
LTYPE
  5
4B0
330
40B
100
AcDbSymbolTableRecord
100
AcDbLinetypeTableRecord
  2
DIVIDEX2
 70
     0
  3
Divide (2x) ________  .  .  ________  .  .  _
 72
    65
 73
     6
 40
63.5
 49
25.4
 74
     0
 49
-12.7
 74
     0
 49
0.0
 74
     0
 49
-12.7
 74
     0
 49
0.0
 74
     0
 49
-12.7
 74
     0
  0
LTYPE
  5
4B1
330
40B
100
AcDbSymbolTableRecord
100
AcDbLinetypeTableRecord
  2
DOT
 70
     0
  3
Dot . . . . . . . . . . . . . . . . . . . . . . . .
 72
    65
 73
     2
 40
6.35
 49
0.0
 74
     0
 49
-6.35
 74
     0
  0
LTYPE
  5
4B2
330
40B
100
AcDbSymbolTableRecord
100
AcDbLinetypeTableRecord
  2
DOT2
 70
     0
  3
Dot (.5x) ........................................
 72
    65
 73
     2
 40
3.175
 49
0.0
 74
     0
 49
-3.175
 74
     0
  0
LTYPE
  5
4B3
330
40B
100
AcDbSymbolTableRecord
100
AcDbLinetypeTableRecord
  2
DOTX2
 70
     0
  3
Dot (2x) .  .  .  .  .  .  .  .  .  .  .  .  .  .
 72
    65
 73
     2
 40
12.7
 49
0.0
 74
     0
 49
-12.7
 74
     0
  0
LTYPE
  5
4B5
330
40B
100
AcDbSymbolTableRecord
100
AcDbLinetypeTableRecord
  2
DRAINAGE
 70
     0
  3
Drainage ---->---->---->----
 72
    65
 73
     2
 40
10.16
 49
5.08
 74
     2
 75
     0
340
4B4
 46
2.54
 50
180.0
 44
0.0
 45
0.0
  9
RIGHT_ARROW
 49
5.08
 74
     0
  0
LTYPE
  5
4B7
330
40B
100
AcDbSymbolTableRecord
100
AcDbLinetypeTableRecord
  2
DRAINAGE2
 70
     0
  3
Drainage reversed----<----<----<----
 72
    65
 73
     2
 40
10.16
 49
5.08
 74
     2
 75
     0
340
4B6
 46
2.54
 50
0.0
 44
0.0
 45
0.0
  9
RIGHT_ARROW
 49
5.08
 74
     0
  0
LTYPE
  5
4B9
330
40B
100
AcDbSymbolTableRecord
100
AcDbLinetypeTableRecord
  2
FENCELINE1
 70
     0
  3
Fenceline circle ----0-----0----0-----0----0-----0--
 72
    65
 73
     4
 40
36.83
 49
6.35
 74
     0
 49
-2.54
 74
     2
 75
     0
340
4B8
 46
2.54
 50
0.0
 44
-2.54
 45
0.0
  9
CIRC1
 49
-2.54
 74
     0
 49
25.4
 74
     0
  0
LTYPE
  5
4BB
330
40B
100
AcDbSymbolTableRecord
100
AcDbLinetypeTableRecord
  2
FENCELINE2
 70
     0
  3
Fenceline square ----[]-----[]----[]-----[]----[]---
 72
    65
 73
     4
 40
36.83
 49
6.35
 74
     0
 49
-2.54
 74
     2
 75
     0
340
4BA
 46
2.54
 50
0.0
 44
-2.54
 45
0.0
  9
BOX
 49
-2.54
 74
     0
 49
25.4
 74
     0
  0
LTYPE
  5
4BD
330
40B
100
AcDbSymbolTableRecord
100
AcDbLinetypeTableRecord
  2
GAS_LINE
 70
     0
  3
Gas line ----GAS----GAS----GAS----GAS----GAS----GAS--
 72
    65
 73
     3
 40
24.13
 49
12.7
 74
     0
 49
-5.08
 74
     2
 75
     0
340
4BC
 46
2.54
 50
0.0
 44
-2.54
 45
-1.27
  9
GAS
 49
-6.35
 74
     0
  0
LTYPE
  5
4BE
330
40B
100
AcDbSymbolTableRecord
100
AcDbLinetypeTableRecord
  2
HIDDEN
 70
     0
  3
Hidden __ __ __ __ __ __ __ __ __ __ __ __ __ __
 72
    65
 73
     2
 40
9.524999999999999
 49
6.35
 74
     0
 49
-3.175
 74
     0
  0
LTYPE
  5
4BF
330
40B
100
AcDbSymbolTableRecord
100
AcDbLinetypeTableRecord
  2
HIDDEN2
 70
     0
  3
Hidden (.5x) _ _ _ _ _ _ _ _ _ _ _ _ _ _ _ _ _ 
 72
    65
 73
     2
 40
4.762499999999999
 49
3.175
 74
     0
 49
-1.5875
 74
     0
  0
LTYPE
  5
4C0
330
40B
100
AcDbSymbolTableRecord
100
AcDbLinetypeTableRecord
  2
HIDDENX2
 70
     0
  3
Hidden (2x) ____ ____ ____ ____ ____ ____ ____ 
 72
    65
 73
     2
 40
19.05
 49
12.7
 74
     0
 49
-6.35
 74
     0
  0
LTYPE
  5
4C2
330
40B
100
AcDbSymbolTableRecord
100
AcDbLinetypeTableRecord
  2
HOT_WATER_SUPPLY
 70
     0
  3
Hot water supply ---- HW ---- HW ---- HW ----
 72
    65
 73
     3
 40
22.86
 49
12.7
 74
     0
 49
-5.08
 74
     2
 75
     0
340
4C1
 46
2.54
 50
0.0
 44
-2.54
 45
-1.27
  9
HW
 49
-5.08
 74
     0
  0
LTYPE
  5
4C3
330
40B
100
AcDbSymbolTableRecord
100
AcDbLinetypeTableRecord
  2
PHANTOM
 70
     0
  3
Phantom ______  __  __  ______  __  __  ______ 
 72
    65
 73
     6
 40
63.50000000000001
 49
31.75
 74
     0
 49
-6.35
 74
     0
 49
6.35
 74
     0
 49
-6.35
 74
     0
 49
6.35
 74
     0
 49
-6.35
 74
     0
  0
LTYPE
  5
4C4
330
40B
100
AcDbSymbolTableRecord
100
AcDbLinetypeTableRecord
  2
PHANTOM2
 70
     0
  3
Phantom (.5x) ___ _ _ ___ _ _ ___ _ _ ___ _ _
 72
    65
 73
     6
 40
31.75
 49
15.875
 74
     0
 49
-3.175
 74
     0
 49
3.175
 74
     0
 49
-3.175
 74
     0
 49
3.175
 74
     0
 49
-3.175
 74
     0
  0
LTYPE
  5
4C5
330
40B
100
AcDbSymbolTableRecord
100
AcDbLinetypeTableRecord
  2
PHANTOMX2
 70
     0
  3
Phantom (2x) ____________    ____    ____   _
 72
    65
 73
     6
 40
127.0
 49
63.5
 74
     0
 49
-12.7
 74
     0
 49
12.7
 74
     0
 49
-12.7
 74
     0
 49
12.7
 74
     0
 49
-12.7
 74
     0
  0
LTYPE
  5
4C7
330
40B
100
AcDbSymbolTableRecord
100
AcDbLinetypeTableRecord
  2
TRACKS
 70
     0
  3
Tracks -|-|-|-|-|-|-|-|-|-|-|-|-|-|-|-|-|-|-|-|-|-|-|-|-
 72
    65
 73
     2
 40
7.62
 49
3.81
 74
     2
 75
     0
340
4C6
 46
6.35
 50
0.0
 44
0.0
 45
0.0
  9
TRACK1
 49
3.81
 74
     0
  0
LTYPE
  5
4CA
330
40B
100
AcDbSymbolTableRecord
100
AcDbLinetypeTableRecord
  2
ZIGZAG
 70
     0
  3
Zig zag /\/\/\/\/\/\/\/\/\/\/\/\/\/\/\/\/\/\/\/\/\/\/\/
 72
    65
 73
     4
 40
20.32254
 49
0.00254
 74
     0
 49
-5.08
 74
     2
 75
     0
340
4C8
 46
5.08
 50
0.0
 44
-5.08
 45
0.0
  9
ZIG
 49
-10.16
 74
     2
 75
     0
340
4C9
 46
5.08
 50
180.0
 44
5.08
 45
0.0
  9
ZIG
 49
-5.08
 74
     0
  0
LTYPE
  5
4CB
330
40B
100
AcDbSymbolTableRecord
100
AcDbLinetypeTableRecord
  2
ACAD_ISO02W100
 70
     0
  3
ISO dash __ __ __ __ __ __ __ __ __ __ __ __ __
 72
    65
 73
     2
 40
15.0
 49
12.0
 74
     0
 49
-3.0
 74
     0
  0
LTYPE
  5
4CC
330
40B
100
AcDbSymbolTableRecord
100
AcDbLinetypeTableRecord
  2
ACAD_ISO03W100
 70
     0
  3
ISO dash space __    __    __    __    __    __
 72
    65
 73
     2
 40
30.0
 49
12.0
 74
     0
 49
-18.0
 74
     0
  0
LTYPE
  5
4CD
330
40B
100
AcDbSymbolTableRecord
100
AcDbLinetypeTableRecord
  2
ACAD_ISO04W100
 70
     0
  3
ISO long-dash dot ____ . ____ . ____ . ____ . _
 72
    65
 73
     4
 40
30.0
 49
24.0
 74
     0
 49
-3.0
 74
     0
 49
0.0
 74
     0
 49
-3.0
 74
     0
  0
LTYPE
  5
4CE
330
40B
100
AcDbSymbolTableRecord
100
AcDbLinetypeTableRecord
  2
ACAD_ISO05W100
 70
     0
  3
ISO long-dash double-dot ____ .. ____ .. ____ . 
 72
    65
 73
     6
 40
33.0
 49
24.0
 74
     0
 49
-3.0
 74
     0
 49
0.0
 74
     0
 49
-3.0
 74
     0
 49
0.0
 74
     0
 49
-3.0
 74
     0
  0
LTYPE
  5
4CF
330
40B
100
AcDbSymbolTableRecord
100
AcDbLinetypeTableRecord
  2
ACAD_ISO06W100
 70
     0
  3
ISO long-dash triple-dot ____ ... ____ ... ____
 72
    65
 73
     8
 40
36.0
 49
24.0
 74
     0
 49
-3.0
 74
     0
 49
0.0
 74
     0
 49
-3.0
 74
     0
 49
0.0
 74
     0
 49
-3.0
 74
     0
 49
0.0
 74
     0
 49
-3.0
 74
     0
  0
LTYPE
  5
4D0
330
40B
100
AcDbSymbolTableRecord
100
AcDbLinetypeTableRecord
  2
ACAD_ISO07W100
 70
     0
  3
ISO dot . . . . . . . . . . . . . . . . . . . . 
 72
    65
 73
     2
 40
3.0
 49
0.0
 74
     0
 49
-3.0
 74
     0
  0
LTYPE
  5
4D1
330
40B
100
AcDbSymbolTableRecord
100
AcDbLinetypeTableRecord
  2
ACAD_ISO08W100
 70
     0
  3
ISO long-dash short-dash ____ __ ____ __ ____ _
 72
    65
 73
     4
 40
36.0
 49
24.0
 74
     0
 49
-3.0
 74
     0
 49
6.0
 74
     0
 49
-3.0
 74
     0
  0
LTYPE
  5
4D2
330
40B
100
AcDbSymbolTableRecord
100
AcDbLinetypeTableRecord
  2
ACAD_ISO09W100
 70
     0
  3
ISO long-dash double-short-dash ____ __ __ ____
 72
    65
 73
     6
 40
45.0
 49
24.0
 74
     0
 49
-3.0
 74
     0
 49
6.0
 74
     0
 49
-3.0
 74
     0
 49
6.0
 74
     0
 49
-3.0
 74
     0
  0
LTYPE
  5
4D3
330
40B
100
AcDbSymbolTableRecord
100
AcDbLinetypeTableRecord
  2
ACAD_ISO10W100
 70
     0
  3
ISO dash dot __ . __ . __ . __ . __ . __ . __ . 
 72
    65
 73
     4
 40
18.0
 49
12.0
 74
     0
 49
-3.0
 74
     0
 49
0.0
 74
     0
 49
-3.0
 74
     0
  0
LTYPE
  5
4D4
330
40B
100
AcDbSymbolTableRecord
100
AcDbLinetypeTableRecord
  2
ACAD_ISO11W100
 70
     0
  3
ISO double-dash dot __ __ . __ __ . __ __ . __ _
 72
    65
 73
     6
 40
33.0
 49
12.0
 74
     0
 49
-3.0
 74
     0
 49
12.0
 74
     0
 49
-3.0
 74
     0
 49
0.0
 74
     0
 49
-3.0
 74
     0
  0
LTYPE
  5
4D5
330
40B
100
AcDbSymbolTableRecord
100
AcDbLinetypeTableRecord
  2
ACAD_ISO12W100
 70
     0
  3
ISO dash double-dot __ . . __ . . __ . . __ . . 
 72
    65
 73
     6
 40
21.0
 49
12.0
 74
     0
 49
-3.0
 74
     0
 49
0.0
 74
     0
 49
-3.0
 74
     0
 49
0.0
 74
     0
 49
-3.0
 74
     0
  0
LTYPE
  5
4D6
330
40B
100
AcDbSymbolTableRecord
100
AcDbLinetypeTableRecord
  2
ACAD_ISO13W100
 70
     0
  3
ISO double-dash double-dot __ __ . . __ __ . . _
 72
    65
 73
     8
 40
36.0
 49
12.0
 74
     0
 49
-3.0
 74
     0
 49
12.0
 74
     0
 49
-3.0
 74
     0
 49
0.0
 74
     0
 49
-3.0
 74
     0
 49
0.0
 74
     0
 49
-3.0
 74
     0
  0
LTYPE
  5
4D7
330
40B
100
AcDbSymbolTableRecord
100
AcDbLinetypeTableRecord
  2
ACAD_ISO14W100
 70
     0
  3
ISO dash triple-dot __ . . . __ . . . __ . . . _
 72
    65
 73
     8
 40
24.0
 49
12.0
 74
     0
 49
-3.0
 74
     0
 49
0.0
 74
     0
 49
-3.0
 74
     0
 49
0.0
 74
     0
 49
-3.0
 74
     0
 49
0.0
 74
     0
 49
-3.0
 74
     0
  0
LTYPE
  5
4D8
330
40B
100
AcDbSymbolTableRecord
100
AcDbLinetypeTableRecord
  2
ACAD_ISO15W100
 70
     0
  3
ISO double-dash triple-dot __ __ . . . __ __ . .
 72
    65
 73
    10
 40
39.0
 49
12.0
 74
     0
 49
-3.0
 74
     0
 49
12.0
 74
     0
 49
-3.0
 74
     0
 49
0.0
 74
     0
 49
-3.0
 74
     0
 49
0.0
 74
     0
 49
-3.0
 74
     0
 49
0.0
 74
     0
 49
-3.0
 74
     0
  0
LTYPE
  5
4DB
330
40B
100
AcDbSymbolTableRecord
100
AcDbLinetypeTableRecord
  2
BATTING
 70
     0
  3
Batting SSSSSSSSSSSSSSSSSSSSSSSSSSSSSSSSSSSSSSSSSSSSSSS
 72
    65
 73
     4
 40
10.16254
 49
0.00254
 74
     0
 49
-2.54
 74
     2
 75
     0
340
4D9
 46
2.54
 50
0.0
 44
-2.54
 45
0.0
  9
BAT
 49
-5.08
 74
     2
 75
     0
340
4DA
 46
2.54
 50
180.0
 44
2.54
 45
0.0
  9
BAT
 49
-2.54
 74
     0
  0
LTYPE
  5
4DC
330
40B
100
AcDbSymbolTableRecord
100
AcDbLinetypeTableRecord
  2
BORDER
 70
     0
  3
Border __ __ . __ __ . __ __ . __ __ . __ __ .
 72
    65
 73
     6
 40
44.45
 49
12.7
 74
     0
 49
-6.35
 74
     0
 49
12.7
 74
     0
 49
-6.35
 74
     0
 49
0.0
 74
     0
 49
-6.35
 74
     0
  0
LTYPE
  5
4DD
330
40B
100
AcDbSymbolTableRecord
100
AcDbLinetypeTableRecord
  2
BORDER2
 70
     0
  3
Border (.5x) __.__.__.__.__.__.__.__.__.__.__.
 72
    65
 73
     6
 40
22.225
 49
6.35
 74
     0
 49
-3.175
 74
     0
 49
6.35
 74
     0
 49
-3.175
 74
     0
 49
0.0
 74
     0
 49
-3.175
 74
     0
  0
LTYPE
  5
4DE
330
40B
100
AcDbSymbolTableRecord
100
AcDbLinetypeTableRecord
  2
BORDERX2
 70
     0
  3
Border (2x) ____  ____  .  ____  ____  .  ___
 72
    65
 73
     6
 40
88.89999999999999
 49
25.4
 74
     0
 49
-12.7
 74
     0
 49
25.4
 74
     0
 49
-12.7
 74
     0
 49
0.0
 74
     0
 49
-12.7
 74
     0
  0
LTYPE
  5
4DF
330
40B
100
AcDbSymbolTableRecord
100
AcDbLinetypeTableRecord
  2
CENTER
 70
     0
  3
Center ____ _ ____ _ ____ _ ____ _ ____ _ ____
 72
    65
 73
     4
 40
50.8
 49
31.75
 74
     0
 49
-6.35
 74
     0
 49
6.35
 74
     0
 49
-6.35
 74
     0
  0
LTYPE
  5
4E0
330
40B
100
AcDbSymbolTableRecord
100
AcDbLinetypeTableRecord
  2
CENTER2
 70
     0
  3
Center (.5x) ___ _ ___ _ ___ _ ___ _ ___ _ ___
 72
    65
 73
     4
 40
28.575
 49
19.05
 74
     0
 49
-3.175
 74
     0
 49
3.175
 74
     0
 49
-3.175
 74
     0
  0
LTYPE
  5
4E1
330
40B
100
AcDbSymbolTableRecord
100
AcDbLinetypeTableRecord
  2
CENTERX2
 70
     0
  3
Center (2x) ________  __  ________  __  _____
 72
    65
 73
     4
 40
101.6
 49
63.5
 74
     0
 49
-12.7
 74
     0
 49
12.7
 74
     0
 49
-12.7
 74
     0
  0
LTYPE
  5
4E2
330
40B
100
AcDbSymbolTableRecord
100
AcDbLinetypeTableRecord
  2
DASHDOT
 70
     0
  3
Dash dot __ . __ . __ . __ . __ . __ . __ . __
 72
    65
 73
     4
 40
25.4
 49
12.7
 74
     0
 49
-6.35
 74
     0
 49
0.0
 74
     0
 49
-6.35
 74
     0
  0
LTYPE
  5
4E3
330
40B
100
AcDbSymbolTableRecord
100
AcDbLinetypeTableRecord
  2
DASHDOT2
 70
     0
  3
Dash dot (.5x) _._._._._._._._._._._._._._._.
 72
    65
 73
     4
 40
12.7
 49
6.35
 74
     0
 49
-3.175
 74
     0
 49
0.0
 74
     0
 49
-3.175
 74
     0
  0
LTYPE
  5
4E4
330
40B
100
AcDbSymbolTableRecord
100
AcDbLinetypeTableRecord
  2
DASHDOTX2
 70
     0
  3
Dash dot (2x) ____  .  ____  .  ____  .  ___
 72
    65
 73
     4
 40
50.8
 49
25.4
 74
     0
 49
-12.7
 74
     0
 49
0.0
 74
     0
 49
-12.7
 74
     0
  0
ENDTAB
  0
TABLE
  2
LAYER
  5
409
330
0
100
AcDbSymbolTable
 70
     2
  0
LAYER
  5
416
330
409
100
AcDbSymbolTableRecord
100
AcDbLayerTableRecord
  2
0
 70
     0
 62
     7
  6
Continuous
370
    -3
390
415
347
44B
348
0
  0
LAYER
  5
4E5
330
409
100
AcDbSymbolTableRecord
100
AcDbLayerTableRecord
  2
TETE
 70
     0
 62
     5
420
      255
  6
Continuous
370
    -3
390
415
347
44B
348
0
  0
ENDTAB
  0
TABLE
  2
STYLE
  5
40A
330
0
100
AcDbSymbolTable
 70
    12
  0
STYLE
  5
417
330
40A
100
AcDbSymbolTableRecord
100
AcDbTextStyleTableRecord
  2
Standard
 70
     0
 40
0.0
 41
1.0
 50
0.0
 71
     0
 42
0.2
  3
txt
  4

  0
STYLE
  5
4B4
330
40A
100
AcDbSymbolTableRecord
100
AcDbTextStyleTableRecord
  2
textstyle0
 70
     0
 40
0.0
 41
1.0
 50
0.0
 71
     0
 42
0.2
  3
qcadshp.shx
  4

  0
STYLE
  5
4B6
330
40A
100
AcDbSymbolTableRecord
100
AcDbTextStyleTableRecord
  2
textstyle1
 70
     0
 40
0.0
 41
1.0
 50
0.0
 71
     0
 42
0.2
  3
qcadshp.shx
  4

  0
STYLE
  5
4B8
330
40A
100
AcDbSymbolTableRecord
100
AcDbTextStyleTableRecord
  2
textstyle2
 70
     0
 40
0.0
 41
1.0
 50
0.0
 71
     0
 42
0.2
  3
ltypeshp.shx
  4

  0
STYLE
  5
4BA
330
40A
100
AcDbSymbolTableRecord
100
AcDbTextStyleTableRecord
  2
textstyle3
 70
     0
 40
0.0
 41
1.0
 50
0.0
 71
     0
 42
0.2
  3
ltypeshp.shx
  4

  0
STYLE
  5
4BC
330
40A
100
AcDbSymbolTableRecord
100
AcDbTextStyleTableRecord
  2
textstyle4
 70
     0
 40
0.0
 41
1.0
 50
0.0
 71
     0
 42
0.2
  3
STANDARD
  4

  0
STYLE
  5
4C1
330
40A
100
AcDbSymbolTableRecord
100
AcDbTextStyleTableRecord
  2
textstyle5
 70
     0
 40
0.0
 41
1.0
 50
0.0
 71
     0
 42
0.2
  3
STANDARD
  4

  0
STYLE
  5
4C6
330
40A
100
AcDbSymbolTableRecord
100
AcDbTextStyleTableRecord
  2
textstyle6
 70
     0
 40
0.0
 41
1.0
 50
0.0
 71
     0
 42
0.2
  3
ltypeshp.shx
  4

  0
STYLE
  5
4C8
330
40A
100
AcDbSymbolTableRecord
100
AcDbTextStyleTableRecord
  2
textstyle7
 70
     0
 40
0.0
 41
1.0
 50
0.0
 71
     0
 42
0.2
  3
ltypeshp.shx
  4

  0
STYLE
  5
4C9
330
40A
100
AcDbSymbolTableRecord
100
AcDbTextStyleTableRecord
  2
textstyle8
 70
     0
 40
0.0
 41
1.0
 50
0.0
 71
     0
 42
0.2
  3
ltypeshp.shx
  4

  0
STYLE
  5
4D9
330
40A
100
AcDbSymbolTableRecord
100
AcDbTextStyleTableRecord
  2
textstyle9
 70
     0
 40
0.0
 41
1.0
 50
0.0
 71
     0
 42
0.2
  3
ltypeshp.shx
  4

  0
STYLE
  5
4DA
330
40A
100
AcDbSymbolTableRecord
100
AcDbTextStyleTableRecord
  2
textstyle10
 70
     0
 40
0.0
 41
1.0
 50
0.0
 71
     0
 42
0.2
  3
ltypeshp.shx
  4

  0
ENDTAB
  0
TABLE
  2
VIEW
  5
40C
330
0
100
AcDbSymbolTable
 70
     0
  0
ENDTAB
  0
TABLE
  2
UCS
  5
40D
330
0
100
AcDbSymbolTable
 70
     0
  0
ENDTAB
  0
TABLE
  2
APPID
  5
40F
330
0
100
AcDbSymbolTable
 70
     2
  0
APPID
  5
418
330
40F
100
AcDbSymbolTableRecord
100
AcDbRegAppTableRecord
  2
ACAD
 70
     0
  0
APPID
  5
473
330
40F
100
AcDbSymbolTableRecord
100
AcDbRegAppTableRecord
  2
QCAD
 70
     0
  0
ENDTAB
  0
TABLE
  2
DIMSTYLE
  5
410
330
0
100
AcDbSymbolTable
 70
     2
100
AcDbDimStyleTable
  0
DIMSTYLE
105
42C
330
410
100
AcDbSymbolTableRecord
100
AcDbDimStyleTableRecord
  2
Standard
 70
     0
178
     0
340
417
  0
DIMSTYLE
105
4AA
330
410
100
AcDbSymbolTableRecord
100
AcDbDimStyleTableRecord
  2
QCADDimStyle
 70
     0
 41
2.5
 42
0.625
 44
1.25
 73
     0
 77
     1
140
2.5
147
0.625
178
     0
340
417
  0
ENDTAB
  0
TABLE
  2
BLOCK_RECORD
  5
408
330
0
100
AcDbSymbolTable
 70
     3
  0
BLOCK_RECORD
  5
424
330
408
100
AcDbSymbolTableRecord
100
AcDbBlockTableRecord
  2
*Model_Space
340
427
 70
     0
280
     1
281
     0
  0
BLOCK_RECORD
  5
420
330
408
100
AcDbSymbolTableRecord
100
AcDbBlockTableRecord
  2
*Paper_Space
340
423
 70
     0
280
     1
281
     0
  0
BLOCK_RECORD
  5
4E8
330
408
100
AcDbSymbolTableRecord
100
AcDbBlockTableRecord
  2
bloc 1
340
0
102
{BLKREFS
331
C6
331
A2
102
}
 70
     0
280
     1
281
     0
  0
BLOCK_RECORD
  5
4EB
330
408
100
AcDbSymbolTableRecord
100
AcDbBlockTableRecord
  2
bloc 2
340
0
102
{BLKREFS
331
10E
331
121
331
2B3
102
}
 70
     0
280
     1
281
     0
  0
BLOCK_RECORD
  5
4EE
330
408
100
AcDbSymbolTableRecord
100
AcDbBlockTableRecord
  2
bloc 3
340
0
102
{BLKREFS
331
378
102
}
 70
     0
280
     1
281
     0
  0
ENDTAB
  0
ENDSEC
  0
SECTION
  2
BLOCKS
  0
BLOCK
  5
425
330
424
100
AcDbEntity
  8
0
100
AcDbBlockBegin
  2
*Model_Space
 70
     0
 10
0.0
 20
0.0
 30
0.0
  3
*Model_Space
  1

  0
ENDBLK
  5
426
330
424
100
AcDbEntity
  8
0
100
AcDbBlockEnd
  0
BLOCK
  5
421
330
420
100
AcDbEntity
 67
     1
  8
0
100
AcDbBlockBegin
  2
*Paper_Space
 70
     0
 10
0.0
 20
0.0
 30
0.0
  3
*Paper_Space
  1

  0
ENDBLK
  5
422
330
420
100
AcDbEntity
 67
     1
  8
0
100
AcDbBlockEnd
  0
BLOCK
  5
4E9
330
4E8
100
AcDbEntity
  8
0
100
AcDbBlockBegin
  2
bloc 1
 70
     0
 10
0.0
 20
0.0
 30
0.0
  3
bloc 1
  1

  0
LINE
  5
210
330
4E8
100
AcDbEntity
  8
0
100
AcDbLine
 10
-0.0000000000000071
 20
3.000000000000011
 30
0.0
 11
-0.0000000000000071
 21
4.000000000000011
 31
0.0
  0
LINE
  5
211
330
4E8
100
AcDbEntity
  8
0
100
AcDbLine
 10
21.99999999999999
 20
3.000000000000004
 30
0.0
 11
22.0
 21
4.000000000000004
 31
0.0
  0
LINE
  5
212
330
4E8
100
AcDbEntity
  8
0
100
AcDbLine
 10
-0.0000000000000071
 20
4.000000000000011
 30
0.0
 11
-4.000000000000007
 21
4.000000000000011
 31
0.0
  0
LINE
  5
213
330
4E8
100
AcDbEntity
  8
0
100
AcDbLine
 10
22.0
 20
4.000000000000004
 30
0.0
 11
17.99999999999999
 21
4.000000000000011
 31
0.0
  0
LINE
  5
214
330
4E8
100
AcDbEntity
  8
0
100
AcDbLine
 10
-4.000000000000007
 20
4.000000000000011
 30
0.0
 11
-4.000000000000007
 21
3.000000000000011
 31
0.0
  0
LINE
  5
215
330
4E8
100
AcDbEntity
  8
0
100
AcDbLine
 10
17.99999999999999
 20
4.000000000000011
 30
0.0
 11
18.0
 21
3.0
 31
0.0
  0
LINE
  5
216
330
4E8
100
AcDbEntity
  8
0
100
AcDbLine
 10
-4.000000000000007
 20
3.000000000000011
 30
0.0
 11
-0.0000000000000071
 21
3.000000000000011
 31
0.0
  0
LINE
  5
217
330
4E8
100
AcDbEntity
  8
0
100
AcDbLine
 10
18.0
 20
3.0
 30
0.0
 11
21.99999999999999
 21
3.000000000000004
 31
0.0
  0
LINE
  5
218
330
4E8
100
AcDbEntity
  8
0
100
AcDbLine
 10
-0.0000000000000071
 20
6.000000000000011
 30
0.0
 11
0.0
 21
7.000000000000011
 31
0.0
  0
LINE
  5
219
330
4E8
100
AcDbEntity
  8
0
100
AcDbLine
 10
22.0
 20
6.0
 30
0.0
 11
22.0
 21
7.000000000000004
 31
0.0
  0
LINE
  5
21A
330
4E8
100
AcDbEntity
  8
0
100
AcDbLine
 10
0.0
 20
7.000000000000011
 30
0.0
 11
-4.000000000000007
 21
7.000000000000011
 31
0.0
  0
LINE
  5
21B
330
4E8
100
AcDbEntity
  8
0
100
AcDbLine
 10
22.0
 20
7.000000000000004
 30
0.0
 11
18.0
 21
7.000000000000007
 31
0.0
  0
LINE
  5
21C
330
4E8
100
AcDbEntity
  8
0
100
AcDbLine
 10
-4.000000000000007
 20
7.000000000000011
 30
0.0
 11
-4.000000000000007
 21
6.000000000000011
 31
0.0
  0
LINE
  5
21D
330
4E8
100
AcDbEntity
  8
0
100
AcDbLine
 10
18.0
 20
7.000000000000007
 30
0.0
 11
18.0
 21
6.000000000000004
 31
0.0
  0
LINE
  5
21E
330
4E8
100
AcDbEntity
  8
0
100
AcDbLine
 10
-4.000000000000007
 20
6.000000000000011
 30
0.0
 11
-0.0000000000000071
 21
6.000000000000011
 31
0.0
  0
LINE
  5
21F
330
4E8
100
AcDbEntity
  8
0
100
AcDbLine
 10
18.0
 20
6.000000000000004
 30
0.0
 11
22.0
 21
6.0
 31
0.0
  0
LINE
  5
220
330
4E8
100
AcDbEntity
  8
0
100
AcDbLine
 10
-0.0000000000000071
 20
9.00000000000001
 30
0.0
 11
-0.0000000000000071
 21
10.00000000000001
 31
0.0
  0
LINE
  5
221
330
4E8
100
AcDbEntity
  8
0
100
AcDbLine
 10
22.0
 20
9.00000000000001
 30
0.0
 11
21.99999999999999
 21
10.00000000000001
 31
0.0
  0
LINE
  5
222
330
4E8
100
AcDbEntity
  8
0
100
AcDbLine
 10
-0.0000000000000071
 20
10.00000000000001
 30
0.0
 11
-4.000000000000007
 21
10.00000000000001
 31
0.0
  0
LINE
  5
223
330
4E8
100
AcDbEntity
  8
0
100
AcDbLine
 10
21.99999999999999
 20
10.00000000000001
 30
0.0
 11
18.0
 21
10.0
 31
0.0
  0
LINE
  5
224
330
4E8
100
AcDbEntity
  8
0
100
AcDbLine
 10
-4.000000000000007
 20
10.00000000000001
 30
0.0
 11
-4.000000000000007
 21
9.00000000000001
 31
0.0
  0
LINE
  5
225
330
4E8
100
AcDbEntity
  8
0
100
AcDbLine
 10
18.0
 20
10.0
 30
0.0
 11
18.0
 21
9.000000000000007
 31
0.0
  0
LINE
  5
226
330
4E8
100
AcDbEntity
  8
0
100
AcDbLine
 10
-4.000000000000007
 20
9.00000000000001
 30
0.0
 11
-0.0000000000000071
 21
9.00000000000001
 31
0.0
  0
LINE
  5
227
330
4E8
100
AcDbEntity
  8
0
100
AcDbLine
 10
18.0
 20
9.000000000000007
 30
0.0
 11
22.0
 21
9.00000000000001
 31
0.0
  0
LINE
  5
228
330
4E8
100
AcDbEntity
  8
0
100
AcDbLine
 10
-0.0000000000000071
 20
12.00000000000001
 30
0.0
 11
-0.0000000000000071
 21
13.00000000000001
 31
0.0
  0
LINE
  5
229
330
4E8
100
AcDbEntity
  8
0
100
AcDbLine
 10
21.99999999999999
 20
12.00000000000001
 30
0.0
 11
22.0
 21
13.0
 31
0.0
  0
LINE
  5
22A
330
4E8
100
AcDbEntity
  8
0
100
AcDbLine
 10
-0.0000000000000071
 20
13.00000000000001
 30
0.0
 11
-4.000000000000007
 21
13.00000000000001
 31
0.0
  0
LINE
  5
22B
330
4E8
100
AcDbEntity
  8
0
100
AcDbLine
 10
22.0
 20
13.0
 30
0.0
 11
18.0
 21
13.0
 31
0.0
  0
LINE
  5
22C
330
4E8
100
AcDbEntity
  8
0
100
AcDbLine
 10
-4.000000000000007
 20
13.00000000000001
 30
0.0
 11
-4.000000000000007
 21
12.00000000000001
 31
0.0
  0
LINE
  5
22D
330
4E8
100
AcDbEntity
  8
0
100
AcDbLine
 10
18.0
 20
13.0
 30
0.0
 11
18.0
 21
12.0
 31
0.0
  0
LINE
  5
22E
330
4E8
100
AcDbEntity
  8
0
100
AcDbLine
 10
-4.000000000000007
 20
12.00000000000001
 30
0.0
 11
-0.0000000000000071
 21
12.00000000000001
 31
0.0
  0
LINE
  5
22F
330
4E8
100
AcDbEntity
  8
0
100
AcDbLine
 10
18.0
 20
12.0
 30
0.0
 11
21.99999999999999
 21
12.00000000000001
 31
0.0
  0
LINE
  5
230
330
4E8
100
AcDbEntity
  8
0
100
AcDbLine
 10
-0.0000000000000142
 20
15.00000000000001
 30
0.0
 11
-0.0000000000000142
 21
16.00000000000001
 31
0.0
  0
LINE
  5
231
330
4E8
100
AcDbEntity
  8
0
100
AcDbLine
 10
22.0
 20
15.0
 30
0.0
 11
21.99999999999999
 21
16.00000000000001
 31
0.0
  0
LINE
  5
232
330
4E8
100
AcDbEntity
  8
0
100
AcDbLine
 10
-0.0000000000000142
 20
16.00000000000001
 30
0.0
 11
-4.000000000000007
 21
16.00000000000002
 31
0.0
  0
LINE
  5
233
330
4E8
100
AcDbEntity
  8
0
100
AcDbLine
 10
21.99999999999999
 20
16.00000000000001
 30
0.0
 11
18.0
 21
16.0
 31
0.0
  0
LINE
  5
234
330
4E8
100
AcDbEntity
  8
0
100
AcDbLine
 10
-4.000000000000007
 20
16.00000000000002
 30
0.0
 11
-4.000000000000007
 21
15.00000000000001
 31
0.0
  0
LINE
  5
235
330
4E8
100
AcDbEntity
  8
0
100
AcDbLine
 10
18.0
 20
16.0
 30
0.0
 11
18.0
 21
15.00000000000001
 31
0.0
  0
LINE
  5
236
330
4E8
100
AcDbEntity
  8
0
100
AcDbLine
 10
-4.000000000000007
 20
15.00000000000001
 30
0.0
 11
-0.0000000000000142
 21
15.00000000000001
 31
0.0
  0
LINE
  5
237
330
4E8
100
AcDbEntity
  8
0
100
AcDbLine
 10
18.0
 20
15.00000000000001
 30
0.0
 11
22.0
 21
15.0
 31
0.0
  0
LINE
  5
238
330
4E8
100
AcDbEntity
  8
0
100
AcDbLine
 10
-0.0000000000000071
 20
18.00000000000001
 30
0.0
 11
-0.0000000000000071
 21
19.00000000000001
 31
0.0
  0
LINE
  5
239
330
4E8
100
AcDbEntity
  8
0
100
AcDbLine
 10
22.0
 20
18.0
 30
0.0
 11
21.99999999999999
 21
19.0
 31
0.0
  0
LINE
  5
23A
330
4E8
100
AcDbEntity
  8
0
100
AcDbLine
 10
-0.0000000000000071
 20
19.00000000000001
 30
0.0
 11
-4.000000000000007
 21
19.00000000000001
 31
0.0
  0
LINE
  5
23B
330
4E8
100
AcDbEntity
  8
0
100
AcDbLine
 10
21.99999999999999
 20
19.0
 30
0.0
 11
18.0
 21
19.0
 31
0.0
  0
LINE
  5
23C
330
4E8
100
AcDbEntity
  8
0
100
AcDbLine
 10
-4.000000000000007
 20
19.00000000000001
 30
0.0
 11
-4.000000000000007
 21
18.00000000000001
 31
0.0
  0
LINE
  5
23D
330
4E8
100
AcDbEntity
  8
0
100
AcDbLine
 10
18.0
 20
19.0
 30
0.0
 11
18.00000000000001
 21
18.0
 31
0.0
  0
LINE
  5
23E
330
4E8
100
AcDbEntity
  8
0
100
AcDbLine
 10
-4.000000000000007
 20
18.00000000000001
 30
0.0
 11
-0.0000000000000071
 21
18.00000000000001
 31
0.0
  0
LINE
  5
23F
330
4E8
100
AcDbEntity
  8
0
100
AcDbLine
 10
18.00000000000001
 20
18.0
 30
0.0
 11
22.0
 21
18.0
 31
0.0
  0
LWPOLYLINE
  5
A0
330
4E8
100
AcDbEntity
  8
0
100
AcDbPolyline
 90
        4
 70
   129
 43
0.0
 10
18.0
 20
20.0
 10
18.0
 20
2.0
 10
0.0
 20
2.0
 10
0.0
 20
20.0
  0
LINE
  5
122
330
4E8
100
AcDbEntity
  8
0
100
AcDbLine
 10
1.0
 20
20.0
 30
0.0
 11
2.0
 21
20.0
 31
0.0
  0
LINE
  5
13A
330
4E8
100
AcDbEntity
  8
0
100
AcDbLine
 10
1.0
 20
-2.0
 30
0.0
 11
2.0
 21
-2.0
 31
0.0
  0
LINE
  5
123
330
4E8
100
AcDbEntity
  8
0
100
AcDbLine
 10
2.0
 20
20.0
 30
0.0
 11
2.0
 21
24.0
 31
0.0
  0
LINE
  5
13B
330
4E8
100
AcDbEntity
  8
0
100
AcDbLine
 10
2.0
 20
-2.0
 30
0.0
 11
2.0
 21
2.0
 31
0.0
  0
LINE
  5
124
330
4E8
100
AcDbEntity
  8
0
100
AcDbLine
 10
2.0
 20
24.0
 30
0.0
 11
1.0
 21
24.0
 31
0.0
  0
LINE
  5
13C
330
4E8
100
AcDbEntity
  8
0
100
AcDbLine
 10
2.0
 20
2.0
 30
0.0
 11
1.0
 21
2.0
 31
0.0
  0
LINE
  5
125
330
4E8
100
AcDbEntity
  8
0
100
AcDbLine
 10
1.0
 20
24.0
 30
0.0
 11
1.0
 21
20.0
 31
0.0
  0
LINE
  5
13D
330
4E8
100
AcDbEntity
  8
0
100
AcDbLine
 10
1.0
 20
2.0
 30
0.0
 11
1.0
 21
-2.0
 31
0.0
  0
LINE
  5
126
330
4E8
100
AcDbEntity
  8
0
100
AcDbLine
 10
4.0
 20
20.0
 30
0.0
 11
5.0
 21
20.0
 31
0.0
  0
LINE
  5
13E
330
4E8
100
AcDbEntity
  8
0
100
AcDbLine
 10
4.0
 20
-2.0
 30
0.0
 11
5.0
 21
-2.0
 31
0.0
  0
LINE
  5
127
330
4E8
100
AcDbEntity
  8
0
100
AcDbLine
 10
5.0
 20
20.0
 30
0.0
 11
5.0
 21
24.0
 31
0.0
  0
LINE
  5
13F
330
4E8
100
AcDbEntity
  8
0
100
AcDbLine
 10
5.0
 20
-2.0
 30
0.0
 11
5.0
 21
2.0
 31
0.0
  0
LINE
  5
128
330
4E8
100
AcDbEntity
  8
0
100
AcDbLine
 10
5.0
 20
24.0
 30
0.0
 11
4.0
 21
24.0
 31
0.0
  0
LINE
  5
140
330
4E8
100
AcDbEntity
  8
0
100
AcDbLine
 10
5.0
 20
2.0
 30
0.0
 11
4.0
 21
2.0
 31
0.0
  0
LINE
  5
129
330
4E8
100
AcDbEntity
  8
0
100
AcDbLine
 10
4.0
 20
24.0
 30
0.0
 11
4.0
 21
20.0
 31
0.0
  0
LINE
  5
141
330
4E8
100
AcDbEntity
  8
0
100
AcDbLine
 10
4.0
 20
2.0
 30
0.0
 11
4.0
 21
-2.0
 31
0.0
  0
LINE
  5
12A
330
4E8
100
AcDbEntity
  8
0
100
AcDbLine
 10
7.0
 20
20.0
 30
0.0
 11
8.0
 21
20.0
 31
0.0
  0
LINE
  5
142
330
4E8
100
AcDbEntity
  8
0
100
AcDbLine
 10
7.0
 20
-2.0
 30
0.0
 11
8.0
 21
-2.0
 31
0.0
  0
LINE
  5
12B
330
4E8
100
AcDbEntity
  8
0
100
AcDbLine
 10
8.0
 20
20.0
 30
0.0
 11
8.0
 21
24.0
 31
0.0
  0
LINE
  5
143
330
4E8
100
AcDbEntity
  8
0
100
AcDbLine
 10
8.0
 20
-2.0
 30
0.0
 11
8.0
 21
2.0
 31
0.0
  0
LINE
  5
12C
330
4E8
100
AcDbEntity
  8
0
100
AcDbLine
 10
8.0
 20
24.0
 30
0.0
 11
7.0
 21
24.0
 31
0.0
  0
LINE
  5
144
330
4E8
100
AcDbEntity
  8
0
100
AcDbLine
 10
8.0
 20
2.0
 30
0.0
 11
7.0
 21
2.0
 31
0.0
  0
LINE
  5
12D
330
4E8
100
AcDbEntity
  8
0
100
AcDbLine
 10
7.0
 20
24.0
 30
0.0
 11
7.0
 21
20.0
 31
0.0
  0
LINE
  5
145
330
4E8
100
AcDbEntity
  8
0
100
AcDbLine
 10
7.0
 20
2.0
 30
0.0
 11
7.0
 21
-2.0
 31
0.0
  0
LINE
  5
12E
330
4E8
100
AcDbEntity
  8
0
100
AcDbLine
 10
10.0
 20
20.0
 30
0.0
 11
11.0
 21
20.0
 31
0.0
  0
LINE
  5
146
330
4E8
100
AcDbEntity
  8
0
100
AcDbLine
 10
10.0
 20
-2.0
 30
0.0
 11
11.0
 21
-2.0
 31
0.0
  0
LINE
  5
12F
330
4E8
100
AcDbEntity
  8
0
100
AcDbLine
 10
11.0
 20
20.0
 30
0.0
 11
11.0
 21
24.0
 31
0.0
  0
LINE
  5
147
330
4E8
100
AcDbEntity
  8
0
100
AcDbLine
 10
11.0
 20
-2.0
 30
0.0
 11
11.0
 21
2.0
 31
0.0
  0
LINE
  5
130
330
4E8
100
AcDbEntity
  8
0
100
AcDbLine
 10
11.0
 20
24.0
 30
0.0
 11
10.0
 21
24.0
 31
0.0
  0
LINE
  5
148
330
4E8
100
AcDbEntity
  8
0
100
AcDbLine
 10
11.0
 20
2.0
 30
0.0
 11
10.0
 21
2.0
 31
0.0
  0
LINE
  5
131
330
4E8
100
AcDbEntity
  8
0
100
AcDbLine
 10
10.0
 20
24.0
 30
0.0
 11
10.0
 21
20.0
 31
0.0
  0
LINE
  5
149
330
4E8
100
AcDbEntity
  8
0
100
AcDbLine
 10
10.0
 20
2.0
 30
0.0
 11
10.0
 21
-2.0
 31
0.0
  0
LINE
  5
132
330
4E8
100
AcDbEntity
  8
0
100
AcDbLine
 10
13.0
 20
20.0
 30
0.0
 11
14.0
 21
20.0
 31
0.0
  0
LINE
  5
14A
330
4E8
100
AcDbEntity
  8
0
100
AcDbLine
 10
13.0
 20
-2.0
 30
0.0
 11
14.0
 21
-2.0
 31
0.0
  0
LINE
  5
133
330
4E8
100
AcDbEntity
  8
0
100
AcDbLine
 10
14.0
 20
20.0
 30
0.0
 11
14.0
 21
24.0
 31
0.0
  0
LINE
  5
14B
330
4E8
100
AcDbEntity
  8
0
100
AcDbLine
 10
14.0
 20
-2.0
 30
0.0
 11
14.0
 21
2.0
 31
0.0
  0
LINE
  5
134
330
4E8
100
AcDbEntity
  8
0
100
AcDbLine
 10
14.0
 20
24.0
 30
0.0
 11
13.0
 21
24.0
 31
0.0
  0
LINE
  5
14C
330
4E8
100
AcDbEntity
  8
0
100
AcDbLine
 10
14.0
 20
2.0
 30
0.0
 11
13.0
 21
2.0
 31
0.0
  0
LINE
  5
135
330
4E8
100
AcDbEntity
  8
0
100
AcDbLine
 10
13.0
 20
24.0
 30
0.0
 11
13.0
 21
20.0
 31
0.0
  0
LINE
  5
14D
330
4E8
100
AcDbEntity
  8
0
100
AcDbLine
 10
13.0
 20
2.0
 30
0.0
 11
13.0
 21
-2.0
 31
0.0
  0
LINE
  5
136
330
4E8
100
AcDbEntity
  8
0
100
AcDbLine
 10
16.0
 20
20.0
 30
0.0
 11
17.0
 21
20.0
 31
0.0
  0
LINE
  5
14E
330
4E8
100
AcDbEntity
  8
0
100
AcDbLine
 10
16.0
 20
-2.0
 30
0.0
 11
17.0
 21
-2.0
 31
0.0
  0
LINE
  5
137
330
4E8
100
AcDbEntity
  8
0
100
AcDbLine
 10
17.0
 20
20.0
 30
0.0
 11
17.0
 21
24.0
 31
0.0
  0
LINE
  5
14F
330
4E8
100
AcDbEntity
  8
0
100
AcDbLine
 10
17.0
 20
-2.0
 30
0.0
 11
17.0
 21
2.0
 31
0.0
  0
LINE
  5
138
330
4E8
100
AcDbEntity
  8
0
100
AcDbLine
 10
17.0
 20
24.0
 30
0.0
 11
16.0
 21
24.0
 31
0.0
  0
LINE
  5
150
330
4E8
100
AcDbEntity
  8
0
100
AcDbLine
 10
17.0
 20
2.0
 30
0.0
 11
16.0
 21
2.0
 31
0.0
  0
LINE
  5
139
330
4E8
100
AcDbEntity
  8
0
100
AcDbLine
 10
16.0
 20
24.0
 30
0.0
 11
16.0
 21
20.0
 31
0.0
  0
LINE
  5
151
330
4E8
100
AcDbEntity
  8
0
100
AcDbLine
 10
16.0
 20
2.0
 30
0.0
 11
16.0
 21
-2.0
 31
0.0
  0
ENDBLK
  5
4EA
330
4E8
100
AcDbEntity
  8
0
100
AcDbBlockEnd
  0
BLOCK
  5
4EC
330
4EB
100
AcDbEntity
  8
0
100
AcDbBlockBegin
  2
bloc 2
 70
     0
 10
0.0
 20
0.0
 30
0.0
  3
bloc 2
  1

  0
LINE
  5
D9
330
4EB
100
AcDbEntity
  8
0
100
AcDbLine
 10
-2.594323565133479
 20
28.45586295577764
 30
0.0
 11
1.101053829789564
 21
28.45586295577764
 31
0.0
  0
LINE
  5
DC
330
4EB
100
AcDbEntity
  8
0
100
AcDbLine
 10
-2.594323565133479
 20
9.053846118913999
 30
0.0
 11
-2.594323565133479
 21
28.45586295577764
 31
0.0
  0
LINE
  5
F4
330
4EB
100
AcDbEntity
  8
0
100
AcDbLine
 10
-6.246634867671958
 20
7.053846118913998
 30
0.0
 11
-2.594323565133493
 21
7.053846118913998
 31
0.0
  0
LINE
  5
F5
330
4EB
100
AcDbEntity
  8
0
100
AcDbLine
 10
1.101053829789564
 20
7.053846118913998
 30
0.0
 11
4.753365132328042
 21
7.053846118913998
 31
0.0
  0
LINE
  5
F6
330
4EB
100
AcDbEntity
  8
0
100
AcDbLine
 10
-6.246634867671958
 20
9.053846118913999
 30
0.0
 11
-2.594323565133493
 21
9.053846118913999
 31
0.0
  0
LINE
  5
F7
330
4EB
100
AcDbEntity
  8
0
100
AcDbLine
 10
1.101053829789564
 20
9.053846118913999
 30
0.0
 11
4.753365132328042
 21
9.053846118913999
 31
0.0
  0
LINE
  5
E2
330
4EB
100
AcDbEntity
  8
0
100
AcDbLine
 10
4.753365132328042
 20
9.053846118913999
 30
0.0
 11
4.753365132328042
 21
8.053846118913999
 31
0.0
  0
LINE
  5
E8
330
4EB
100
AcDbEntity
  8
0
100
AcDbLine
 10
4.753365132328042
 20
7.053846118913998
 30
0.0
 11
4.753365132328042
 21
6.053846118913998
 31
0.0
  0
LINE
  5
F2
330
4EB
100
AcDbEntity
  8
0
100
AcDbLine
 10
4.753365132328042
 20
8.053846118913999
 30
0.0
 11
1.101053829789564
 21
8.053846118913999
 31
0.0
  0
LINE
  5
F3
330
4EB
100
AcDbEntity
  8
0
100
AcDbLine
 10
-2.594323565133493
 20
8.053846118913999
 30
0.0
 11
-6.246634867671958
 21
8.053846118913999
 31
0.0
  0
LINE
  5
10B
330
4EB
100
AcDbEntity
  8
0
100
AcDbLine
 10
-4.420479216402725
 20
6.053846118913998
 30
0.0
 11
-6.246634867671958
 21
6.053846118913998
 31
0.0
  0
LINE
  5
10C
330
4EB
100
AcDbEntity
  8
0
100
AcDbLine
 10
4.753365132328042
 20
6.053846118913998
 30
0.0
 11
2.92720948105881
 21
6.053846118913998
 31
0.0
  0
LINE
  5
E4
330
4EB
100
AcDbEntity
  8
0
100
AcDbLine
 10
-6.246634867671958
 20
8.053846118913999
 30
0.0
 11
-6.246634867671958
 21
9.053846118913999
 31
0.0
  0
LINE
  5
EA
330
4EB
100
AcDbEntity
  8
0
100
AcDbLine
 10
-6.246634867671958
 20
6.053846118913998
 30
0.0
 11
-6.246634867671958
 21
7.053846118913998
 31
0.0
  0
LINE
  5
FB
330
4EB
100
AcDbEntity
  8
0
100
AcDbLine
 10
-2.594323565133493
 20
7.053846118913998
 30
0.0
 11
-2.594323565133493
 21
8.053846118913999
 31
0.0
  0
LINE
  5
FD
330
4EB
100
AcDbEntity
  8
0
100
AcDbLine
 10
1.101053829789564
 20
9.053846118913995
 30
0.0
 11
1.101053829789564
 21
28.45586295577763
 31
0.0
  0
LINE
  5
FE
330
4EB
100
AcDbEntity
  8
0
100
AcDbLine
 10
1.101053829789564
 20
7.053846118913998
 30
0.0
 11
1.101053829789564
 21
8.053846118913995
 31
0.0
  0
LINE
  5
104
330
4EB
100
AcDbEntity
  8
0
100
AcDbLine
 10
-4.420479216402725
 20
6.053846118913998
 30
0.0
 11
-1.493269735343944
 21
0.0000000000000053
 31
0.0
  0
LINE
  5
106
330
4EB
100
AcDbEntity
  8
0
100
AcDbLine
 10
2.927209481058796
 20
6.053846118913998
 30
0.0
 11
0.0
 21
0.0
 31
0.0
  0
ENDBLK
  5
4ED
330
4EB
100
AcDbEntity
  8
0
100
AcDbBlockEnd
  0
BLOCK
  5
4EF
330
4EE
100
AcDbEntity
  8
0
100
AcDbBlockBegin
  2
bloc 3
 70
     0
 10
0.0
 20
0.0
 30
0.0
  3
bloc 3
  1

  0
LINE
  5
2B5
330
4EE
100
AcDbEntity
  8
0
100
AcDbLine
 10
16.64644660940675
 20
-0.3535533905932766
 30
0.0
 11
15.23223304703365
 21
-1.767766952966369
 31
0.0
  0
LINE
  5
2B6
330
4EE
100
AcDbEntity
  8
0
100
AcDbLine
 10
18.23223304703365
 20
-1.767766952966369
 30
0.0
 11
19.23223304703365
 21
-1.767766952966369
 31
0.0
  0
LINE
  5
2B7
330
4EE
100
AcDbEntity
  8
0
100
AcDbLine
 10
19.23223304703365
 20
-1.767766952966369
 30
0.0
 11
20.64644660940675
 21
-0.3535533905932766
 31
0.0
  0
LINE
  5
2B9
330
4EE
100
AcDbEntity
  8
0
100
AcDbLine
 10
19.64644660940675
 20
-0.3535533905932766
 30
0.0
 11
18.23223304703365
 21
-1.767766952966369
 31
0.0
  0
LINE
  5
2BC
330
4EE
100
AcDbEntity
  8
0
100
AcDbLine
 10
12.01040764008567
 20
6.010407640085646
 30
0.0
 11
13.42462120245877
 21
7.424621202458752
 31
0.0
  0
LINE
  5
2BD
330
4EE
100
AcDbEntity
  8
0
100
AcDbLine
 10
13.42462120245877
 20
7.424621202458752
 30
0.0
 11
12.42462120245877
 21
7.424621202458752
 31
0.0
  0
LINE
  5
2BE
330
4EE
100
AcDbEntity
  8
0
100
AcDbLine
 10
12.42462120245877
 20
7.424621202458752
 30
0.0
 11
11.01040764008567
 21
6.010407640085646
 31
0.0
  0
LINE
  5
2C1
330
4EE
100
AcDbEntity
  8
0
100
AcDbLine
 10
1.06066017177983
 20
1.06066017177983
 30
0.0
 11
5.06066017177983
 21
1.06066017177983
 31
0.0
  0
LINE
  5
2C2
330
4EE
100
AcDbEntity
  8
0
100
AcDbLine
 10
15.01040764008567
 20
6.010407640085646
 30
0.0
 11
16.42462120245877
 21
7.424621202458752
 31
0.0
  0
LINE
  5
2C3
330
4EE
100
AcDbEntity
  8
0
100
AcDbLine
 10
23.06066017177984
 20
1.06066017177983
 30
0.0
 11
27.06066017177983
 21
1.06066017177983
 31
0.0
  0
LINE
  5
2C4
330
4EE
100
AcDbEntity
  8
0
100
AcDbLine
 10
16.42462120245877
 20
7.424621202458752
 30
0.0
 11
15.42462120245877
 21
7.424621202458752
 31
0.0
  0
LINE
  5
2C6
330
4EE
100
AcDbEntity
  8
0
100
AcDbLine
 10
15.42462120245877
 20
7.424621202458752
 30
0.0
 11
14.01040764008567
 21
6.010407640085646
 31
0.0
  0
LINE
  5
2C7
330
4EE
100
AcDbEntity
  8
0
100
AcDbLine
 10
28.12132034355966
 20
2.12132034355966
 30
0.0
 11
28.47487373415292
 21
2.474873734152922
 31
0.0
  0
LINE
  5
2C9
330
4EE
100
AcDbEntity
  8
0
100
AcDbLine
 10
6.474873734152936
 20
2.474873734152922
 30
0.0
 11
2.474873734152936
 21
2.474873734152922
 31
0.0
  0
LINE
  5
2CA
330
4EE
100
AcDbEntity
  8
0
100
AcDbLine
 10
18.01040764008567
 20
6.010407640085646
 30
0.0
 11
19.42462120245877
 21
7.424621202458752
 31
0.0
  0
LINE
  5
2CB
330
4EE
100
AcDbEntity
  8
0
100
AcDbLine
 10
28.47487373415292
 20
2.474873734152922
 30
0.0
 11
24.47487373415294
 21
2.474873734152922
 31
0.0
  0
LINE
  5
2CC
330
4EE
100
AcDbEntity
  8
0
100
AcDbLine
 10
19.42462120245877
 20
7.424621202458752
 30
0.0
 11
18.42462120245877
 21
7.424621202458752
 31
0.0
  0
LINE
  5
2CD
330
4EE
100
AcDbEntity
  8
0
100
AcDbLine
 10
7.646446609406752
 20
-0.3535533905932766
 30
0.0
 11
6.232233047033645
 21
-1.767766952966369
 31
0.0
  0
LINE
  5
2CE
330
4EE
100
AcDbEntity
  8
0
100
AcDbLine
 10
9.232233047033645
 20
-1.767766952966369
 30
0.0
 11
10.23223304703365
 21
-1.767766952966369
 31
0.0
  0
LINE
  5
2CF
330
4EE
100
AcDbEntity
  8
0
100
AcDbLine
 10
10.23223304703365
 20
-1.767766952966369
 30
0.0
 11
11.64644660940675
 21
-0.3535533905932766
 31
0.0
  0
LINE
  5
2D1
330
4EE
100
AcDbEntity
  8
0
100
AcDbLine
 10
4.596194077712568
 20
4.596194077712568
 30
0.0
 11
4.242640687119291
 21
4.242640687119291
 31
0.0
  0
LINE
  5
2D3
330
4EE
100
AcDbEntity
  8
0
100
AcDbLine
 10
4.646446609406752
 20
-0.3535533905932766
 30
0.0
 11
3.232233047033645
 21
-1.767766952966369
 31
0.0
  0
LINE
  5
2D4
330
4EE
100
AcDbEntity
  8
0
100
AcDbLine
 10
10.64644660940675
 20
-0.3535533905932766
 30
0.0
 11
9.232233047033645
 21
-1.767766952966369
 31
0.0
  0
LINE
  5
2D6
330
4EE
100
AcDbEntity
  8
0
100
AcDbLine
 10
5.303300858899121
 20
5.303300858899121
 30
0.0
 11
9.30330085889912
 21
5.303300858899121
 31
0.0
  0
LINE
  5
2D7
330
4EE
100
AcDbEntity
  8
0
100
AcDbLine
 10
6.232233047033645
 20
-1.767766952966369
 30
0.0
 11
7.232233047033645
 21
-1.767766952966369
 31
0.0
  0
LINE
  5
2D8
330
4EE
100
AcDbEntity
  8
0
100
AcDbLine
 10
4.242640687119291
 20
4.242640687119291
 30
0.0
 11
8.242640687119291
 21
4.242640687119291
 31
0.0
  0
LINE
  5
2D9
330
4EE
100
AcDbEntity
  8
0
100
AcDbLine
 10
26.24264068711931
 20
4.242640687119291
 30
0.0
 11
30.24264068711931
 21
4.242640687119291
 31
0.0
  0
LINE
  5
2DB
330
4EE
100
AcDbEntity
  8
0
100
AcDbLine
 10
31.30330085889912
 20
5.303300858899121
 30
0.0
 11
31.65685424949238
 21
5.656854249492383
 31
0.0
  0
LINE
  5
2DC
330
4EE
100
AcDbEntity
  8
0
100
AcDbLine
 10
9.656854249492397
 20
5.656854249492397
 30
0.0
 11
5.656854249492397
 21
5.656854249492397
 31
0.0
  0
LINE
  5
2DD
330
4EE
100
AcDbEntity
  8
0
100
AcDbLine
 10
31.65685424949238
 20
5.656854249492383
 30
0.0
 11
27.6568542494924
 21
5.656854249492383
 31
0.0
  0
LINE
  5
2DE
330
4EE
100
AcDbEntity
  8
0
100
AcDbLine
 10
5.656854249492397
 20
5.656854249492397
 30
0.0
 11
5.303300858899121
 21
5.303300858899121
 31
0.0
  0
LINE
  5
2E0
330
4EE
100
AcDbEntity
  8
0
100
AcDbLine
 10
26.0
 20
0.0
 30
0.0
 11
26.35355339059329
 21
0.3535533905932766
 31
0.0
  0
LINE
  5
2E1
330
4EE
100
AcDbEntity
  8
0
100
AcDbLine
 10
4.353553390593277
 20
0.3535533905932766
 30
0.0
 11
0.3535533905932766
 21
0.3535533905932766
 31
0.0
  0
LINE
  5
2E2
330
4EE
100
AcDbEntity
  8
0
100
AcDbLine
 10
26.35355339059329
 20
0.3535533905932766
 30
0.0
 11
22.35355339059328
 21
0.3535533905932766
 31
0.0
  0
LINE
  5
2E3
330
4EE
100
AcDbEntity
  8
0
100
AcDbLine
 10
0.3535533905932766
 20
0.3535533905932766
 30
0.0
 11
0.0
 21
0.0
 31
0.0
  0
LINE
  5
2E5
330
4EE
100
AcDbEntity
  8
0
100
AcDbLine
 10
0.0
 20
0.0
 30
0.0
 11
4.0
 21
0.0
 31
0.0
  0
LINE
  5
2E6
330
4EE
100
AcDbEntity
  8
0
100
AcDbLine
 10
22.00000000000001
 20
0.0
 30
0.0
 11
26.0
 21
0.0
 31
0.0
  0
LINE
  5
2E8
330
4EE
100
AcDbEntity
  8
0
100
AcDbLine
 10
27.06066017177983
 20
1.06066017177983
 30
0.0
 11
27.41421356237311
 21
1.414213562373106
 31
0.0
  0
LINE
  5
2E9
330
4EE
100
AcDbEntity
  8
0
100
AcDbLine
 10
5.414213562373106
 20
1.414213562373106
 30
0.0
 11
1.414213562373106
 21
1.414213562373106
 31
0.0
  0
LINE
  5
2EA
330
4EE
100
AcDbEntity
  8
0
100
AcDbLine
 10
27.41421356237311
 20
1.414213562373106
 30
0.0
 11
23.41421356237311
 21
1.414213562373106
 31
0.0
  0
LINE
  5
2EB
330
4EE
100
AcDbEntity
  8
0
100
AcDbLine
 10
1.414213562373106
 20
1.414213562373106
 30
0.0
 11
1.06066017177983
 21
1.06066017177983
 31
0.0
  0
LINE
  5
2EC
330
4EE
100
AcDbEntity
  8
0
100
AcDbLine
 10
7.232233047033645
 20
-1.767766952966369
 30
0.0
 11
8.646446609406752
 21
-0.3535533905932766
 31
0.0
  0
LINE
  5
2EE
330
4EE
100
AcDbEntity
  8
0
100
AcDbLine
 10
2.474873734152936
 20
2.474873734152922
 30
0.0
 11
2.12132034355966
 21
2.12132034355966
 31
0.0
  0
LINE
  5
2EF
330
4EE
100
AcDbEntity
  8
0
100
AcDbLine
 10
18.42462120245877
 20
7.424621202458752
 30
0.0
 11
17.01040764008567
 21
6.010407640085646
 31
0.0
  0
LINE
  5
2F2
330
4EE
100
AcDbEntity
  8
0
100
AcDbLine
 10
2.12132034355966
 20
2.12132034355966
 30
0.0
 11
6.12132034355966
 21
2.12132034355966
 31
0.0
  0
LINE
  5
2F3
330
4EE
100
AcDbEntity
  8
0
100
AcDbLine
 10
21.01040764008567
 20
6.010407640085646
 30
0.0
 11
22.42462120245877
 21
7.424621202458752
 31
0.0
  0
LINE
  5
2F4
330
4EE
100
AcDbEntity
  8
0
100
AcDbLine
 10
24.12132034355966
 20
2.121320343559645
 30
0.0
 11
28.12132034355966
 21
2.12132034355966
 31
0.0
  0
LINE
  5
2F5
330
4EE
100
AcDbEntity
  8
0
100
AcDbLine
 10
22.42462120245877
 20
7.424621202458752
 30
0.0
 11
21.42462120245877
 21
7.424621202458752
 31
0.0
  0
LINE
  5
2F7
330
4EE
100
AcDbEntity
  8
0
100
AcDbLine
 10
21.42462120245877
 20
7.424621202458752
 30
0.0
 11
20.01040764008567
 21
6.010407640085646
 31
0.0
  0
LINE
  5
2F8
330
4EE
100
AcDbEntity
  8
0
100
AcDbLine
 10
29.18198051533948
 20
3.181980515339461
 30
0.0
 11
29.53553390593275
 21
3.535533905932738
 31
0.0
  0
LINE
  5
2FA
330
4EE
100
AcDbEntity
  8
0
100
AcDbLine
 10
7.535533905932752
 20
3.535533905932738
 30
0.0
 11
3.535533905932766
 21
3.535533905932738
 31
0.0
  0
LINE
  5
2FB
330
4EE
100
AcDbEntity
  8
0
100
AcDbLine
 10
24.01040764008567
 20
6.010407640085646
 30
0.0
 11
25.42462120245877
 21
7.424621202458752
 31
0.0
  0
LINE
  5
2FC
330
4EE
100
AcDbEntity
  8
0
100
AcDbLine
 10
29.53553390593275
 20
3.535533905932738
 30
0.0
 11
25.53553390593275
 21
3.535533905932738
 31
0.0
  0
LINE
  5
2FD
330
4EE
100
AcDbEntity
  8
0
100
AcDbLine
 10
25.42462120245877
 20
7.424621202458752
 30
0.0
 11
24.42462120245877
 21
7.424621202458752
 31
0.0
  0
LINE
  5
2FE
330
4EE
100
AcDbEntity
  8
0
100
AcDbLine
 10
3.535533905932766
 20
3.535533905932738
 30
0.0
 11
3.18198051533949
 21
3.181980515339461
 31
0.0
  0
LINE
  5
2FF
330
4EE
100
AcDbEntity
  8
0
100
AcDbLine
 10
24.42462120245877
 20
7.424621202458752
 30
0.0
 11
23.01040764008567
 21
6.010407640085646
 31
0.0
  0
LINE
  5
302
330
4EE
100
AcDbEntity
  8
0
100
AcDbLine
 10
3.18198051533949
 20
3.181980515339461
 30
0.0
 11
7.181980515339475
 21
3.181980515339461
 31
0.0
  0
LINE
  5
303
330
4EE
100
AcDbEntity
  8
0
100
AcDbLine
 10
27.01040764008567
 20
6.010407640085646
 30
0.0
 11
28.42462120245877
 21
7.424621202458752
 31
0.0
  0
LINE
  5
304
330
4EE
100
AcDbEntity
  8
0
100
AcDbLine
 10
25.18198051533949
 20
3.181980515339461
 30
0.0
 11
29.18198051533948
 21
3.181980515339461
 31
0.0
  0
LINE
  5
305
330
4EE
100
AcDbEntity
  8
0
100
AcDbLine
 10
28.42462120245877
 20
7.424621202458752
 30
0.0
 11
27.42462120245877
 21
7.424621202458752
 31
0.0
  0
LINE
  5
307
330
4EE
100
AcDbEntity
  8
0
100
AcDbLine
 10
27.42462120245877
 20
7.424621202458752
 30
0.0
 11
26.01040764008567
 21
6.010407640085646
 31
0.0
  0
LINE
  5
308
330
4EE
100
AcDbEntity
  8
0
100
AcDbLine
 10
30.24264068711931
 20
4.242640687119291
 30
0.0
 11
30.59619407771257
 21
4.596194077712568
 31
0.0
  0
LINE
  5
309
330
4EE
100
AcDbEntity
  8
0
100
AcDbLine
 10
3.232233047033645
 20
-1.767766952966369
 30
0.0
 11
4.232233047033645
 21
-1.767766952966369
 31
0.0
  0
LINE
  5
30A
330
4EE
100
AcDbEntity
  8
0
100
AcDbLine
 10
8.596194077712568
 20
4.596194077712568
 30
0.0
 11
4.596194077712568
 21
4.596194077712568
 31
0.0
  0
LINE
  5
30B
330
4EE
100
AcDbEntity
  8
0
100
AcDbLine
 10
4.232233047033645
 20
-1.767766952966369
 30
0.0
 11
5.646446609406752
 21
-0.3535533905932766
 31
0.0
  0
LINE
  5
30C
330
4EE
100
AcDbEntity
  8
0
100
AcDbLine
 10
30.59619407771257
 20
4.596194077712568
 30
0.0
 11
26.59619407771258
 21
4.596194077712568
 31
0.0
  0
LINE
  5
30E
330
4EE
100
AcDbEntity
  8
0
100
AcDbLine
 10
12.23223304703365
 20
-1.767766952966369
 30
0.0
 11
13.23223304703365
 21
-1.767766952966369
 31
0.0
  0
LINE
  5
30F
330
4EE
100
AcDbEntity
  8
0
100
AcDbLine
 10
27.30330085889914
 20
5.303300858899121
 30
0.0
 11
31.30330085889912
 21
5.303300858899121
 31
0.0
  0
LINE
  5
310
330
4EE
100
AcDbEntity
  8
0
100
AcDbLine
 10
13.23223304703365
 20
-1.767766952966369
 30
0.0
 11
14.64644660940675
 21
-0.3535533905932766
 31
0.0
  0
LINE
  5
312
330
4EE
100
AcDbEntity
  8
0
100
AcDbLine
 10
13.64644660940675
 20
-0.3535533905932766
 30
0.0
 11
12.23223304703365
 21
-1.767766952966369
 31
0.0
  0
LINE
  5
313
330
4EE
100
AcDbEntity
  8
0
100
AcDbLine
 10
15.23223304703365
 20
-1.767766952966369
 30
0.0
 11
16.23223304703365
 21
-1.767766952966369
 31
0.0
  0
LINE
  5
314
330
4EE
100
AcDbEntity
  8
0
100
AcDbLine
 10
16.23223304703365
 20
-1.767766952966369
 30
0.0
 11
17.64644660940675
 21
-0.3535533905932766
 31
0.0
  0
LWPOLYLINE
  5
349
330
4EE
100
AcDbEntity
  8
0
100
AcDbPolyline
 90
        2
 70
   128
 43
0.0
 10
12.01040764008567
 20
6.010407640085646
 10
14.01040764008569
 20
6.010407640085646
  0
LWPOLYLINE
  5
34B
330
4EE
100
AcDbEntity
  8
0
100
AcDbPolyline
 90
        2
 70
   128
 43
0.0
 10
15.01040764008567
 20
6.010407640085646
 10
17.01040764008567
 20
6.010407640085646
  0
LWPOLYLINE
  5
34D
330
4EE
100
AcDbEntity
  8
0
100
AcDbPolyline
 90
        2
 70
   128
 43
0.0
 10
18.01040764008566
 20
6.010407640085646
 10
20.01040764008567
 20
6.010407640085646
  0
LWPOLYLINE
  5
34F
330
4EE
100
AcDbEntity
  8
0
100
AcDbPolyline
 90
        2
 70
   128
 43
0.0
 10
21.01040764008566
 20
6.010407640085646
 10
23.01040764008567
 20
6.010407640085646
  0
LWPOLYLINE
  5
351
330
4EE
100
AcDbEntity
  8
0
100
AcDbPolyline
 90
        2
 70
   128
 43
0.0
 10
24.01040764008566
 20
6.010407640085646
 10
26.01040764008569
 20
6.010407640085646
  0
LWPOLYLINE
  5
353
330
4EE
100
AcDbEntity
  8
0
100
AcDbPolyline
 90
        3
 70
   128
 43
0.0
 10
27.01040764008566
 20
6.010407640085646
 10
28.01040764008567
 20
6.010407640085646
 10
27.6568542494924
 20
5.656854249492369
  0
LWPOLYLINE
  5
355
330
4EE
100
AcDbEntity
  8
0
100
AcDbPolyline
 90
        2
 70
   128
 43
0.0
 10
27.30330085889916
 20
5.303300858899135
 10
26.5961940777126
 20
4.596194077712568
  0
LWPOLYLINE
  5
357
330
4EE
100
AcDbEntity
  8
0
100
AcDbPolyline
 90
        2
 70
   128
 43
0.0
 10
26.24264068711931
 20
4.242640687119277
 10
25.53553390593275
 20
3.535533905932724
  0
LWPOLYLINE
  5
35B
330
4EE
100
AcDbEntity
  8
0
100
AcDbPolyline
 90
        2
 70
   128
 43
0.0
 10
25.18198051533949
 20
3.181980515339461
 10
24.47487373415294
 20
2.474873734152908
  0
LWPOLYLINE
  5
35C
330
4EE
100
AcDbEntity
  8
0
100
AcDbPolyline
 90
        2
 70
   128
 43
0.0
 10
24.12132034355966
 20
2.121320343559631
 10
23.41421356237312
 20
1.414213562373092
  0
LWPOLYLINE
  5
35D
330
4EE
100
AcDbEntity
  8
0
100
AcDbPolyline
 90
        2
 70
   128
 43
0.0
 10
23.06066017177986
 20
1.06066017177983
 10
22.35355339059331
 20
0.3535533905932766
  0
LWPOLYLINE
  5
35F
330
4EE
100
AcDbEntity
  8
0
100
AcDbPolyline
 90
        3
 70
   128
 43
0.0
 10
22.00000000000003
 20
0.0
 10
21.64644660940675
 20
-0.3535533905932766
 10
20.64644660940677
 20
-0.3535533905932766
  0
LWPOLYLINE
  5
361
330
4EE
100
AcDbEntity
  8
0
100
AcDbPolyline
 90
        2
 70
   128
 43
0.0
 10
19.64644660940677
 20
-0.3535533905932766
 10
17.64644660940677
 20
-0.3535533905932766
  0
LWPOLYLINE
  5
363
330
4EE
100
AcDbEntity
  8
0
100
AcDbPolyline
 90
        2
 70
   128
 43
0.0
 10
16.64644660940675
 20
-0.3535533905932766
 10
14.64644660940675
 20
-0.3535533905932766
  0
LWPOLYLINE
  5
365
330
4EE
100
AcDbEntity
  8
0
100
AcDbPolyline
 90
        2
 70
   128
 43
0.0
 10
13.64644660940675
 20
-0.3535533905932766
 10
11.64644660940677
 20
-0.3535533905932766
  0
LWPOLYLINE
  5
367
330
4EE
100
AcDbEntity
  8
0
100
AcDbPolyline
 90
        2
 70
   128
 43
0.0
 10
10.64644660940675
 20
-0.3535533905932766
 10
8.646446609406752
 20
-0.3535533905932766
  0
LWPOLYLINE
  5
369
330
4EE
100
AcDbEntity
  8
0
100
AcDbPolyline
 90
        2
 70
   128
 43
0.0
 10
7.646446609406766
 20
-0.3535533905932766
 10
5.646446609406752
 20
-0.3535533905932766
  0
LWPOLYLINE
  5
36B
330
4EE
100
AcDbEntity
  8
0
100
AcDbPolyline
 90
        3
 70
   128
 43
0.0
 10
4.646446609406752
 20
-0.3535533905932766
 10
3.646446609406752
 20
-0.3535533905932766
 10
4.000000000000057
 20
0.0000000000000284
  0
LWPOLYLINE
  5
36D
330
4EE
100
AcDbEntity
  8
0
100
AcDbPolyline
 90
        2
 70
   128
 43
0.0
 10
4.353553390593305
 20
0.3535533905932766
 10
5.060660171779858
 20
1.06066017177983
  0
LWPOLYLINE
  5
36F
330
4EE
100
AcDbEntity
  8
0
100
AcDbPolyline
 90
        2
 70
   128
 43
0.0
 10
5.414213562373135
 20
1.414213562373106
 10
6.121320343559688
 20
2.12132034355966
  0
LWPOLYLINE
  5
371
330
4EE
100
AcDbEntity
  8
0
100
AcDbPolyline
 90
        2
 70
   128
 43
0.0
 10
6.474873734152951
 20
2.474873734152922
 10
7.18198051533949
 20
3.181980515339461
  0
LWPOLYLINE
  5
373
330
4EE
100
AcDbEntity
  8
0
100
AcDbPolyline
 90
        2
 70
   128
 43
0.0
 10
7.535533905932766
 20
3.535533905932738
 10
8.24264068711932
 20
4.242640687119291
  0
LWPOLYLINE
  5
375
330
4EE
100
AcDbEntity
  8
0
100
AcDbPolyline
 90
        2
 70
   128
 43
0.0
 10
8.596194077712596
 20
4.596194077712568
 10
9.303300858899163
 20
5.303300858899135
  0
LWPOLYLINE
  5
376
330
4EE
100
AcDbEntity
  8
0
100
AcDbPolyline
 90
        3
 70
   128
 43
0.0
 10
9.656854249492426
 20
5.656854249492397
 10
10.01040764008567
 20
6.010407640085646
 10
11.01040764008567
 20
6.010407640085646
  0
ENDBLK
  5
4F0
330
4EE
100
AcDbEntity
  8
0
100
AcDbBlockEnd
  0
ENDSEC
  0
SECTION
  2
ENTITIES
  0
INSERT
  5
C6
330
424
100
AcDbEntity
  8
0
100
AcDbBlockReference
  2
bloc 1
 10
-54.36502503648985
 20
1.087961067800306
 30
0.0
 42
0.5
  0
INSERT
  5
378
330
424
100
AcDbEntity
  8
TETE
100
AcDbBlockReference
  2
bloc 3
 10
-132.6994798339716
 20
-83.37502516446372
 30
0.0
  0
LWPOLYLINE
  5
A3
330
424
100
AcDbEntity
  8
0
100
AcDbPolyline
 90
        5
 70
   128
 43
0.0
 10
40.27756813566449
 20
2.499999999999975
 10
36.81346652052671
 20
4.499999999999964
 10
35.08141571295788
 20
3.49999999999998
 10
38.54551732809563
 20
1.499999999999982
 10
40.27756813566449
 20
2.499999999999975
  0
LWPOLYLINE
  5
A4
330
424
100
AcDbEntity
  8
0
100
AcDbPolyline
 90
        5
 70
   128
 43
0.0
 10
43.74166975080229
 20
4.499999999999991
 10
40.27756813566447
 20
6.499999999999977
 10
38.54551732809558
 20
5.499999999999966
 10
42.00961894323336
 20
3.499999999999979
 10
43.74166975080229
 20
4.499999999999991
  0
LWPOLYLINE
  5
A5
330
424
100
AcDbEntity
  8
0
100
AcDbPolyline
 90
        5
 70
   128
 43
0.0
 10
47.20577136594003
 20
6.499999999999993
 10
43.74166975080225
 20
8.499999999999986
 10
42.00961894323338
 20
7.499999999999986
 10
45.47372055837114
 20
5.499999999999989
 10
47.20577136594003
 20
6.499999999999993
  0
LWPOLYLINE
  5
A6
330
424
100
AcDbEntity
  8
0
100
AcDbPolyline
 90
        5
 70
   128
 43
0.0
 10
52.40192378864656
 20
9.499999999999993
 10
67.99038105676655
 20
0.5000000000000107
 10
52.40192378864668
 20
-8.500000000000004
 10
36.81346652052675
 20
0.4999999999999734
 10
52.40192378864656
 20
9.499999999999993
  0
LWPOLYLINE
  5
A7
330
424
100
AcDbEntity
  8
0
100
AcDbPolyline
 90
        5
 70
   128
 43
0.0
 10
66.2583302491977
 20
-4.499999999999994
 10
62.79422863405991
 20
-2.499999999999986
 10
61.06217782649105
 20
-3.499999999999995
 10
64.52627944162882
 20
-5.499999999999987
 10
66.2583302491977
 20
-4.499999999999994
  0
LWPOLYLINE
  5
A8
330
424
100
AcDbEntity
  8
0
100
AcDbPolyline
 90
        5
 70
   128
 43
0.0
 10
50.66987298107773
 20
8.49999999999999
 10
47.20577136593995
 20
10.49999999999999
 10
45.47372055837115
 20
9.49999999999999
 10
48.93782217350887
 20
7.499999999999989
 10
50.66987298107773
 20
8.49999999999999
  0
LWPOLYLINE
  5
A9
330
424
100
AcDbEntity
  8
0
100
AcDbPolyline
 90
        5
 70
   128
 43
0.0
 10
69.72243186433542
 20
-2.499999999999968
 10
66.25833024919768
 20
-0.4999999999999964
 10
64.52627944162877
 20
-1.499999999999981
 10
67.99038105676657
 20
-3.499999999999992
 10
69.72243186433542
 20
-2.499999999999968
  0
LWPOLYLINE
  5
AA
330
424
100
AcDbEntity
  8
0
100
AcDbPolyline
 90
        5
 70
   128
 43
0.0
 10
59.33012701892219
 20
-8.499999999999993
 10
55.86602540378443
 20
-6.5
 10
54.13397459621555
 20
-7.500000000000001
 10
57.59807621135332
 20
-9.499999999999998
 10
59.33012701892219
 20
-8.499999999999993
  0
LWPOLYLINE
  5
AB
330
424
100
AcDbEntity
  8
0
100
AcDbPolyline
 90
        5
 70
   128
 43
0.0
 10
55.8660254037844
 20
7.5
 10
59.33012701892211
 20
9.500000000000004
 10
57.59807621135329
 20
10.5
 10
54.13397459621546
 20
8.5
 10
55.8660254037844
 20
7.5
  0
LWPOLYLINE
  5
AC
330
424
100
AcDbEntity
  8
0
100
AcDbPolyline
 90
        5
 70
   128
 43
0.0
 10
62.79422863405995
 20
-6.499999999999995
 10
59.33012701892217
 20
-4.499999999999991
 10
57.59807621135329
 20
-5.499999999999993
 10
61.06217782649107
 20
-7.499999999999992
 10
62.79422863405995
 20
-6.499999999999995
  0
LWPOLYLINE
  5
AD
330
424
100
AcDbEntity
  8
0
100
AcDbPolyline
 90
        5
 70
   128
 43
0.0
 10
59.33012701892211
 20
5.500000000000011
 10
62.79422863405988
 20
7.500000000000011
 10
61.06217782649102
 20
8.500000000000007
 10
57.59807621135328
 20
6.500000000000004
 10
59.33012701892211
 20
5.500000000000011
  0
LWPOLYLINE
  5
AE
330
424
100
AcDbEntity
  8
0
100
AcDbPolyline
 90
        5
 70
   128
 43
0.0
 10
62.79422863405992
 20
3.500000000000009
 10
66.25833024919768
 20
5.500000000000009
 10
64.52627944162876
 20
6.500000000000014
 10
61.06217782649107
 20
4.500000000000004
 10
62.79422863405992
 20
3.500000000000009
  0
LWPOLYLINE
  5
AF
330
424
100
AcDbEntity
  8
0
100
AcDbPolyline
 90
        5
 70
   128
 43
0.0
 10
66.2583302491977
 20
1.500000000000005
 10
69.72243186433539
 20
3.500000000000027
 10
67.99038105676654
 20
4.500000000000014
 10
64.52627944162874
 20
2.500000000000027
 10
66.2583302491977
 20
1.500000000000005
  0
LWPOLYLINE
  5
B0
330
424
100
AcDbEntity
  8
0
100
AcDbPolyline
 90
        5
 70
   128
 43
0.0
 10
36.81346652052677
 20
-3.500000000000016
 10
40.27756813566452
 20
-1.500000000000022
 10
38.54551732809563
 20
-0.5000000000000266
 10
35.08141571295788
 20
-2.50000000000003
 10
36.81346652052677
 20
-3.500000000000016
  0
LWPOLYLINE
  5
B1
330
424
100
AcDbEntity
  8
0
100
AcDbPolyline
 90
        5
 70
   128
 43
0.0
 10
40.27756813566452
 20
-5.50000000000002
 10
43.74166975080227
 20
-3.500000000000016
 10
42.00961894323339
 20
-2.500000000000019
 10
38.54551732809564
 20
-4.500000000000032
 10
40.27756813566452
 20
-5.50000000000002
  0
LWPOLYLINE
  5
B2
330
424
100
AcDbEntity
  8
0
100
AcDbPolyline
 90
        5
 70
   128
 43
0.0
 10
43.74166975080229
 20
-7.500000000000021
 10
47.20577136594004
 20
-5.500000000000011
 10
45.47372055837116
 20
-4.500000000000013
 10
42.00961894323341
 20
-6.500000000000019
 10
43.74166975080229
 20
-7.500000000000021
  0
LWPOLYLINE
  5
B3
330
424
100
AcDbEntity
  8
0
100
AcDbPolyline
 90
        5
 70
   128
 43
0.0
 10
47.20577136594005
 20
-9.500000000000007
 10
50.66987298107779
 20
-7.50000000000001
 10
48.93782217350892
 20
-6.500000000000009
 10
45.47372055837117
 20
-8.50000000000001
 10
47.20577136594005
 20
-9.500000000000007
  0
LWPOLYLINE
  5
B4
330
424
100
AcDbEntity
  8
0
100
AcDbPolyline
 90
        5
 70
   128
 43
0.0
 10
16.84924240491749
 20
-17.68984398380568
 10
19.67766952966369
 20
-16.27563042143258
 10
17.67766952966369
 20
-16.27563042143258
 10
14.84924240491749
 20
-17.68984398380568
 10
16.84924240491749
 20
-17.68984398380568
  0
LWPOLYLINE
  5
B5
330
424
100
AcDbEntity
  8
0
100
AcDbPolyline
 90
        5
 70
   128
 43
0.0
 10
20.84924240491749
 20
-17.68984398380568
 10
23.67766952966369
 20
-16.27563042143258
 10
21.67766952966368
 20
-16.27563042143258
 10
18.84924240491749
 20
-17.68984398380567
 10
20.84924240491749
 20
-17.68984398380568
  0
LWPOLYLINE
  5
B6
330
424
100
AcDbEntity
  8
0
100
AcDbPolyline
 90
        5
 70
   128
 43
0.0
 10
24.8492424049175
 20
-17.68984398380567
 10
27.67766952966369
 20
-16.27563042143258
 10
25.67766952966369
 20
-16.27563042143258
 10
22.8492424049175
 20
-17.68984398380567
 10
24.8492424049175
 20
-17.68984398380567
  0
LWPOLYLINE
  5
B7
330
424
100
AcDbEntity
  8
0
100
AcDbPolyline
 90
        5
 70
   128
 43
0.0
 10
30.8492424049175
 20
-17.68984398380568
 10
18.12132034355966
 20
-24.0538050144846
 10
0.1213203435596419
 20
-24.0538050144846
 10
12.8492424049175
 20
-17.68984398380568
 10
30.8492424049175
 20
-17.68984398380568
  0
LWPOLYLINE
  5
B8
330
424
100
AcDbEntity
  8
0
100
AcDbPolyline
 90
        5
 70
   128
 43
0.0
 10
9.292893218813452
 20
-25.4680185768577
 10
12.12132034355964
 20
-24.0538050144846
 10
10.12132034355964
 20
-24.0538050144846
 10
7.292893218813454
 20
-25.4680185768577
 10
9.292893218813452
 20
-25.4680185768577
  0
LWPOLYLINE
  5
B9
330
424
100
AcDbEntity
  8
0
100
AcDbPolyline
 90
        5
 70
   128
 43
0.0
 10
28.8492424049175
 20
-17.68984398380567
 10
31.67766952966369
 20
-16.27563042143258
 10
29.67766952966368
 20
-16.27563042143258
 10
26.8492424049175
 20
-17.68984398380568
 10
28.8492424049175
 20
-17.68984398380567
  0
LWPOLYLINE
  5
BA
330
424
100
AcDbEntity
  8
0
100
AcDbPolyline
 90
        5
 70
   128
 43
0.0
 10
13.29289321881346
 20
-25.46801857685769
 10
16.12132034355964
 20
-24.05380501448461
 10
14.12132034355965
 20
-24.0538050144846
 10
11.29289321881345
 20
-25.4680185768577
 10
13.29289321881346
 20
-25.46801857685769
  0
LWPOLYLINE
  5
BB
330
424
100
AcDbEntity
  8
0
100
AcDbPolyline
 90
        5
 70
   128
 43
0.0
 10
1.292893218813452
 20
-25.4680185768577
 10
4.121320343559644
 20
-24.0538050144846
 10
2.121320343559642
 20
-24.0538050144846
 10
-0.7071067811865479
 20
-25.4680185768577
 10
1.292893218813452
 20
-25.4680185768577
  0
LWPOLYLINE
  5
BC
330
424
100
AcDbEntity
  8
0
100
AcDbPolyline
 90
        5
 70
   128
 43
0.0
 10
28.02081528017131
 20
-19.10405754617877
 10
32.02081528017131
 20
-19.10405754617878
 10
33.43502884254441
 20
-18.39695076499222
 10
29.4350288425444
 20
-18.39695076499222
 10
28.02081528017131
 20
-19.10405754617877
  0
LWPOLYLINE
  5
BD
330
424
100
AcDbEntity
  8
0
100
AcDbPolyline
 90
        5
 70
   128
 43
0.0
 10
5.292893218813452
 20
-25.4680185768577
 10
8.121320343559644
 20
-24.0538050144846
 10
6.121320343559644
 20
-24.0538050144846
 10
3.292893218813452
 20
-25.4680185768577
 10
5.292893218813452
 20
-25.4680185768577
  0
LWPOLYLINE
  5
BE
330
424
100
AcDbEntity
  8
0
100
AcDbPolyline
 90
        5
 70
   128
 43
0.0
 10
25.19238815542512
 20
-20.51827110855187
 10
29.19238815542512
 20
-20.51827110855186
 10
30.60660171779822
 20
-19.81116432736532
 10
26.60660171779822
 20
-19.81116432736532
 10
25.19238815542512
 20
-20.51827110855187
  0
LWPOLYLINE
  5
BF
330
424
100
AcDbEntity
  8
0
100
AcDbPolyline
 90
        5
 70
   128
 43
0.0
 10
22.36396103067894
 20
-21.93248467092496
 10
26.36396103067893
 20
-21.93248467092496
 10
27.77817459305203
 20
-21.22537788973841
 10
23.77817459305203
 20
-21.22537788973841
 10
22.36396103067894
 20
-21.93248467092496
  0
LWPOLYLINE
  5
C0
330
424
100
AcDbEntity
  8
0
100
AcDbPolyline
 90
        5
 70
   128
 43
0.0
 10
19.53553390593275
 20
-23.34669823329806
 10
23.53553390593274
 20
-23.34669823329806
 10
24.94974746830584
 20
-22.63959145211151
 10
20.94974746830584
 20
-22.63959145211151
 10
19.53553390593275
 20
-23.34669823329806
  0
LWPOLYLINE
  5
C1
330
424
100
AcDbEntity
  8
0
100
AcDbPolyline
 90
        5
 70
   128
 43
0.0
 10
6.020815280171306
 20
-19.10405754617877
 10
10.0208152801713
 20
-19.10405754617877
 10
11.4350288425444
 20
-18.39695076499223
 10
7.435028842544401
 20
-18.39695076499222
 10
6.020815280171306
 20
-19.10405754617877
  0
LWPOLYLINE
  5
C2
330
424
100
AcDbEntity
  8
0
100
AcDbPolyline
 90
        5
 70
   128
 43
0.0
 10
3.192388155425117
 20
-20.51827110855186
 10
7.192388155425117
 20
-20.51827110855186
 10
8.60660171779821
 20
-19.81116432736532
 10
4.606601717798208
 20
-19.81116432736532
 10
3.192388155425117
 20
-20.51827110855186
  0
LWPOLYLINE
  5
C3
330
424
100
AcDbEntity
  8
0
100
AcDbPolyline
 90
        5
 70
   128
 43
0.0
 10
0.3639610306789258
 20
-21.93248467092496
 10
4.363961030678927
 20
-21.93248467092496
 10
5.778174593052022
 20
-21.22537788973841
 10
1.77817459305202
 20
-21.22537788973841
 10
0.3639610306789258
 20
-21.93248467092496
  0
LWPOLYLINE
  5
C4
330
424
100
AcDbEntity
  8
0
100
AcDbPolyline
 90
        5
 70
   128
 43
0.0
 10
-2.464466094067262
 20
-23.34669823329806
 10
1.535533905932731
 20
-23.34669823329806
 10
2.949747468305832
 20
-22.63959145211151
 10
-1.050252531694172
 20
-22.63959145211151
 10
-2.464466094067262
 20
-23.34669823329806
  0
LWPOLYLINE
  5
110
330
424
100
AcDbEntity
  8
0
100
AcDbPolyline
 90
        5
 70
   128
 43
0.0
 10
43.07417831564334
 20
-85.11195573039905
 10
45.90260544038954
 20
-83.69774216802595
 10
43.90260544038954
 20
-83.69774216802595
 10
41.07417831564334
 20
-85.11195573039905
 10
43.07417831564334
 20
-85.11195573039905
  0
LWPOLYLINE
  5
111
330
424
100
AcDbEntity
  8
0
100
AcDbPolyline
 90
        5
 70
   128
 43
0.0
 10
47.07417831564335
 20
-85.11195573039905
 10
49.90260544038954
 20
-83.69774216802595
 10
47.90260544038954
 20
-83.69774216802595
 10
45.07417831564334
 20
-85.11195573039905
 10
47.07417831564335
 20
-85.11195573039905
  0
LWPOLYLINE
  5
112
330
424
100
AcDbEntity
  8
0
100
AcDbPolyline
 90
        5
 70
   128
 43
0.0
 10
51.07417831564335
 20
-85.11195573039905
 10
53.90260544038954
 20
-83.69774216802595
 10
51.90260544038954
 20
-83.69774216802595
 10
49.07417831564335
 20
-85.11195573039905
 10
51.07417831564335
 20
-85.11195573039905
  0
LWPOLYLINE
  5
113
330
424
100
AcDbEntity
  8
0
100
AcDbPolyline
 90
        5
 70
   128
 43
0.0
 10
57.07417831564335
 20
-85.11195573039905
 10
44.34625625428551
 20
-91.47591676107797
 10
26.3462562542855
 20
-91.47591676107797
 10
39.07417831564335
 20
-85.11195573039905
 10
57.07417831564335
 20
-85.11195573039905
  0
LWPOLYLINE
  5
114
330
424
100
AcDbEntity
  8
0
100
AcDbPolyline
 90
        5
 70
   128
 43
0.0
 10
35.51782912953931
 20
-92.89013032345107
 10
38.3462562542855
 20
-91.47591676107797
 10
36.34625625428549
 20
-91.47591676107797
 10
33.51782912953931
 20
-92.89013032345107
 10
35.51782912953931
 20
-92.89013032345107
  0
LWPOLYLINE
  5
115
330
424
100
AcDbEntity
  8
0
100
AcDbPolyline
 90
        5
 70
   128
 43
0.0
 10
55.07417831564335
 20
-85.11195573039905
 10
57.90260544038954
 20
-83.69774216802595
 10
55.90260544038954
 20
-83.69774216802595
 10
53.07417831564335
 20
-85.11195573039905
 10
55.07417831564335
 20
-85.11195573039905
  0
LWPOLYLINE
  5
116
330
424
100
AcDbEntity
  8
0
100
AcDbPolyline
 90
        5
 70
   128
 43
0.0
 10
39.51782912953932
 20
-92.89013032345107
 10
42.34625625428549
 20
-91.47591676107798
 10
40.3462562542855
 20
-91.47591676107797
 10
37.51782912953931
 20
-92.89013032345107
 10
39.51782912953932
 20
-92.89013032345107
  0
LWPOLYLINE
  5
117
330
424
100
AcDbEntity
  8
0
100
AcDbPolyline
 90
        5
 70
   128
 43
0.0
 10
27.51782912953931
 20
-92.89013032345107
 10
30.3462562542855
 20
-91.47591676107797
 10
28.3462562542855
 20
-91.47591676107797
 10
25.51782912953931
 20
-92.89013032345107
 10
27.51782912953931
 20
-92.89013032345107
  0
LWPOLYLINE
  5
118
330
424
100
AcDbEntity
  8
0
100
AcDbPolyline
 90
        5
 70
   128
 43
0.0
 10
54.24575119089717
 20
-86.52616929277214
 10
58.24575119089716
 20
-86.52616929277215
 10
59.65996475327027
 20
-85.8190625115856
 10
55.65996475327026
 20
-85.8190625115856
 10
54.24575119089717
 20
-86.52616929277214
  0
LWPOLYLINE
  5
119
330
424
100
AcDbEntity
  8
0
100
AcDbPolyline
 90
        5
 70
   128
 43
0.0
 10
31.51782912953931
 20
-92.89013032345107
 10
34.3462562542855
 20
-91.47591676107797
 10
32.3462562542855
 20
-91.47591676107797
 10
29.51782912953931
 20
-92.89013032345107
 10
31.51782912953931
 20
-92.89013032345107
  0
LWPOLYLINE
  5
11A
330
424
100
AcDbEntity
  8
0
100
AcDbPolyline
 90
        5
 70
   128
 43
0.0
 10
51.41732406615098
 20
-87.94038285514524
 10
55.41732406615098
 20
-87.94038285514523
 10
56.83153762852407
 20
-87.23327607395869
 10
52.83153762852407
 20
-87.23327607395869
 10
51.41732406615098
 20
-87.94038285514524
  0
LWPOLYLINE
  5
11B
330
424
100
AcDbEntity
  8
0
100
AcDbPolyline
 90
        5
 70
   128
 43
0.0
 10
48.58889694140479
 20
-89.35459641751834
 10
52.58889694140478
 20
-89.35459641751834
 10
54.00311050377789
 20
-88.64748963633178
 10
50.00311050377788
 20
-88.64748963633178
 10
48.58889694140479
 20
-89.35459641751834
  0
LWPOLYLINE
  5
11C
330
424
100
AcDbEntity
  8
0
100
AcDbPolyline
 90
        5
 70
   128
 43
0.0
 10
45.7604698166586
 20
-90.76880997989143
 10
49.76046981665859
 20
-90.76880997989143
 10
51.17468337903169
 20
-90.06170319870489
 10
47.1746833790317
 20
-90.06170319870488
 10
45.7604698166586
 20
-90.76880997989143
  0
LWPOLYLINE
  5
11D
330
424
100
AcDbEntity
  8
0
100
AcDbPolyline
 90
        5
 70
   128
 43
0.0
 10
32.24575119089716
 20
-86.52616929277215
 10
36.24575119089715
 20
-86.52616929277215
 10
37.65996475327025
 20
-85.8190625115856
 10
33.65996475327026
 20
-85.8190625115856
 10
32.24575119089716
 20
-86.52616929277215
  0
LWPOLYLINE
  5
11E
330
424
100
AcDbEntity
  8
0
100
AcDbPolyline
 90
        5
 70
   128
 43
0.0
 10
29.41732406615097
 20
-87.94038285514523
 10
33.41732406615097
 20
-87.94038285514523
 10
34.83153762852406
 20
-87.23327607395869
 10
30.83153762852406
 20
-87.23327607395869
 10
29.41732406615097
 20
-87.94038285514523
  0
LWPOLYLINE
  5
11F
330
424
100
AcDbEntity
  8
0
100
AcDbPolyline
 90
        5
 70
   128
 43
0.0
 10
26.58889694140478
 20
-89.35459641751834
 10
30.58889694140478
 20
-89.35459641751834
 10
32.00311050377788
 20
-88.64748963633178
 10
28.00311050377788
 20
-88.64748963633178
 10
26.58889694140478
 20
-89.35459641751834
  0
LWPOLYLINE
  5
120
330
424
100
AcDbEntity
  8
0
100
AcDbPolyline
 90
        5
 70
   128
 43
0.0
 10
23.76046981665859
 20
-90.76880997989143
 10
27.76046981665858
 20
-90.76880997989143
 10
29.17468337903168
 20
-90.06170319870489
 10
25.17468337903168
 20
-90.06170319870489
 10
23.76046981665859
 20
-90.76880997989143
  0
LWPOLYLINE
  5
391
330
424
100
AcDbEntity
  8
0
100
AcDbPolyline
 90
       20
 70
   129
 43
0.0
 10
-133.3352327382572
 20
33.97760615502915
 10
-133.3352327382572
 20
14.57558931816551
 10
-129.6829214357187
 20
14.57558931816551
 10
-129.6829214357187
 20
13.57558931816551
 10
-133.3352327382572
 20
13.57558931816551
 10
-133.3352327382572
 20
12.57558931816551
 10
-129.6829214357187
 20
12.57558931816551
 10
-129.6829214357187
 20
11.57558931816551
 10
-131.509077086988
 20
11.57558931816551
 10
-134.4362865680468
 20
5.521743199251517
 10
-135.9295563033907
 20
5.521743199251517
 10
-138.8567657844495
 20
11.57558931816551
 10
-140.6829214357187
 20
11.57558931816551
 10
-140.6829214357187
 20
12.57558931816551
 10
-137.0306101331803
 20
12.57558931816551
 10
-137.0306101331803
 20
13.57558931816551
 10
-140.6829214357187
 20
13.57558931816551
 10
-140.6829214357187
 20
14.57558931816551
 10
-137.0306101331803
 20
14.57558931816551
 10
-137.0306101331803
 20
33.97760615502915
  0
LWPOLYLINE
  5
394
330
424
100
AcDbEntity
  8
0
100
AcDbPolyline
 90
       20
 70
   129
 43
0.0
 10
-112.181134063334
 20
-42.8212384657706
 10
-112.181134063334
 20
-62.22325530263424
 10
-108.5288227607955
 20
-62.22325530263424
 10
-108.5288227607955
 20
-63.22325530263424
 10
-112.181134063334
 20
-63.22325530263424
 10
-112.181134063334
 20
-64.22325530263424
 10
-108.5288227607955
 20
-64.22325530263424
 10
-108.5288227607955
 20
-65.22325530263424
 10
-110.3549784120648
 20
-65.22325530263424
 10
-113.2821878931236
 20
-71.27710142154822
 10
-114.7754576284675
 20
-71.27710142154822
 10
-117.7026671095263
 20
-65.22325530263424
 10
-119.5288227607955
 20
-65.22325530263424
 10
-119.5288227607955
 20
-64.22325530263424
 10
-115.8765114582571
 20
-64.22325530263424
 10
-115.8765114582571
 20
-63.22325530263424
 10
-119.5288227607955
 20
-63.22325530263424
 10
-119.5288227607955
 20
-62.22325530263424
 10
-115.8765114582571
 20
-62.22325530263424
 10
-115.8765114582571
 20
-42.8212384657706
  0
LWPOLYLINE
  5
399
330
424
100
AcDbEntity
  8
0
100
AcDbPolyline
 90
       20
 70
   129
 43
0.0
 10
-217.1523113025384
 20
-67.54413704422237
 10
-217.1523113025384
 20
-86.94615388108602
 10
-213.5
 20
-86.94615388108602
 10
-213.5
 20
-87.94615388108602
 10
-217.1523113025384
 20
-87.94615388108602
 10
-217.1523113025384
 20
-88.94615388108602
 10
-213.5
 20
-88.94615388108602
 10
-213.5
 20
-89.94615388108602
 10
-215.3261556512692
 20
-89.94615388108602
 10
-218.253365132328
 20
-96.0
 10
-219.746634867672
 20
-96.0
 10
-222.6738443487307
 20
-89.94615388108602
 10
-224.5
 20
-89.94615388108602
 10
-224.5
 20
-88.94615388108602
 10
-220.8476886974615
 20
-88.94615388108602
 10
-220.8476886974615
 20
-87.94615388108602
 10
-224.5
 20
-87.94615388108602
 10
-224.5
 20
-86.94615388108602
 10
-220.8476886974615
 20
-86.94615388108602
 10
-220.8476886974615
 20
-67.54413704422237
  0
INSERT
  5
10E
330
424
100
AcDbEntity
  8
TETE
100
AcDbBlockReference
  2
bloc 2
 10
-97.40567643486652
 20
1.544137044222365
 30
0.0
  0
INSERT
  5
121
330
424
100
AcDbEntity
  8
TETE
100
AcDbBlockReference
  2
bloc 2
 10
42.33545250333644
 20
-88.14834934729569
 30
0.0
  0
INSERT
  5
A2
330
424
100
AcDbEntity
  8
0
100
AcDbBlockReference
  2
bloc 1
 10
0.0
 20
0.0
 30
0.0
  0
LINE
  5
251
330
424
100
AcDbEntity
  8
0
100
AcDbLine
 10
-39.39220716272553
 20
-50.36675905876105
 30
0.0
 11
-40.80642072509863
 21
-51.78097262113415
 31
0.0
  0
LINE
  5
252
330
424
100
AcDbEntity
  8
0
100
AcDbLine
 10
-37.80642072509863
 20
-51.78097262113415
 30
0.0
 11
-36.80642072509863
 21
-51.78097262113415
 31
0.0
  0
LINE
  5
253
330
424
100
AcDbEntity
  8
0
100
AcDbLine
 10
-36.80642072509863
 20
-51.78097262113415
 30
0.0
 11
-35.39220716272553
 21
-50.36675905876105
 31
0.0
  0
LINE
  5
254
330
424
100
AcDbEntity
  8
0
100
AcDbLine
 10
-35.39220716272553
 20
-50.36675905876105
 30
0.0
 11
-36.39220716272553
 21
-50.36675905876105
 31
0.0
  0
LINE
  5
255
330
424
100
AcDbEntity
  8
0
100
AcDbLine
 10
-36.39220716272553
 20
-50.36675905876105
 30
0.0
 11
-37.80642072509863
 21
-51.78097262113415
 31
0.0
  0
LWPOLYLINE
  5
256
330
424
100
AcDbEntity
  8
0
100
AcDbPolyline
 90
        5
 70
   128
 43
0.0
 10
-28.02824613204661
 20
-44.00279802808213
 10
-34.39220716272553
 20
-50.36675905876105
 10
-52.39220716272553
 20
-50.36675905876105
 10
-46.0282461320466
 20
-44.00279802808213
 10
-28.02824613204661
 20
-44.00279802808213
  0
LINE
  5
257
330
424
100
AcDbEntity
  8
0
100
AcDbLine
 10
-45.0282461320466
 20
-44.00279802808213
 30
0.0
 11
-44.0282461320466
 21
-44.00279802808213
 31
0.0
  0
LINE
  5
258
330
424
100
AcDbEntity
  8
0
100
AcDbLine
 10
-44.0282461320466
 20
-44.00279802808213
 30
0.0
 11
-42.61403256967351
 21
-42.58858446570903
 31
0.0
  0
LINE
  5
259
330
424
100
AcDbEntity
  8
0
100
AcDbLine
 10
-42.61403256967351
 20
-42.58858446570903
 30
0.0
 11
-43.61403256967351
 21
-42.58858446570903
 31
0.0
  0
LINE
  5
25A
330
424
100
AcDbEntity
  8
0
100
AcDbLine
 10
-43.61403256967351
 20
-42.58858446570903
 30
0.0
 11
-45.0282461320466
 21
-44.00279802808213
 31
0.0
  0
LINE
  5
25B
330
424
100
AcDbEntity
  8
0
100
AcDbLine
 10
-32.62444020975916
 20
-48.59899210579468
 30
0.0
 11
-32.97799360035243
 21
-48.95254549638796
 31
0.0
  0
LINE
  5
25C
330
424
100
AcDbEntity
  8
0
100
AcDbLine
 10
-42.0282461320466
 20
-44.00279802808213
 30
0.0
 11
-41.0282461320466
 21
-44.00279802808213
 31
0.0
  0
LINE
  5
25D
330
424
100
AcDbEntity
  8
0
100
AcDbLine
 10
-54.97799360035244
 20
-48.95254549638795
 30
0.0
 11
-50.97799360035244
 21
-48.95254549638795
 31
0.0
  0
LINE
  5
25E
330
424
100
AcDbEntity
  8
0
100
AcDbLine
 10
-41.0282461320466
 20
-44.00279802808213
 30
0.0
 11
-39.61403256967351
 21
-42.58858446570903
 31
0.0
  0
LINE
  5
25F
330
424
100
AcDbEntity
  8
0
100
AcDbLine
 10
-32.97799360035243
 20
-48.95254549638796
 30
0.0
 11
-28.97799360035244
 21
-48.95254549638796
 31
0.0
  0
LINE
  5
260
330
424
100
AcDbEntity
  8
0
100
AcDbLine
 10
-39.61403256967351
 20
-42.58858446570903
 30
0.0
 11
-40.61403256967351
 21
-42.58858446570903
 31
0.0
  0
LINE
  5
261
330
424
100
AcDbEntity
  8
0
100
AcDbLine
 10
-49.91733342857262
 20
-47.89188532460813
 30
0.0
 11
-49.56378003797935
 21
-47.53833193401486
 31
0.0
  0
LINE
  5
262
330
424
100
AcDbEntity
  8
0
100
AcDbLine
 10
-40.61403256967351
 20
-42.58858446570903
 30
0.0
 11
-42.0282461320466
 21
-44.00279802808213
 31
0.0
  0
LINE
  5
263
330
424
100
AcDbEntity
  8
0
100
AcDbLine
 10
-27.91733342857261
 20
-47.89188532460813
 30
0.0
 11
-27.56378003797936
 21
-47.53833193401486
 31
0.0
  0
LINE
  5
264
330
424
100
AcDbEntity
  8
0
100
AcDbLine
 10
-39.0282461320466
 20
-44.00279802808213
 30
0.0
 11
-38.0282461320466
 21
-44.00279802808213
 31
0.0
  0
LINE
  5
265
330
424
100
AcDbEntity
  8
0
100
AcDbLine
 10
-49.56378003797935
 20
-47.53833193401486
 30
0.0
 11
-53.56378003797935
 21
-47.53833193401486
 31
0.0
  0
LINE
  5
266
330
424
100
AcDbEntity
  8
0
100
AcDbLine
 10
-38.0282461320466
 20
-44.00279802808213
 30
0.0
 11
-36.61403256967351
 21
-42.58858446570903
 31
0.0
  0
LINE
  5
267
330
424
100
AcDbEntity
  8
0
100
AcDbLine
 10
-27.56378003797936
 20
-47.53833193401486
 30
0.0
 11
-31.56378003797934
 21
-47.53833193401486
 31
0.0
  0
LINE
  5
268
330
424
100
AcDbEntity
  8
0
100
AcDbLine
 10
-36.61403256967351
 20
-42.58858446570903
 30
0.0
 11
-37.61403256967351
 21
-42.58858446570903
 31
0.0
  0
LINE
  5
269
330
424
100
AcDbEntity
  8
0
100
AcDbLine
 10
-48.39220716272553
 20
-50.36675905876105
 30
0.0
 11
-49.80642072509863
 21
-51.78097262113415
 31
0.0
  0
LINE
  5
26A
330
424
100
AcDbEntity
  8
0
100
AcDbLine
 10
-46.80642072509863
 20
-51.78097262113415
 30
0.0
 11
-45.80642072509863
 21
-51.78097262113415
 31
0.0
  0
LINE
  5
26B
330
424
100
AcDbEntity
  8
0
100
AcDbLine
 10
-45.80642072509863
 20
-51.78097262113415
 30
0.0
 11
-44.39220716272553
 21
-50.36675905876105
 31
0.0
  0
LINE
  5
26C
330
424
100
AcDbEntity
  8
0
100
AcDbLine
 10
-44.39220716272553
 20
-50.36675905876105
 30
0.0
 11
-45.39220716272553
 21
-50.36675905876105
 31
0.0
  0
LINE
  5
26D
330
424
100
AcDbEntity
  8
0
100
AcDbLine
 10
-51.4424596944197
 20
-45.41701159045521
 30
0.0
 11
-51.79601308501298
 21
-45.77056498104849
 31
0.0
  0
LINE
  5
26E
330
424
100
AcDbEntity
  8
0
100
AcDbLine
 10
-28.38179952263988
 20
-44.35635141867539
 30
0.0
 11
-28.73535291323314
 21
-44.70990480926866
 31
0.0
  0
LINE
  5
26F
330
424
100
AcDbEntity
  8
0
100
AcDbLine
 10
-51.39220716272553
 20
-50.36675905876105
 30
0.0
 11
-52.80642072509863
 21
-51.78097262113415
 31
0.0
  0
LINE
  5
270
330
424
100
AcDbEntity
  8
0
100
AcDbLine
 10
-45.39220716272553
 20
-50.36675905876105
 30
0.0
 11
-46.80642072509863
 21
-51.78097262113415
 31
0.0
  0
LINE
  5
271
330
424
100
AcDbEntity
  8
0
100
AcDbLine
 10
-29.4424596944197
 20
-45.41701159045522
 30
0.0
 11
-29.79601308501297
 21
-45.77056498104849
 31
0.0
  0
LINE
  5
272
330
424
100
AcDbEntity
  8
0
100
AcDbLine
 10
-50.73535291323316
 20
-44.70990480926866
 30
0.0
 11
-46.73535291323316
 21
-44.70990480926866
 31
0.0
  0
LINE
  5
273
330
424
100
AcDbEntity
  8
0
100
AcDbLine
 10
-49.80642072509863
 20
-51.78097262113415
 30
0.0
 11
-48.80642072509863
 21
-51.78097262113415
 31
0.0
  0
LINE
  5
274
330
424
100
AcDbEntity
  8
0
100
AcDbLine
 10
-51.79601308501298
 20
-45.77056498104849
 30
0.0
 11
-47.79601308501299
 21
-45.77056498104849
 31
0.0
  0
LINE
  5
275
330
424
100
AcDbEntity
  8
0
100
AcDbLine
 10
-29.79601308501297
 20
-45.77056498104849
 30
0.0
 11
-25.79601308501297
 21
-45.77056498104849
 31
0.0
  0
LINE
  5
276
330
424
100
AcDbEntity
  8
0
100
AcDbLine
 10
-46.73535291323316
 20
-44.70990480926866
 30
0.0
 11
-46.38179952263988
 21
-44.35635141867539
 31
0.0
  0
LINE
  5
277
330
424
100
AcDbEntity
  8
0
100
AcDbLine
 10
-24.73535291323315
 20
-44.70990480926866
 30
0.0
 11
-24.38179952263989
 21
-44.35635141867539
 31
0.0
  0
LINE
  5
278
330
424
100
AcDbEntity
  8
0
100
AcDbLine
 10
-46.38179952263988
 20
-44.35635141867539
 30
0.0
 11
-50.38179952263988
 21
-44.35635141867539
 31
0.0
  0
LINE
  5
279
330
424
100
AcDbEntity
  8
0
100
AcDbLine
 10
-24.38179952263989
 20
-44.35635141867539
 30
0.0
 11
-28.38179952263988
 21
-44.35635141867539
 31
0.0
  0
LINE
  5
27A
330
424
100
AcDbEntity
  8
0
100
AcDbLine
 10
-50.38179952263988
 20
-44.35635141867539
 30
0.0
 11
-50.73535291323316
 21
-44.70990480926866
 31
0.0
  0
LINE
  5
27B
330
424
100
AcDbEntity
  8
0
100
AcDbLine
 10
-52.03865377213226
 20
-50.01320566816777
 30
0.0
 11
-51.68510038153899
 21
-49.65965227757449
 31
0.0
  0
LINE
  5
27C
330
424
100
AcDbEntity
  8
0
100
AcDbLine
 10
-30.03865377213227
 20
-50.01320566816777
 30
0.0
 11
-29.68510038153899
 21
-49.6596522775745
 31
0.0
  0
LINE
  5
27D
330
424
100
AcDbEntity
  8
0
100
AcDbLine
 10
-51.68510038153899
 20
-49.65965227757449
 30
0.0
 11
-55.68510038153899
 21
-49.65965227757449
 31
0.0
  0
LINE
  5
27E
330
424
100
AcDbEntity
  8
0
100
AcDbLine
 10
-29.68510038153899
 20
-49.6596522775745
 30
0.0
 11
-33.685100381539
 21
-49.65965227757449
 31
0.0
  0
LINE
  5
27F
330
424
100
AcDbEntity
  8
0
100
AcDbLine
 10
-55.68510038153899
 20
-49.65965227757449
 30
0.0
 11
-56.03865377213226
 21
-50.01320566816777
 31
0.0
  0
LINE
  5
280
330
424
100
AcDbEntity
  8
0
100
AcDbLine
 10
-33.685100381539
 20
-49.65965227757449
 30
0.0
 11
-34.03865377213226
 21
-50.01320566816778
 31
0.0
  0
LINE
  5
281
330
424
100
AcDbEntity
  8
0
100
AcDbLine
 10
-56.03865377213226
 20
-50.01320566816777
 30
0.0
 11
-52.03865377213226
 21
-50.01320566816777
 31
0.0
  0
LINE
  5
282
330
424
100
AcDbEntity
  8
0
100
AcDbLine
 10
-34.03865377213226
 20
-50.01320566816778
 30
0.0
 11
-30.03865377213227
 21
-50.01320566816777
 31
0.0
  0
LINE
  5
283
330
424
100
AcDbEntity
  8
0
100
AcDbLine
 10
-50.97799360035244
 20
-48.95254549638795
 30
0.0
 11
-50.62444020975916
 21
-48.59899210579468
 31
0.0
  0
LINE
  5
284
330
424
100
AcDbEntity
  8
0
100
AcDbLine
 10
-28.97799360035244
 20
-48.95254549638796
 30
0.0
 11
-28.62444020975916
 21
-48.59899210579468
 31
0.0
  0
LINE
  5
285
330
424
100
AcDbEntity
  8
0
100
AcDbLine
 10
-50.62444020975916
 20
-48.59899210579468
 30
0.0
 11
-54.62444020975917
 21
-48.59899210579468
 31
0.0
  0
LINE
  5
286
330
424
100
AcDbEntity
  8
0
100
AcDbLine
 10
-28.62444020975916
 20
-48.59899210579468
 30
0.0
 11
-32.62444020975916
 21
-48.59899210579468
 31
0.0
  0
LINE
  5
287
330
424
100
AcDbEntity
  8
0
100
AcDbLine
 10
-54.62444020975917
 20
-48.59899210579468
 30
0.0
 11
-54.97799360035244
 21
-48.95254549638795
 31
0.0
  0
LINE
  5
288
330
424
100
AcDbEntity
  8
0
100
AcDbLine
 10
-48.80642072509863
 20
-51.78097262113415
 30
0.0
 11
-47.39220716272553
 21
-50.36675905876105
 31
0.0
  0
LINE
  5
289
330
424
100
AcDbEntity
  8
0
100
AcDbLine
 10
-47.39220716272553
 20
-50.36675905876105
 30
0.0
 11
-48.39220716272553
 21
-50.36675905876105
 31
0.0
  0
LINE
  5
28A
330
424
100
AcDbEntity
  8
0
100
AcDbLine
 10
-53.56378003797935
 20
-47.53833193401486
 30
0.0
 11
-53.91733342857262
 21
-47.89188532460813
 31
0.0
  0
LINE
  5
28B
330
424
100
AcDbEntity
  8
0
100
AcDbLine
 10
-37.61403256967351
 20
-42.58858446570903
 30
0.0
 11
-39.0282461320466
 21
-44.00279802808213
 31
0.0
  0
LINE
  5
28C
330
424
100
AcDbEntity
  8
0
100
AcDbLine
 10
-31.56378003797934
 20
-47.53833193401486
 30
0.0
 11
-31.91733342857261
 21
-47.89188532460813
 31
0.0
  0
LINE
  5
28D
330
424
100
AcDbEntity
  8
0
100
AcDbLine
 10
-36.0282461320466
 20
-44.00279802808213
 30
0.0
 11
-35.0282461320466
 21
-44.00279802808213
 31
0.0
  0
LINE
  5
28E
330
424
100
AcDbEntity
  8
0
100
AcDbLine
 10
-53.91733342857262
 20
-47.89188532460813
 30
0.0
 11
-49.91733342857262
 21
-47.89188532460813
 31
0.0
  0
LINE
  5
28F
330
424
100
AcDbEntity
  8
0
100
AcDbLine
 10
-35.0282461320466
 20
-44.00279802808213
 30
0.0
 11
-33.61403256967351
 21
-42.58858446570903
 31
0.0
  0
LINE
  5
290
330
424
100
AcDbEntity
  8
0
100
AcDbLine
 10
-31.91733342857261
 20
-47.89188532460813
 30
0.0
 11
-27.91733342857261
 21
-47.89188532460813
 31
0.0
  0
LINE
  5
291
330
424
100
AcDbEntity
  8
0
100
AcDbLine
 10
-33.61403256967351
 20
-42.58858446570903
 30
0.0
 11
-34.61403256967351
 21
-42.58858446570903
 31
0.0
  0
LINE
  5
292
330
424
100
AcDbEntity
  8
0
100
AcDbLine
 10
-48.8566732567928
 20
-46.83122515282831
 30
0.0
 11
-48.50311986619953
 21
-46.47767176223503
 31
0.0
  0
LINE
  5
293
330
424
100
AcDbEntity
  8
0
100
AcDbLine
 10
-34.61403256967351
 20
-42.58858446570903
 30
0.0
 11
-36.0282461320466
 21
-44.00279802808213
 31
0.0
  0
LINE
  5
294
330
424
100
AcDbEntity
  8
0
100
AcDbLine
 10
-26.85667325679281
 20
-46.83122515282831
 30
0.0
 11
-26.50311986619952
 21
-46.47767176223503
 31
0.0
  0
LINE
  5
295
330
424
100
AcDbEntity
  8
0
100
AcDbLine
 10
-33.0282461320466
 20
-44.00279802808213
 30
0.0
 11
-32.0282461320466
 21
-44.00279802808213
 31
0.0
  0
LINE
  5
296
330
424
100
AcDbEntity
  8
0
100
AcDbLine
 10
-48.50311986619953
 20
-46.47767176223503
 30
0.0
 11
-52.50311986619953
 21
-46.47767176223503
 31
0.0
  0
LINE
  5
297
330
424
100
AcDbEntity
  8
0
100
AcDbLine
 10
-32.0282461320466
 20
-44.00279802808213
 30
0.0
 11
-30.61403256967351
 21
-42.58858446570903
 31
0.0
  0
LINE
  5
298
330
424
100
AcDbEntity
  8
0
100
AcDbLine
 10
-26.50311986619952
 20
-46.47767176223503
 30
0.0
 11
-30.50311986619952
 21
-46.47767176223503
 31
0.0
  0
LINE
  5
299
330
424
100
AcDbEntity
  8
0
100
AcDbLine
 10
-30.61403256967351
 20
-42.58858446570903
 30
0.0
 11
-31.61403256967351
 21
-42.58858446570903
 31
0.0
  0
LINE
  5
29A
330
424
100
AcDbEntity
  8
0
100
AcDbLine
 10
-52.50311986619953
 20
-46.47767176223503
 30
0.0
 11
-52.8566732567928
 21
-46.83122515282831
 31
0.0
  0
LINE
  5
29B
330
424
100
AcDbEntity
  8
0
100
AcDbLine
 10
-31.61403256967351
 20
-42.58858446570903
 30
0.0
 11
-33.0282461320466
 21
-44.00279802808213
 31
0.0
  0
LINE
  5
29C
330
424
100
AcDbEntity
  8
0
100
AcDbLine
 10
-30.50311986619952
 20
-46.47767176223503
 30
0.0
 11
-30.8566732567928
 21
-46.83122515282831
 31
0.0
  0
LINE
  5
29D
330
424
100
AcDbEntity
  8
0
100
AcDbLine
 10
-30.02824613204661
 20
-44.00279802808213
 30
0.0
 11
-29.02824613204661
 21
-44.00279802808213
 31
0.0
  0
LINE
  5
29E
330
424
100
AcDbEntity
  8
0
100
AcDbLine
 10
-52.8566732567928
 20
-46.83122515282831
 30
0.0
 11
-48.8566732567928
 21
-46.83122515282831
 31
0.0
  0
LINE
  5
29F
330
424
100
AcDbEntity
  8
0
100
AcDbLine
 10
-29.02824613204661
 20
-44.00279802808213
 30
0.0
 11
-27.61403256967351
 21
-42.58858446570903
 31
0.0
  0
LINE
  5
2A0
330
424
100
AcDbEntity
  8
0
100
AcDbLine
 10
-30.8566732567928
 20
-46.83122515282831
 30
0.0
 11
-26.85667325679281
 21
-46.83122515282831
 31
0.0
  0
LINE
  5
2A1
330
424
100
AcDbEntity
  8
0
100
AcDbLine
 10
-27.61403256967351
 20
-42.58858446570903
 30
0.0
 11
-28.61403256967351
 21
-42.58858446570903
 31
0.0
  0
LINE
  5
2A2
330
424
100
AcDbEntity
  8
0
100
AcDbLine
 10
-47.79601308501299
 20
-45.77056498104849
 30
0.0
 11
-47.44245969441971
 21
-45.41701159045521
 31
0.0
  0
LINE
  5
2A3
330
424
100
AcDbEntity
  8
0
100
AcDbLine
 10
-28.61403256967351
 20
-42.58858446570903
 30
0.0
 11
-30.02824613204661
 21
-44.00279802808213
 31
0.0
  0
LINE
  5
2A4
330
424
100
AcDbEntity
  8
0
100
AcDbLine
 10
-25.79601308501297
 20
-45.77056498104849
 30
0.0
 11
-25.44245969441971
 21
-45.41701159045521
 31
0.0
  0
LINE
  5
2A5
330
424
100
AcDbEntity
  8
0
100
AcDbLine
 10
-52.80642072509863
 20
-51.78097262113415
 30
0.0
 11
-51.80642072509863
 21
-51.78097262113415
 31
0.0
  0
LINE
  5
2A6
330
424
100
AcDbEntity
  8
0
100
AcDbLine
 10
-47.44245969441971
 20
-45.41701159045521
 30
0.0
 11
-51.4424596944197
 21
-45.41701159045521
 31
0.0
  0
LINE
  5
2A7
330
424
100
AcDbEntity
  8
0
100
AcDbLine
 10
-51.80642072509863
 20
-51.78097262113415
 30
0.0
 11
-50.39220716272553
 21
-50.36675905876105
 31
0.0
  0
LINE
  5
2A8
330
424
100
AcDbEntity
  8
0
100
AcDbLine
 10
-25.44245969441971
 20
-45.41701159045521
 30
0.0
 11
-29.4424596944197
 21
-45.41701159045522
 31
0.0
  0
LINE
  5
2A9
330
424
100
AcDbEntity
  8
0
100
AcDbLine
 10
-50.39220716272553
 20
-50.36675905876105
 30
0.0
 11
-51.39220716272553
 21
-50.36675905876105
 31
0.0
  0
LINE
  5
2AA
330
424
100
AcDbEntity
  8
0
100
AcDbLine
 10
-43.80642072509863
 20
-51.78097262113415
 30
0.0
 11
-42.80642072509863
 21
-51.78097262113415
 31
0.0
  0
LINE
  5
2AB
330
424
100
AcDbEntity
  8
0
100
AcDbLine
 10
-28.73535291323314
 20
-44.70990480926866
 30
0.0
 11
-24.73535291323315
 21
-44.70990480926866
 31
0.0
  0
LINE
  5
2AC
330
424
100
AcDbEntity
  8
0
100
AcDbLine
 10
-42.80642072509863
 20
-51.78097262113415
 30
0.0
 11
-41.39220716272553
 21
-50.36675905876105
 31
0.0
  0
LINE
  5
2AD
330
424
100
AcDbEntity
  8
0
100
AcDbLine
 10
-41.39220716272553
 20
-50.36675905876105
 30
0.0
 11
-42.39220716272553
 21
-50.36675905876105
 31
0.0
  0
LINE
  5
2AE
330
424
100
AcDbEntity
  8
0
100
AcDbLine
 10
-42.39220716272553
 20
-50.36675905876105
 30
0.0
 11
-43.80642072509863
 21
-51.78097262113415
 31
0.0
  0
LINE
  5
2AF
330
424
100
AcDbEntity
  8
0
100
AcDbLine
 10
-40.80642072509863
 20
-51.78097262113415
 30
0.0
 11
-39.80642072509863
 21
-51.78097262113415
 31
0.0
  0
LINE
  5
2B0
330
424
100
AcDbEntity
  8
0
100
AcDbLine
 10
-39.80642072509863
 20
-51.78097262113415
 30
0.0
 11
-38.39220716272553
 21
-50.36675905876105
 31
0.0
  0
LINE
  5
2B1
330
424
100
AcDbEntity
  8
0
100
AcDbLine
 10
-38.39220716272553
 20
-50.36675905876105
 30
0.0
 11
-39.39220716272553
 21
-50.36675905876105
 31
0.0
  0
LINE
  5
39E
330
424
100
AcDbEntity
  8
0
100
AcDbLine
 10
-206.2928932188134
 20
-96.10747596693064
 30
0.0
 11
-210.2928932188134
 21
-96.10747596693064
 31
0.0
  0
LINE
  5
39F
330
424
100
AcDbEntity
  8
0
100
AcDbLine
 10
-222.4038059222874
 20
-92.21838867040462
 30
0.0
 11
-223.4038059222874
 21
-92.21838867040462
 31
0.0
  0
LWPOLYLINE
  5
3A0
330
424
100
AcDbEntity
  8
0
100
AcDbPolyline
 90
        2
 70
   128
 43
0.0
 10
-228.2928932188134
 20
-96.10747596693064
 10
-227.5857864376269
 20
-95.40036918574408
  0
LINE
  5
3A1
330
424
100
AcDbEntity
  8
0
100
AcDbLine
 10
-223.4038059222874
 20
-92.21838867040462
 30
0.0
 11
-224.8180194846605
 21
-93.63260223277773
 31
0.0
  0
LWPOLYLINE
  5
3A2
330
424
100
AcDbEntity
  8
0
100
AcDbPolyline
 90
        2
 70
   128
 43
0.0
 10
-227.2322330470336
 20
-95.0468157951508
 10
-226.525126265847
 20
-94.33970901396424
  0
LWPOLYLINE
  5
3A3
330
424
100
AcDbEntity
  8
0
100
AcDbPolyline
 90
        3
 70
   128
 43
0.0
 10
-226.1715728752538
 20
-93.98615562337098
 10
-225.8180194846605
 20
-93.63260223277773
 10
-224.8180194846605
 20
-93.63260223277773
  0
LINE
  5
3A4
330
424
100
AcDbEntity
  8
0
100
AcDbLine
 10
-234.7677669529664
 20
-98.58234970108354
 30
0.0
 11
-230.7677669529664
 21
-98.58234970108354
 31
0.0
  0
LINE
  5
3A6
330
424
100
AcDbEntity
  8
0
100
AcDbLine
 10
-212.7677669529663
 20
-98.58234970108354
 30
0.0
 11
-208.7677669529664
 21
-98.58234970108354
 31
0.0
  0
LINE
  5
3A9
330
424
100
AcDbEntity
  8
0
100
AcDbLine
 10
-207.7071067811865
 20
-97.52168952930371
 30
0.0
 11
-207.3535533905933
 21
-97.16813613871045
 31
0.0
  0
LINE
  5
3AA
330
424
100
AcDbEntity
  8
0
100
AcDbLine
 10
-229.3535533905932
 20
-97.16813613871045
 30
0.0
 11
-233.3535533905932
 21
-97.16813613871045
 31
0.0
  0
LINE
  5
3AC
330
424
100
AcDbEntity
  8
0
100
AcDbLine
 10
-207.3535533905933
 20
-97.16813613871045
 30
0.0
 11
-211.3535533905932
 21
-97.16813613871045
 31
0.0
  0
LINE
  5
3AE
330
424
100
AcDbEntity
  8
0
100
AcDbLine
 10
-228.1819805153394
 20
-99.99656326345665
 30
0.0
 11
-229.5961940777125
 21
-101.4107768258297
 31
0.0
  0
LINE
  5
3AF
330
424
100
AcDbEntity
  8
0
100
AcDbLine
 10
-226.5961940777125
 20
-101.4107768258297
 30
0.0
 11
-225.5961940777125
 21
-101.4107768258297
 31
0.0
  0
LINE
  5
3B0
330
424
100
AcDbEntity
  8
0
100
AcDbLine
 10
-225.5961940777125
 20
-101.4107768258297
 30
0.0
 11
-224.1819805153394
 21
-99.99656326345665
 31
0.0
  0
LINE
  5
3B1
330
424
100
AcDbEntity
  8
0
100
AcDbLine
 10
-231.2322330470336
 20
-95.0468157951508
 30
0.0
 11
-231.5857864376269
 21
-95.40036918574408
 31
0.0
  0
LINE
  5
3B2
330
424
100
AcDbEntity
  8
0
100
AcDbLine
 10
-231.1819805153394
 20
-99.99656326345665
 30
0.0
 11
-232.5961940777125
 21
-101.4107768258297
 31
0.0
  0
LWPOLYLINE
  5
3B3
330
424
100
AcDbEntity
  8
0
100
AcDbPolyline
 90
        2
 70
   128
 43
0.0
 10
-223.8180194846605
 20
-93.63260223277773
 10
-221.8180194846605
 20
-93.63260223277773
  0
LINE
  5
3B4
330
424
100
AcDbEntity
  8
0
100
AcDbLine
 10
-225.1819805153394
 20
-99.99656326345665
 30
0.0
 11
-226.5961940777125
 21
-101.4107768258297
 31
0.0
  0
LINE
  5
3B6
330
424
100
AcDbEntity
  8
0
100
AcDbLine
 10
-230.5251262658471
 20
-94.33970901396425
 30
0.0
 11
-226.5251262658471
 21
-94.33970901396425
 31
0.0
  0
LINE
  5
3B7
330
424
100
AcDbEntity
  8
0
100
AcDbLine
 10
-229.5961940777125
 20
-101.4107768258297
 30
0.0
 11
-228.5961940777125
 21
-101.4107768258297
 31
0.0
  0
LINE
  5
3B9
330
424
100
AcDbEntity
  8
0
100
AcDbLine
 10
-231.5857864376269
 20
-95.40036918574408
 30
0.0
 11
-227.5857864376269
 21
-95.40036918574408
 31
0.0
  0
LINE
  5
3BA
330
424
100
AcDbEntity
  8
0
100
AcDbLine
 10
-209.5857864376269
 20
-95.40036918574408
 30
0.0
 11
-205.5857864376269
 21
-95.40036918574408
 31
0.0
  0
LWPOLYLINE
  5
3BB
330
424
100
AcDbEntity
  8
0
100
AcDbPolyline
 90
        2
 70
   128
 43
0.0
 10
-214.8180194846605
 20
-93.63260223277773
 10
-212.8180194846605
 20
-93.63260223277773
  0
LINE
  5
3BC
330
424
100
AcDbEntity
  8
0
100
AcDbLine
 10
-204.5251262658471
 20
-94.33970901396425
 30
0.0
 11
-204.1715728752538
 21
-93.98615562337099
 31
0.0
  0
LWPOLYLINE
  5
3BD
330
424
100
AcDbEntity
  8
0
100
AcDbPolyline
 90
        2
 70
   128
 43
0.0
 10
-211.8180194846605
 20
-93.63260223277773
 10
-209.8180194846605
 20
-93.63260223277773
  0
LINE
  5
3BE
330
424
100
AcDbEntity
  8
0
100
AcDbLine
 10
-226.1715728752538
 20
-93.98615562337098
 30
0.0
 11
-230.1715728752538
 21
-93.98615562337098
 31
0.0
  0
LWPOLYLINE
  5
3BF
330
424
100
AcDbEntity
  8
0
100
AcDbPolyline
 90
        3
 70
   128
 43
0.0
 10
-208.8180194846605
 20
-93.63260223277773
 10
-207.8180194846605
 20
-93.63260223277773
 10
-208.1715728752538
 20
-93.986155623371
  0
LWPOLYLINE
  5
3C0
330
424
100
AcDbEntity
  8
0
100
AcDbPolyline
 90
        2
 70
   128
 43
0.0
 10
-208.525126265847
 20
-94.33970901396424
 10
-209.2322330470336
 20
-95.0468157951508
  0
LWPOLYLINE
  5
3C1
330
424
100
AcDbEntity
  8
0
100
AcDbPolyline
 90
        2
 70
   128
 43
0.0
 10
-209.5857864376269
 20
-95.4003691857441
 10
-210.2928932188134
 20
-96.10747596693065
  0
LWPOLYLINE
  5
3C2
330
424
100
AcDbEntity
  8
0
100
AcDbPolyline
 90
        2
 70
   128
 43
0.0
 10
-210.6464466094067
 20
-96.46102935752391
 10
-211.3535533905932
 20
-97.16813613871047
  0
LINE
  5
3C3
330
424
100
AcDbEntity
  8
0
100
AcDbLine
 10
-219.1819805153394
 20
-99.99656326345665
 30
0.0
 11
-220.5961940777125
 21
-101.4107768258297
 31
0.0
  0
LINE
  5
3C4
330
424
100
AcDbEntity
  8
0
100
AcDbLine
 10
-217.5961940777125
 20
-101.4107768258297
 30
0.0
 11
-216.5961940777125
 21
-101.4107768258297
 31
0.0
  0
LINE
  5
3C5
330
424
100
AcDbEntity
  8
0
100
AcDbLine
 10
-216.5961940777125
 20
-101.4107768258297
 30
0.0
 11
-215.1819805153394
 21
-99.99656326345665
 31
0.0
  0
LINE
  5
3C6
330
424
100
AcDbEntity
  8
0
100
AcDbLine
 10
-216.1819805153394
 20
-99.99656326345665
 30
0.0
 11
-217.5961940777125
 21
-101.4107768258297
 31
0.0
  0
LINE
  5
3C7
330
424
100
AcDbEntity
  8
0
100
AcDbLine
 10
-223.8180194846605
 20
-93.63260223277773
 30
0.0
 11
-222.4038059222874
 21
-92.21838867040462
 31
0.0
  0
LINE
  5
3C8
330
424
100
AcDbEntity
  8
0
100
AcDbLine
 10
-210.4038059222874
 20
-92.21838867040462
 30
0.0
 11
-211.4038059222874
 21
-92.21838867040462
 31
0.0
  0
LINE
  5
3C9
330
424
100
AcDbEntity
  8
0
100
AcDbLine
 10
-232.2928932188134
 20
-96.10747596693064
 30
0.0
 11
-232.6464466094067
 21
-96.46102935752391
 31
0.0
  0
LINE
  5
3CA
330
424
100
AcDbEntity
  8
0
100
AcDbLine
 10
-211.4038059222874
 20
-92.21838867040462
 30
0.0
 11
-212.8180194846605
 21
-93.63260223277773
 31
0.0
  0
LINE
  5
3CB
330
424
100
AcDbEntity
  8
0
100
AcDbLine
 10
-232.6464466094067
 20
-96.46102935752391
 30
0.0
 11
-228.6464466094067
 21
-96.46102935752391
 31
0.0
  0
LINE
  5
3CC
330
424
100
AcDbEntity
  8
0
100
AcDbLine
 10
-208.8180194846605
 20
-93.63260223277773
 30
0.0
 11
-207.4038059222874
 21
-92.21838867040462
 31
0.0
  0
LINE
  5
3CD
330
424
100
AcDbEntity
  8
0
100
AcDbLine
 10
-210.6464466094067
 20
-96.46102935752391
 30
0.0
 11
-206.6464466094067
 21
-96.46102935752391
 31
0.0
  0
LINE
  5
3CE
330
424
100
AcDbEntity
  8
0
100
AcDbLine
 10
-207.4038059222874
 20
-92.21838867040462
 30
0.0
 11
-208.4038059222874
 21
-92.21838867040462
 31
0.0
  0
LINE
  5
3CF
330
424
100
AcDbEntity
  8
0
100
AcDbLine
 10
-208.4038059222874
 20
-92.21838867040462
 30
0.0
 11
-209.8180194846605
 21
-93.63260223277773
 31
0.0
  0
LINE
  5
3D0
330
424
100
AcDbEntity
  8
0
100
AcDbLine
 10
-205.5857864376269
 20
-95.40036918574408
 30
0.0
 11
-205.2322330470336
 21
-95.0468157951508
 31
0.0
  0
LINE
  5
3D1
330
424
100
AcDbEntity
  8
0
100
AcDbLine
 10
-232.5961940777125
 20
-101.4107768258297
 30
0.0
 11
-231.5961940777125
 21
-101.4107768258297
 31
0.0
  0
LINE
  5
3D2
330
424
100
AcDbEntity
  8
0
100
AcDbLine
 10
-227.2322330470336
 20
-95.0468157951508
 30
0.0
 11
-231.2322330470336
 21
-95.0468157951508
 31
0.0
  0
LINE
  5
3D3
330
424
100
AcDbEntity
  8
0
100
AcDbLine
 10
-231.5961940777125
 20
-101.4107768258297
 30
0.0
 11
-230.1819805153394
 21
-99.99656326345665
 31
0.0
  0
LINE
  5
3D4
330
424
100
AcDbEntity
  8
0
100
AcDbLine
 10
-205.2322330470336
 20
-95.0468157951508
 30
0.0
 11
-209.2322330470336
 21
-95.0468157951508
 31
0.0
  0
LINE
  5
3D5
330
424
100
AcDbEntity
  8
0
100
AcDbLine
 10
-223.5961940777125
 20
-101.4107768258297
 30
0.0
 11
-222.5961940777125
 21
-101.4107768258297
 31
0.0
  0
LINE
  5
3D6
330
424
100
AcDbEntity
  8
0
100
AcDbLine
 10
-208.5251262658471
 20
-94.33970901396425
 30
0.0
 11
-204.5251262658471
 21
-94.33970901396425
 31
0.0
  0
LINE
  5
3D7
330
424
100
AcDbEntity
  8
0
100
AcDbLine
 10
-222.5961940777125
 20
-101.4107768258297
 30
0.0
 11
-221.1819805153394
 21
-99.99656326345665
 31
0.0
  0
LINE
  5
3D8
330
424
100
AcDbEntity
  8
0
100
AcDbLine
 10
-222.1819805153394
 20
-99.99656326345665
 30
0.0
 11
-223.5961940777125
 21
-101.4107768258297
 31
0.0
  0
LINE
  5
3D9
330
424
100
AcDbEntity
  8
0
100
AcDbLine
 10
-220.5961940777125
 20
-101.4107768258297
 30
0.0
 11
-219.5961940777125
 21
-101.4107768258297
 31
0.0
  0
LINE
  5
3DA
330
424
100
AcDbEntity
  8
0
100
AcDbLine
 10
-204.1715728752538
 20
-93.98615562337099
 30
0.0
 11
-208.1715728752538
 21
-93.98615562337099
 31
0.0
  0
LINE
  5
3DB
330
424
100
AcDbEntity
  8
0
100
AcDbLine
 10
-219.5961940777125
 20
-101.4107768258297
 30
0.0
 11
-218.1819805153394
 21
-99.99656326345665
 31
0.0
  0
LINE
  5
3DC
330
424
100
AcDbEntity
  8
0
100
AcDbLine
 10
-230.1715728752538
 20
-93.98615562337098
 30
0.0
 11
-230.5251262658471
 21
-94.33970901396425
 31
0.0
  0
LINE
  5
3DD
330
424
100
AcDbEntity
  8
0
100
AcDbLine
 10
-209.8284271247462
 20
-99.64300987286337
 30
0.0
 11
-209.4748737341529
 21
-99.2894564822701
 31
0.0
  0
LINE
  5
3DE
330
424
100
AcDbEntity
  8
0
100
AcDbLine
 10
-231.4748737341529
 20
-99.2894564822701
 30
0.0
 11
-235.4748737341529
 21
-99.2894564822701
 31
0.0
  0
LINE
  5
3DF
330
424
100
AcDbEntity
  8
0
100
AcDbLine
 10
-209.4748737341529
 20
-99.2894564822701
 30
0.0
 11
-213.4748737341529
 21
-99.2894564822701
 31
0.0
  0
LINE
  5
3E0
330
424
100
AcDbEntity
  8
0
100
AcDbLine
 10
-235.4748737341529
 20
-99.2894564822701
 30
0.0
 11
-235.8284271247462
 21
-99.64300987286337
 31
0.0
  0
LINE
  5
3E1
330
424
100
AcDbEntity
  8
0
100
AcDbLine
 10
-235.8284271247462
 20
-99.64300987286337
 30
0.0
 11
-231.8284271247462
 21
-99.64300987286337
 31
0.0
  0
LINE
  5
3E2
330
424
100
AcDbEntity
  8
0
100
AcDbLine
 10
-213.8284271247462
 20
-99.64300987286337
 30
0.0
 11
-209.8284271247462
 21
-99.64300987286337
 31
0.0
  0
LWPOLYLINE
  5
3E3
330
424
100
AcDbEntity
  8
0
100
AcDbPolyline
 90
        2
 70
   128
 43
0.0
 10
-211.7071067811865
 20
-97.52168952930374
 10
-212.414213562373
 20
-98.22879631049028
  0
LWPOLYLINE
  5
3E4
330
424
100
AcDbEntity
  8
0
100
AcDbPolyline
 90
        2
 70
   128
 43
0.0
 10
-212.7677669529663
 20
-98.58234970108354
 10
-213.4748737341529
 20
-99.2894564822701
  0
LINE
  5
3E5
330
424
100
AcDbEntity
  8
0
100
AcDbLine
 10
-208.7677669529664
 20
-98.58234970108354
 30
0.0
 11
-208.4142135623731
 21
-98.22879631049027
 31
0.0
  0
LINE
  5
3E6
330
424
100
AcDbEntity
  8
0
100
AcDbLine
 10
-230.4142135623731
 20
-98.22879631049027
 30
0.0
 11
-234.4142135623731
 21
-98.22879631049027
 31
0.0
  0
LWPOLYLINE
  5
3E7
330
424
100
AcDbEntity
  8
0
100
AcDbPolyline
 90
        3
 70
   128
 43
0.0
 10
-213.8284271247462
 20
-99.64300987286337
 10
-214.1819805153394
 20
-99.99656326345665
 10
-215.1819805153394
 20
-99.99656326345665
  0
LINE
  5
3E8
330
424
100
AcDbEntity
  8
0
100
AcDbLine
 10
-208.4142135623731
 20
-98.22879631049027
 30
0.0
 11
-212.4142135623731
 21
-98.22879631049027
 31
0.0
  0
LINE
  5
3E9
330
424
100
AcDbEntity
  8
0
100
AcDbLine
 10
-234.4142135623731
 20
-98.22879631049027
 30
0.0
 11
-234.7677669529664
 21
-98.58234970108354
 31
0.0
  0
LWPOLYLINE
  5
3EA
330
424
100
AcDbEntity
  8
0
100
AcDbPolyline
 90
        2
 70
   128
 43
0.0
 10
-216.1819805153394
 20
-99.99656326345665
 10
-218.1819805153394
 20
-99.99656326345665
  0
LINE
  5
3EB
330
424
100
AcDbEntity
  8
0
100
AcDbLine
 10
-228.5961940777125
 20
-101.4107768258297
 30
0.0
 11
-227.1819805153394
 21
-99.99656326345665
 31
0.0
  0
LWPOLYLINE
  5
3EC
330
424
100
AcDbEntity
  8
0
100
AcDbPolyline
 90
        2
 70
   128
 43
0.0
 10
-219.1819805153394
 20
-99.99656326345665
 10
-221.1819805153394
 20
-99.99656326345665
  0
LINE
  5
3ED
330
424
100
AcDbEntity
  8
0
100
AcDbLine
 10
-233.3535533905932
 20
-97.16813613871045
 30
0.0
 11
-233.7071067811865
 21
-97.52168952930371
 31
0.0
  0
LWPOLYLINE
  5
3EF
330
424
100
AcDbEntity
  8
0
100
AcDbPolyline
 90
        2
 70
   128
 43
0.0
 10
-222.1819805153394
 20
-99.99656326345665
 10
-224.1819805153394
 20
-99.99656326345665
  0
LWPOLYLINE
  5
3F0
330
424
100
AcDbEntity
  8
0
100
AcDbPolyline
 90
        2
 70
   128
 43
0.0
 10
-225.1819805153394
 20
-99.99656326345665
 10
-227.1819805153394
 20
-99.99656326345665
  0
LINE
  5
3F1
330
424
100
AcDbEntity
  8
0
100
AcDbLine
 10
-233.7071067811865
 20
-97.52168952930371
 30
0.0
 11
-229.7071067811865
 21
-97.52168952930371
 31
0.0
  0
LINE
  5
3F2
330
424
100
AcDbEntity
  8
0
100
AcDbLine
 10
-214.8180194846605
 20
-93.63260223277773
 30
0.0
 11
-213.4038059222874
 21
-92.21838867040462
 31
0.0
  0
LWPOLYLINE
  5
3F3
330
424
100
AcDbEntity
  8
0
100
AcDbPolyline
 90
        2
 70
   128
 43
0.0
 10
-228.1819805153394
 20
-99.99656326345665
 10
-230.1819805153394
 20
-99.99656326345665
  0
LINE
  5
3F4
330
424
100
AcDbEntity
  8
0
100
AcDbLine
 10
-211.7071067811865
 20
-97.52168952930373
 30
0.0
 11
-207.7071067811865
 21
-97.52168952930371
 31
0.0
  0
LINE
  5
3F5
330
424
100
AcDbEntity
  8
0
100
AcDbLine
 10
-213.4038059222874
 20
-92.21838867040462
 30
0.0
 11
-214.4038059222874
 21
-92.21838867040462
 31
0.0
  0
LWPOLYLINE
  5
3F6
330
424
100
AcDbEntity
  8
0
100
AcDbPolyline
 90
        3
 70
   128
 43
0.0
 10
-231.1819805153394
 20
-99.99656326345665
 10
-232.1819805153394
 20
-99.99656326345665
 10
-231.8284271247461
 20
-99.64300987286335
  0
LWPOLYLINE
  5
3F7
330
424
100
AcDbEntity
  8
0
100
AcDbPolyline
 90
        2
 70
   128
 43
0.0
 10
-231.4748737341529
 20
-99.2894564822701
 10
-230.7677669529663
 20
-98.58234970108354
  0
LINE
  5
3F8
330
424
100
AcDbEntity
  8
0
100
AcDbLine
 10
-214.4038059222874
 20
-92.21838867040462
 30
0.0
 11
-215.8180194846605
 21
-93.63260223277773
 31
0.0
  0
LINE
  5
3F9
330
424
100
AcDbEntity
  8
0
100
AcDbLine
 10
-206.6464466094067
 20
-96.46102935752391
 30
0.0
 11
-206.2928932188134
 21
-96.10747596693064
 31
0.0
  0
LWPOLYLINE
  5
3FA
330
424
100
AcDbEntity
  8
0
100
AcDbPolyline
 90
        2
 70
   128
 43
0.0
 10
-230.414213562373
 20
-98.22879631049027
 10
-229.7071067811865
 20
-97.52168952930371
  0
LINE
  5
3FB
330
424
100
AcDbEntity
  8
0
100
AcDbLine
 10
-228.2928932188134
 20
-96.10747596693064
 30
0.0
 11
-232.2928932188134
 21
-96.10747596693064
 31
0.0
  0
LWPOLYLINE
  5
3FC
330
424
100
AcDbEntity
  8
0
100
AcDbPolyline
 90
        2
 70
   128
 43
0.0
 10
-229.3535533905932
 20
-97.16813613871045
 10
-228.6464466094067
 20
-96.46102935752391
  0
LINE
  5
3FD
330
424
100
AcDbEntity
  8
0
100
AcDbLine
 10
-211.8180194846605
 20
-93.63260223277773
 30
0.0
 11
-210.4038059222874
 21
-92.21838867040462
 31
0.0
  0
LINE
  5
3FE
330
424
100
AcDbEntity
  8
0
100
AcDbLine
 10
-221.5677401554645
 20
-93.3823229035817
 30
0.0
 11
-221.8180194846605
 21
-93.63260223277773
 31
0.0
  0
LWPOLYLINE
  5
3FF
330
424
100
AcDbEntity
  8
0
100
AcDbPolyline
 90
        2
 70
   128
 43
0.0
 10
-216.5532771302321
 20
-93.63260223277773
 10
-215.8180194846605
 20
-93.63260223277773
  0
INSERT
  5
2B3
330
424
100
AcDbEntity
  8
TETE
100
AcDbBlockReference
  2
bloc 2
 10
-38.06739387751661
 20
-46.68201026585869
 30
0.0
  0
HATCH
  5
395
330
424
100
AcDbEntity
  8
0
100
AcDbHatch
 10
0.0
 20
0.0
 30
0.0
210
0.0
220
0.0
230
1.0
  2
SOLID
 70
     1
 71
     0
 91
        1
 92
        0
 93
       20
 72
     1
 10
-112.181134063334
 20
-42.8212384657706
 11
-112.181134063334
 21
-62.22325530263424
 72
     1
 10
-112.181134063334
 20
-62.22325530263424
 11
-108.5288227607955
 21
-62.22325530263424
 72
     1
 10
-108.5288227607955
 20
-62.22325530263424
 11
-108.5288227607955
 21
-63.22325530263424
 72
     1
 10
-108.5288227607955
 20
-63.22325530263424
 11
-112.181134063334
 21
-63.22325530263424
 72
     1
 10
-112.181134063334
 20
-63.22325530263424
 11
-112.181134063334
 21
-64.22325530263424
 72
     1
 10
-112.181134063334
 20
-64.22325530263424
 11
-108.5288227607955
 21
-64.22325530263424
 72
     1
 10
-108.5288227607955
 20
-64.22325530263424
 11
-108.5288227607955
 21
-65.22325530263424
 72
     1
 10
-108.5288227607955
 20
-65.22325530263424
 11
-110.3549784120648
 21
-65.22325530263424
 72
     1
 10
-110.3549784120648
 20
-65.22325530263424
 11
-113.2821878931236
 21
-71.27710142154822
 72
     1
 10
-113.2821878931236
 20
-71.27710142154822
 11
-114.7754576284675
 21
-71.27710142154822
 72
     1
 10
-114.7754576284675
 20
-71.27710142154822
 11
-117.7026671095263
 21
-65.22325530263424
 72
     1
 10
-117.7026671095263
 20
-65.22325530263424
 11
-119.5288227607955
 21
-65.22325530263424
 72
     1
 10
-119.5288227607955
 20
-65.22325530263424
 11
-119.5288227607955
 21
-64.22325530263424
 72
     1
 10
-119.5288227607955
 20
-64.22325530263424
 11
-115.8765114582571
 21
-64.22325530263424
 72
     1
 10
-115.8765114582571
 20
-64.22325530263424
 11
-115.8765114582571
 21
-63.22325530263424
 72
     1
 10
-115.8765114582571
 20
-63.22325530263424
 11
-119.5288227607955
 21
-63.22325530263424
 72
     1
 10
-119.5288227607955
 20
-63.22325530263424
 11
-119.5288227607955
 21
-62.22325530263424
 72
     1
 10
-119.5288227607955
 20
-62.22325530263424
 11
-115.8765114582571
 21
-62.22325530263424
 72
     1
 10
-115.8765114582571
 20
-62.22325530263424
 11
-115.8765114582571
 21
-42.8212384657706
 72
     1
 10
-115.8765114582571
 20
-42.8212384657706
 11
-112.181134063334
 21
-42.8212384657706
 97
        0
 75
     0
 76
     1
 98
        0
  0
HATCH
  5
396
330
424
100
AcDbEntity
  8
0
100
AcDbHatch
 10
0.0
 20
0.0
 30
0.0
210
0.0
220
0.0
230
1.0
  2
SOLID
 70
     1
 71
     0
 91
        1
 92
        0
 93
       20
 72
     1
 10
-133.3352327382572
 20
33.97760615502915
 11
-133.3352327382572
 21
14.57558931816551
 72
     1
 10
-133.3352327382572
 20
14.57558931816551
 11
-129.6829214357187
 21
14.57558931816551
 72
     1
 10
-129.6829214357187
 20
14.57558931816551
 11
-129.6829214357187
 21
13.57558931816551
 72
     1
 10
-129.6829214357187
 20
13.57558931816551
 11
-133.3352327382572
 21
13.57558931816551
 72
     1
 10
-133.3352327382572
 20
13.57558931816551
 11
-133.3352327382572
 21
12.57558931816551
 72
     1
 10
-133.3352327382572
 20
12.57558931816551
 11
-129.6829214357187
 21
12.57558931816551
 72
     1
 10
-129.6829214357187
 20
12.57558931816551
 11
-129.6829214357187
 21
11.57558931816551
 72
     1
 10
-129.6829214357187
 20
11.57558931816551
 11
-131.509077086988
 21
11.57558931816551
 72
     1
 10
-131.509077086988
 20
11.57558931816551
 11
-134.4362865680468
 21
5.521743199251517
 72
     1
 10
-134.4362865680468
 20
5.521743199251517
 11
-135.9295563033907
 21
5.521743199251517
 72
     1
 10
-135.9295563033907
 20
5.521743199251517
 11
-138.8567657844495
 21
11.57558931816551
 72
     1
 10
-138.8567657844495
 20
11.57558931816551
 11
-140.6829214357187
 21
11.57558931816551
 72
     1
 10
-140.6829214357187
 20
11.57558931816551
 11
-140.6829214357187
 21
12.57558931816551
 72
     1
 10
-140.6829214357187
 20
12.57558931816551
 11
-137.0306101331803
 21
12.57558931816551
 72
     1
 10
-137.0306101331803
 20
12.57558931816551
 11
-137.0306101331803
 21
13.57558931816551
 72
     1
 10
-137.0306101331803
 20
13.57558931816551
 11
-140.6829214357187
 21
13.57558931816551
 72
     1
 10
-140.6829214357187
 20
13.57558931816551
 11
-140.6829214357187
 21
14.57558931816551
 72
     1
 10
-140.6829214357187
 20
14.57558931816551
 11
-137.0306101331803
 21
14.57558931816551
 72
     1
 10
-137.0306101331803
 20
14.57558931816551
 11
-137.0306101331803
 21
33.97760615502915
 72
     1
 10
-137.0306101331803
 20
33.97760615502915
 11
-133.3352327382572
 21
33.97760615502915
 97
        0
 75
     0
 76
     1
 98
        0
  0
HATCH
  5
406
330
424
100
AcDbEntity
  8
0
100
AcDbHatch
 10
0.0
 20
0.0
 30
0.0
210
0.0
220
0.0
230
1.0
  2
SOLID
 70
     1
 71
     0
 91
        1
 92
        0
 93
       20
 72
     1
 10
-217.1523113025384
 20
-67.54413704422237
 11
-217.1523113025384
 21
-86.94615388108602
 72
     1
 10
-217.1523113025384
 20
-86.94615388108602
 11
-213.5
 21
-86.94615388108602
 72
     1
 10
-213.5
 20
-86.94615388108602
 11
-213.5
 21
-87.94615388108602
 72
     1
 10
-213.5
 20
-87.94615388108602
 11
-217.1523113025384
 21
-87.94615388108602
 72
     1
 10
-217.1523113025384
 20
-87.94615388108602
 11
-217.1523113025384
 21
-88.94615388108602
 72
     1
 10
-217.1523113025384
 20
-88.94615388108602
 11
-213.5
 21
-88.94615388108602
 72
     1
 10
-213.5
 20
-88.94615388108602
 11
-213.5
 21
-89.94615388108602
 72
     1
 10
-213.5
 20
-89.94615388108602
 11
-215.3261556512692
 21
-89.94615388108602
 72
     1
 10
-215.3261556512692
 20
-89.94615388108602
 11
-218.253365132328
 21
-96.0
 72
     1
 10
-218.253365132328
 20
-96.0
 11
-219.746634867672
 21
-96.0
 72
     1
 10
-219.746634867672
 20
-96.0
 11
-222.6738443487307
 21
-89.94615388108602
 72
     1
 10
-222.6738443487307
 20
-89.94615388108602
 11
-224.5
 21
-89.94615388108602
 72
     1
 10
-224.5
 20
-89.94615388108602
 11
-224.5
 21
-88.94615388108602
 72
     1
 10
-224.5
 20
-88.94615388108602
 11
-220.8476886974615
 21
-88.94615388108602
 72
     1
 10
-220.8476886974615
 20
-88.94615388108602
 11
-220.8476886974615
 21
-87.94615388108602
 72
     1
 10
-220.8476886974615
 20
-87.94615388108602
 11
-224.5
 21
-87.94615388108602
 72
     1
 10
-224.5
 20
-87.94615388108602
 11
-224.5
 21
-86.94615388108602
 72
     1
 10
-224.5
 20
-86.94615388108602
 11
-220.8476886974615
 21
-86.94615388108602
 72
     1
 10
-220.8476886974615
 20
-86.94615388108602
 11
-220.8476886974615
 21
-67.54413704422237
 72
     1
 10
-220.8476886974615
 20
-67.54413704422237
 11
-217.1523113025384
 21
-67.54413704422237
 97
        0
 75
     0
 76
     1
 98
        0
  0
LWPOLYLINE
  5
397
330
424
100
AcDbEntity
  8
0
100
AcDbPolyline
 90
       18
 70
   129
 43
0.0
 10
-111.681134063334
 20
-42.3212384657706
 10
-111.681134063334
 20
-61.72325530263424
 10
-108.0288227607955
 20
-61.72325530263423
 10
-108.0288227607955
 20
-63.72325530263424
 10
-111.681134063334
 20
-63.72325530263424
 10
-108.0288227607955
 20
-63.72325530263424
 10
-108.0288227607955
 20
-65.72325530263424
 10
-110.041360063361
 20
-65.72325530263423
 10
-112.9685695444198
 20
-71.77710142154822
 10
-115.0890759771713
 20
-71.77710142154822
 10
-118.0162854582301
 20
-65.72325530263424
 10
-120.0288227607955
 20
-65.72325530263424
 10
-120.0288227607955
 20
-63.72325530263424
 10
-116.3765114582571
 20
-63.72325530263424
 10
-120.0288227607955
 20
-63.72325530263424
 10
-120.0288227607955
 20
-61.72325530263424
 10
-116.3765114582571
 20
-61.72325530263424
 10
-116.3765114582571
 20
-42.3212384657706
  0
LWPOLYLINE
  5
402
330
424
100
AcDbEntity
  8
0
100
AcDbPolyline
 90
        4
 70
   128
 43
0.0
 10
-216.5532771302321
 20
-93.63260223277771
 10
-217.9397467836243
 20
-96.5
 10
-220.0602532163758
 20
-96.5
 10
-221.5677401554645
 20
-93.38232290358167
  0
HATCH
  5
405
330
424
100
AcDbEntity
  8
0
100
AcDbHatch
 10
0.0
 20
0.0
 30
0.0
210
0.0
220
0.0
230
1.0
  2
SOLID
 70
     1
 71
     0
 91
        1
 92
        0
 93
       97
 72
     1
 10
-214.8180194846605
 20
-93.63260223277773
 11
-213.4038059222874
 21
-92.21838867040462
 72
     1
 10
-213.4038059222874
 20
-92.21838867040462
 11
-214.4038059222874
 21
-92.21838867040462
 72
     1
 10
-214.4038059222874
 20
-92.21838867040462
 11
-215.8180194846605
 21
-93.63260223277773
 72
     1
 10
-215.8180194846605
 20
-93.63260223277773
 11
-216.5532771302321
 21
-93.63260223277773
 72
     1
 10
-216.5532771302321
 20
-93.63260223277773
 11
-217.9397467836243
 21
-96.5
 72
     1
 10
-217.9397467836243
 20
-96.5
 11
-220.0602532163758
 21
-96.5
 72
     1
 10
-220.0602532163758
 20
-96.5
 11
-221.5677401554645
 21
-93.38232290358167
 72
     1
 10
-221.5677401554645
 20
-93.38232290358167
 11
-221.8180194846605
 21
-93.63260223277773
 72
     1
 10
-221.8180194846605
 20
-93.63260223277773
 11
-223.8180194846605
 21
-93.63260223277773
 72
     1
 10
-223.8180194846605
 20
-93.63260223277773
 11
-222.4038059222874
 21
-92.21838867040462
 72
     1
 10
-222.4038059222874
 20
-92.21838867040462
 11
-223.4038059222874
 21
-92.21838867040462
 72
     1
 10
-223.4038059222874
 20
-92.21838867040462
 11
-224.8180194846605
 21
-93.63260223277773
 72
     1
 10
-224.8180194846605
 20
-93.63260223277773
 11
-225.8180194846605
 21
-93.63260223277773
 72
     1
 10
-225.8180194846605
 20
-93.63260223277773
 11
-226.1715728752538
 21
-93.98615562337098
 72
     1
 10
-226.1715728752538
 20
-93.98615562337098
 11
-230.1715728752538
 21
-93.98615562337098
 72
     1
 10
-230.1715728752538
 20
-93.98615562337098
 11
-230.5251262658471
 21
-94.33970901396425
 72
     1
 10
-230.5251262658471
 20
-94.33970901396425
 11
-226.5251262658471
 21
-94.33970901396425
 72
     1
 10
-226.5251262658471
 20
-94.33970901396425
 11
-227.2322330470336
 21
-95.0468157951508
 72
     1
 10
-227.2322330470336
 20
-95.0468157951508
 11
-231.2322330470336
 21
-95.0468157951508
 72
     1
 10
-231.2322330470336
 20
-95.0468157951508
 11
-231.5857864376269
 21
-95.40036918574408
 72
     1
 10
-231.5857864376269
 20
-95.40036918574408
 11
-227.5857864376269
 21
-95.40036918574408
 72
     1
 10
-227.5857864376269
 20
-95.40036918574408
 11
-228.2928932188134
 21
-96.10747596693064
 72
     1
 10
-228.2928932188134
 20
-96.10747596693064
 11
-232.2928932188134
 21
-96.10747596693064
 72
     1
 10
-232.2928932188134
 20
-96.10747596693064
 11
-232.6464466094067
 21
-96.46102935752391
 72
     1
 10
-232.6464466094067
 20
-96.46102935752391
 11
-228.6464466094067
 21
-96.46102935752391
 72
     1
 10
-228.6464466094067
 20
-96.46102935752391
 11
-229.3535533905932
 21
-97.16813613871045
 72
     1
 10
-229.3535533905932
 20
-97.16813613871045
 11
-233.3535533905932
 21
-97.16813613871045
 72
     1
 10
-233.3535533905932
 20
-97.16813613871045
 11
-233.7071067811865
 21
-97.52168952930371
 72
     1
 10
-233.7071067811865
 20
-97.52168952930371
 11
-229.7071067811865
 21
-97.52168952930371
 72
     1
 10
-229.7071067811865
 20
-97.52168952930371
 11
-230.414213562373
 21
-98.22879631049027
 72
     1
 10
-230.414213562373
 20
-98.22879631049027
 11
-234.4142135623731
 21
-98.22879631049027
 72
     1
 10
-234.4142135623731
 20
-98.22879631049027
 11
-234.7677669529664
 21
-98.58234970108354
 72
     1
 10
-234.7677669529664
 20
-98.58234970108354
 11
-230.7677669529664
 21
-98.58234970108354
 72
     1
 10
-230.7677669529664
 20
-98.58234970108354
 11
-231.4748737341529
 21
-99.2894564822701
 72
     1
 10
-231.4748737341529
 20
-99.2894564822701
 11
-235.4748737341529
 21
-99.2894564822701
 72
     1
 10
-235.4748737341529
 20
-99.2894564822701
 11
-235.8284271247462
 21
-99.64300987286337
 72
     1
 10
-235.8284271247462
 20
-99.64300987286337
 11
-231.8284271247462
 21
-99.64300987286337
 72
     1
 10
-231.8284271247462
 20
-99.64300987286337
 11
-232.1819805153394
 21
-99.99656326345665
 72
     1
 10
-232.1819805153394
 20
-99.99656326345665
 11
-231.1819805153394
 21
-99.99656326345665
 72
     1
 10
-231.1819805153394
 20
-99.99656326345665
 11
-232.5961940777125
 21
-101.4107768258297
 72
     1
 10
-232.5961940777125
 20
-101.4107768258297
 11
-231.5961940777125
 21
-101.4107768258297
 72
     1
 10
-231.5961940777125
 20
-101.4107768258297
 11
-230.1819805153394
 21
-99.99656326345665
 72
     1
 10
-230.1819805153394
 20
-99.99656326345665
 11
-228.1819805153394
 21
-99.99656326345665
 72
     1
 10
-228.1819805153394
 20
-99.99656326345665
 11
-229.5961940777125
 21
-101.4107768258297
 72
     1
 10
-229.5961940777125
 20
-101.4107768258297
 11
-228.5961940777125
 21
-101.4107768258297
 72
     1
 10
-228.5961940777125
 20
-101.4107768258297
 11
-227.1819805153394
 21
-99.99656326345665
 72
     1
 10
-227.1819805153394
 20
-99.99656326345665
 11
-225.1819805153394
 21
-99.99656326345665
 72
     1
 10
-225.1819805153394
 20
-99.99656326345665
 11
-226.5961940777125
 21
-101.4107768258297
 72
     1
 10
-226.5961940777125
 20
-101.4107768258297
 11
-225.5961940777125
 21
-101.4107768258297
 72
     1
 10
-225.5961940777125
 20
-101.4107768258297
 11
-224.1819805153394
 21
-99.99656326345665
 72
     1
 10
-224.1819805153394
 20
-99.99656326345665
 11
-222.1819805153394
 21
-99.99656326345665
 72
     1
 10
-222.1819805153394
 20
-99.99656326345665
 11
-223.5961940777125
 21
-101.4107768258297
 72
     1
 10
-223.5961940777125
 20
-101.4107768258297
 11
-222.5961940777125
 21
-101.4107768258297
 72
     1
 10
-222.5961940777125
 20
-101.4107768258297
 11
-221.1819805153394
 21
-99.99656326345665
 72
     1
 10
-221.1819805153394
 20
-99.99656326345665
 11
-219.1819805153394
 21
-99.99656326345665
 72
     1
 10
-219.1819805153394
 20
-99.99656326345665
 11
-220.5961940777125
 21
-101.4107768258297
 72
     1
 10
-220.5961940777125
 20
-101.4107768258297
 11
-219.5961940777125
 21
-101.4107768258297
 72
     1
 10
-219.5961940777125
 20
-101.4107768258297
 11
-218.1819805153394
 21
-99.99656326345665
 72
     1
 10
-218.1819805153394
 20
-99.99656326345665
 11
-216.1819805153394
 21
-99.99656326345665
 72
     1
 10
-216.1819805153394
 20
-99.99656326345665
 11
-217.5961940777125
 21
-101.4107768258297
 72
     1
 10
-217.5961940777125
 20
-101.4107768258297
 11
-216.5961940777125
 21
-101.4107768258297
 72
     1
 10
-216.5961940777125
 20
-101.4107768258297
 11
-215.1819805153394
 21
-99.99656326345665
 72
     1
 10
-215.1819805153394
 20
-99.99656326345665
 11
-214.1819805153394
 21
-99.99656326345665
 72
     1
 10
-214.1819805153394
 20
-99.99656326345665
 11
-213.8284271247462
 21
-99.64300987286337
 72
     1
 10
-213.8284271247462
 20
-99.64300987286337
 11
-209.8284271247462
 21
-99.64300987286337
 72
     1
 10
-209.8284271247462
 20
-99.64300987286337
 11
-209.4748737341529
 21
-99.2894564822701
 72
     1
 10
-209.4748737341529
 20
-99.2894564822701
 11
-213.4748737341529
 21
-99.2894564822701
 72
     1
 10
-213.4748737341529
 20
-99.2894564822701
 11
-212.7677669529663
 21
-98.58234970108354
 72
     1
 10
-212.7677669529663
 20
-98.58234970108354
 11
-208.7677669529664
 21
-98.58234970108354
 72
     1
 10
-208.7677669529664
 20
-98.58234970108354
 11
-208.4142135623731
 21
-98.22879631049027
 72
     1
 10
-208.4142135623731
 20
-98.22879631049027
 11
-212.4142135623731
 21
-98.22879631049027
 72
     1
 10
-212.4142135623731
 20
-98.22879631049027
 11
-211.7071067811865
 21
-97.52168952930374
 72
     1
 10
-211.7071067811865
 20
-97.52168952930374
 11
-207.7071067811865
 21
-97.52168952930371
 72
     1
 10
-207.7071067811865
 20
-97.52168952930371
 11
-207.3535533905933
 21
-97.16813613871045
 72
     1
 10
-207.3535533905933
 20
-97.16813613871045
 11
-211.3535533905932
 21
-97.16813613871045
 72
     1
 10
-211.3535533905932
 20
-97.16813613871045
 11
-210.6464466094067
 21
-96.46102935752391
 72
     1
 10
-210.6464466094067
 20
-96.46102935752391
 11
-206.6464466094067
 21
-96.46102935752391
 72
     1
 10
-206.6464466094067
 20
-96.46102935752391
 11
-206.2928932188134
 21
-96.10747596693064
 72
     1
 10
-206.2928932188134
 20
-96.10747596693064
 11
-210.2928932188134
 21
-96.10747596693064
 72
     1
 10
-210.2928932188134
 20
-96.10747596693064
 11
-209.5857864376269
 21
-95.4003691857441
 72
     1
 10
-209.5857864376269
 20
-95.4003691857441
 11
-205.5857864376269
 21
-95.40036918574408
 72
     1
 10
-205.5857864376269
 20
-95.40036918574408
 11
-205.2322330470336
 21
-95.0468157951508
 72
     1
 10
-205.2322330470336
 20
-95.0468157951508
 11
-209.2322330470336
 21
-95.0468157951508
 72
     1
 10
-209.2322330470336
 20
-95.0468157951508
 11
-208.525126265847
 21
-94.33970901396424
 72
     1
 10
-208.525126265847
 20
-94.33970901396424
 11
-204.5251262658471
 21
-94.33970901396425
 72
     1
 10
-204.5251262658471
 20
-94.33970901396425
 11
-204.1715728752538
 21
-93.98615562337099
 72
     1
 10
-204.1715728752538
 20
-93.98615562337099
 11
-208.1715728752538
 21
-93.98615562337099
 72
     1
 10
-208.1715728752538
 20
-93.98615562337099
 11
-207.8180194846605
 21
-93.63260223277773
 72
     1
 10
-207.8180194846605
 20
-93.63260223277773
 11
-208.8180194846605
 21
-93.63260223277773
 72
     1
 10
-208.8180194846605
 20
-93.63260223277773
 11
-207.4038059222874
 21
-92.21838867040462
 72
     1
 10
-207.4038059222874
 20
-92.21838867040462
 11
-208.4038059222874
 21
-92.21838867040462
 72
     1
 10
-208.4038059222874
 20
-92.21838867040462
 11
-209.8180194846605
 21
-93.63260223277773
 72
     1
 10
-209.8180194846605
 20
-93.63260223277773
 11
-211.8180194846605
 21
-93.63260223277773
 72
     1
 10
-211.8180194846605
 20
-93.63260223277773
 11
-210.4038059222874
 21
-92.21838867040462
 72
     1
 10
-210.4038059222874
 20
-92.21838867040462
 11
-211.4038059222874
 21
-92.21838867040462
 72
     1
 10
-211.4038059222874
 20
-92.21838867040462
 11
-212.8180194846605
 21
-93.63260223277773
 72
     1
 10
-212.8180194846605
 20
-93.63260223277773
 11
-214.8180194846605
 21
-93.63260223277773
 97
        0
 75
     0
 76
     1
 98
        0
  0
VIEWPORT
  5
4E6
330
420
100
AcDbEntity
 67
     1
  8
0
100
AcDbViewport
 10
128.5
 20
97.5
 30
0.0
 40
314.226
 41
222.18
 68
     1
 69
     1
 12
128.5
 22
97.5
 13
0.0
 23
0.0
 14
10.0
 24
10.0
 15
10.0
 25
10.0
 16
0.0
 26
0.0
 36
1.0
 17
0.0
 27
0.0
 37
0.0
 42
50.0
 43
0.0
 44
0.0
 45
222.18
 50
0.0
 51
0.0
 72
   100
 90
   557152
  1

281
     0
 71
     1
 74
     0
110
0.0
120
0.0
130
0.0
111
1.0
121
0.0
131
0.0
112
0.0
122
1.0
132
0.0
 79
     0
146
0.0
170
     0
 61
     5
348
434
292
     1
282
     1
141
0.0
142
0.0
 63
   256
361
4E7
  0
ENDSEC
  0
SECTION
  2
OBJECTS
  0
DICTIONARY
  5
412
330
0
100
AcDbDictionary
281
     1
  3
ACAD_DETAILVIEWSTYLE
350
4F8
  3
ACAD_GROUP
350
413
  3
ACAD_LAYOUT
350
41F
  3
ACAD_MATERIAL
350
448
  3
ACAD_MLEADERSTYLE
350
470
  3
ACAD_MLINESTYLE
350
41C
  3
ACAD_PLOTSETTINGS
350
41E
  3
ACAD_PLOTSTYLENAME
350
414
  3
ACAD_SCALELIST
350
44C
  3
ACAD_SECTIONVIEWSTYLE
350
4F9
  3
ACAD_TABLESTYLE
350
46E
  3
ACAD_VISUALSTYLE
350
42F
  3
ACDB_RECOMPOSE_DATA
350
4F5
  3
AcDbVariableDictionary
350
4F1
  3
QCAD_OBJECTS
350
474
  0
SUN
  5
472
330
42E
100
AcDbSun
 90
        1
290
     0
 63
     7
421
 16777215
 40
1.0
291
     1
 91
  2455826
 92
 54000000
292
     0
 70
     2
 71
   256
280
     1
  0
SUN
  5
4E7
330
4E6
100
AcDbSun
 90
        1
290
     0
 63
     7
421
 16777215
 40
1.0
291
     1
 91
  2455826
 92
 54000000
292
     0
 70
     2
 71
   256
280
     1
  0
DICTIONARY
  5
4F8
102
{ACAD_REACTORS
330
412
102
}
330
412
100
AcDbDictionary
281
     1
  0
DICTIONARY
  5
413
102
{ACAD_REACTORS
330
412
102
}
330
412
100
AcDbDictionary
281
     1
  0
DICTIONARY
  5
41F
102
{ACAD_REACTORS
330
412
102
}
330
412
100
AcDbDictionary
281
     1
  3
Layout1
350
423
  3
Model
350
427
  0
DICTIONARY
  5
448
102
{ACAD_REACTORS
330
412
102
}
330
412
100
AcDbDictionary
281
     1
  3
ByBlock
350
44A
  3
ByLayer
350
449
  3
Global
350
44B
  0
DICTIONARY
  5
470
102
{ACAD_REACTORS
330
412
102
}
330
412
100
AcDbDictionary
281
     1
  3
Standard
350
471
  0
DICTIONARY
  5
41C
102
{ACAD_REACTORS
330
412
102
}
330
412
100
AcDbDictionary
281
     1
  3
Standard
350
41D
  0
DICTIONARY
  5
41E
102
{ACAD_REACTORS
330
412
102
}
330
412
100
AcDbDictionary
281
     1
  0
ACDBDICTIONARYWDFLT
  5
414
102
{ACAD_REACTORS
330
412
102
}
330
412
100
AcDbDictionary
281
     1
  3
Normal
350
415
100
AcDbDictionaryWithDefault
340
415
  0
DICTIONARY
  5
44C
102
{ACAD_REACTORS
330
412
102
}
330
412
100
AcDbDictionary
281
     1
  3
A0
350
44D
  3
A1
350
44E
  3
A2
350
44F
  3
A3
350
450
  3
A4
350
451
  3
A5
350
452
  3
A6
350
453
  3
A7
350
454
  3
A8
350
455
  3
A9
350
456
  3
B0
350
457
  3
B1
350
458
  3
B2
350
459
  3
B3
350
45A
  3
B4
350
45B
  3
B5
350
45C
  3
B6
350
45D
  3
B7
350
45E
  3
B8
350
45F
  3
B9
350
460
  3
C0
350
461
  3
C1
350
462
  3
C2
350
463
  3
C3
350
464
  3
C4
350
465
  3
C5
350
466
  3
C6
350
467
  3
C7
350
468
  3
C8
350
469
  3
C9
350
46A
  3
D0
350
46B
  3
D1
350
46C
  3
D2
350
46D
  0
DICTIONARY
  5
4F9
102
{ACAD_REACTORS
330
412
102
}
330
412
100
AcDbDictionary
281
     1
  0
DICTIONARY
  5
46E
102
{ACAD_REACTORS
330
412
102
}
330
412
100
AcDbDictionary
281
     1
  3
Standard
350
46F
  0
DICTIONARY
  5
42F
102
{ACAD_REACTORS
330
412
102
}
330
412
100
AcDbDictionary
281
     1
  3
2dWireframe
350
434
  3
Basic
350
437
  3
Brighten
350
43B
  3
ColorChange
350
43F
  3
Conceptual
350
439
  3
Dim
350
43A
  3
EdgeColorOff
350
442
  3
Facepattern
350
43E
  3
Flat
350
430
  3
FlatWithEdges
350
431
  3
Gouraud
350
432
  3
GouraudWithEdges
350
433
  3
Hidden
350
436
  3
JitterOff
350
440
  3
Linepattern
350
43D
  3
OverhangOff
350
441
  3
Realistic
350
438
  3
Shaded
350
447
  3
Shaded with edges
350
446
  3
Shades of Gray
350
443
  3
Sketchy
350
444
  3
Thicken
350
43C
  3
Wireframe
350
435
  3
X-Ray
350
445
  0
XRECORD
  5
4F5
102
{ACAD_REACTORS
330
412
102
}
330
412
100
AcDbXrecord
280
     1
 90
        1
330
46F
  0
DICTIONARY
  5
4F1
102
{ACAD_REACTORS
330
412
102
}
330
412
100
AcDbDictionary
281
     1
  3
CANNOSCALE
350
4F2
  3
CMLEADERSTYLE
350
4F7
  3
CTABLESTYLE
350
4F6
  0
DICTIONARY
  5
474
102
{ACAD_REACTORS
330
412
102
}
330
412
100
AcDbDictionary
281
     1
  3
ColorSettings/BackgroundColor
350
476
  3
ColorSettings/ColorMode
350
477
  3
Grid/DisplayGrid00
350
478
  3
Grid/DisplayGrid01
350
479
  3
Grid/DisplayGrid02
350
47A
  3
Grid/DisplayGrid03
350
47B
  3
Grid/GridSpacingX00
350
47C
  3
Grid/GridSpacingX01
350
47D
  3
Grid/GridSpacingX02
350
47E
  3
Grid/GridSpacingX03
350
47F
  3
Grid/GridSpacingY00
350
480
  3
Grid/GridSpacingY01
350
481
  3
Grid/GridSpacingY02
350
482
  3
Grid/GridSpacingY03
350
483
  3
Grid/IsometricGrid00
350
484
  3
Grid/IsometricGrid01
350
485
  3
Grid/IsometricGrid02
350
486
  3
Grid/IsometricGrid03
350
487
  3
Grid/IsometricProjection00
350
488
  3
Grid/IsometricProjection01
350
489
  3
Grid/IsometricProjection02
350
48A
  3
Grid/IsometricProjection03
350
48B
  3
Grid/MetaGridSpacingX00
350
48C
  3
Grid/MetaGridSpacingX01
350
48D
  3
Grid/MetaGridSpacingX02
350
48E
  3
Grid/MetaGridSpacingX03
350
48F
  3
Grid/MetaGridSpacingY00
350
490
  3
Grid/MetaGridSpacingY01
350
491
  3
Grid/MetaGridSpacingY02
350
492
  3
Grid/MetaGridSpacingY03
350
493
  3
MultiPageSettings/Columns
350
494
  3
MultiPageSettings/GlueMarginsBottom
350
495
  3
MultiPageSettings/GlueMarginsLeft
350
496
  3
MultiPageSettings/GlueMarginsRight
350
497
  3
MultiPageSettings/GlueMarginsTop
350
498
  3
MultiPageSettings/PrintCropMarks
350
499
  3
MultiPageSettings/Rows
350
49A
  3
PageSettings/OffsetX
350
49B
  3
PageSettings/OffsetY
350
49C
  3
PageSettings/PageOrientation
350
49D
  3
PageSettings/PaperHeight
350
49E
  3
PageSettings/PaperWidth
350
49F
  3
PageSettings/Scale
350
4A0
  3
PageSettings/ShowPaperBorders
350
4A1
  3
PageTagSettings/EnablePageTags
350
4A2
  3
PageTagSettings/TagAlignment
350
4A3
  3
PageTagSettings/TagFont
350
4A4
  3
PageTagSettings/TagPosition
350
4A5
  3
QCADVersion
350
475
  3
UnitSettings/PaperUnit
350
4A6
  3
ViewportCenter
350
4A7
  3
ViewportHeight
350
4A8
  3
ViewportWidth
350
4A9
  0
LAYOUT
  5
423
102
{ACAD_REACTORS
330
41F
102
}
330
41F
100
AcDbPlotSettings
  1

  2
none_device
  4
ISO_A4_(210.00_x_297.00_MM)
  6

 40
7.5
 41
20.0
 42
7.5
 43
20.0
 44
210.0
 45
297.0
 46
0.0
 47
0.0
 48
0.0
 49
0.0
140
0.0
141
0.0
142
1.0
143
1.0
 70
   672
 72
     1
 73
     1
 74
     5
  7

 75
    16
 76
     0
 77
     2
 78
   300
147
1.0
148
0.0
149
0.0
100
AcDbLayout
  1
Layout1
 70
     1
 71
     0
 10
-20.0
 20
-7.5
 11
277.0
 21
202.5
 12
0.0
 22
0.0
 32
0.0
 14
0.0
 24
0.0
 34
0.0
 15
0.0
 25
0.0
 35
0.0
146
0.0
 13
0.0
 23
0.0
 33
0.0
 16
1.0
 26
0.0
 36
0.0
 17
0.0
 27
1.0
 37
0.0
 76
     0
330
420
331
4E6
  0
LAYOUT
  5
427
102
{ACAD_REACTORS
330
41F
102
}
330
41F
100
AcDbPlotSettings
  1

  2
none_device
  4
Letter_(8.50_x_11.00_Inches)
  6

 40
6.35
 41
6.35
 42
6.35000508
 43
6.35000508
 44
215.9
 45
279.4
 46
0.0
 47
0.0
 48
0.0
 49
0.0
140
0.0
141
0.0
142
1.0
143
1.0
 70
  1712
 72
     0
 73
     0
 74
     0
  7

 75
     0
 76
     0
 77
     2
 78
   300
147
1.0
148
0.0
149
0.0
100
AcDbLayout
  1
Model
 70
     1
 71
     0
 10
0.0
 20
0.0
 11
12.0
 21
9.0
 12
0.0
 22
0.0
 32
0.0
 14
-235.8284271247462
 24
-101.4107768258297
 34
0.0
 15
69.72243186433542
 25
33.97760615502915
 35
0.0
146
0.0
 13
0.0
 23
0.0
 33
0.0
 16
1.0
 26
0.0
 36
0.0
 17
0.0
 27
1.0
 37
0.0
 76
     0
330
424
331
42E
  0
MATERIAL
  5
44A
102
{ACAD_REACTORS
330
448
102
}
330
448
100
AcDbMaterial
  1
ByBlock
 72
     1
 94
      127
  0
MATERIAL
  5
449
102
{ACAD_REACTORS
330
448
102
}
330
448
100
AcDbMaterial
  1
ByLayer
 72
     1
 94
      127
  0
MATERIAL
  5
44B
102
{ACAD_REACTORS
330
448
102
}
330
448
100
AcDbMaterial
  1
Global
 72
     1
 94
      127
  0
MLEADERSTYLE
  5
471
102
{ACAD_REACTORS
330
470
102
}
330
470
100
AcDbMLeaderStyle
179
     2
170
     2
171
     1
172
     0
 90
        2
 40
0.0
 41
0.0
173
     1
 91
-1056964608
340
419
 92
       -2
290
     1
 42
0.09
291
     1
 43
0.36
  3
Standard
341
0
 44
0.18
300

342
417
174
     1
178
     6
175
     1
176
     0
 93
-1056964608
 45
0.18
292
     0
297
     0
 46
0.18
343
0
 94
-1056964608
 47
1.0
 49
1.0
140
1.0
293
     1
141
0.0
294
     1
177
     0
142
1.0
295
     0
296
     0
143
0.125
271
     0
272
     9
273
     9
298
     0
  0
MLINESTYLE
  5
41D
102
{ACAD_REACTORS
330
41C
102
}
330
41C
100
AcDbMlineStyle
  2
Standard
 70
     0
  3

 62
   256
 51
90.0
 52
90.0
 71
     2
 49
0.5
 62
   256
  6
BYLAYER
 49
-0.5
 62
   256
  6
BYLAYER
  0
ACDBPLACEHOLDER
  5
415
102
{ACAD_REACTORS
330
414
102
}
330
414
  0
SCALE
  5
44D
102
{ACAD_REACTORS
330
44C
102
}
330
44C
100
AcDbScale
 70
     0
300
1:1
140
1.0
141
1.0
290
     1
  0
SCALE
  5
44E
102
{ACAD_REACTORS
330
44C
102
}
330
44C
100
AcDbScale
 70
     0
300
1:2
140
1.0
141
2.0
290
     0
  0
SCALE
  5
44F
102
{ACAD_REACTORS
330
44C
102
}
330
44C
100
AcDbScale
 70
     0
300
1:4
140
1.0
141
4.0
290
     0
  0
SCALE
  5
450
102
{ACAD_REACTORS
330
44C
102
}
330
44C
100
AcDbScale
 70
     0
300
1:5
140
1.0
141
5.0
290
     0
  0
SCALE
  5
451
102
{ACAD_REACTORS
330
44C
102
}
330
44C
100
AcDbScale
 70
     0
300
1:8
140
1.0
141
8.0
290
     0
  0
SCALE
  5
452
102
{ACAD_REACTORS
330
44C
102
}
330
44C
100
AcDbScale
 70
     0
300
1:10
140
1.0
141
10.0
290
     0
  0
SCALE
  5
453
102
{ACAD_REACTORS
330
44C
102
}
330
44C
100
AcDbScale
 70
     0
300
1:16
140
1.0
141
16.0
290
     0
  0
SCALE
  5
454
102
{ACAD_REACTORS
330
44C
102
}
330
44C
100
AcDbScale
 70
     0
300
1:20
140
1.0
141
20.0
290
     0
  0
SCALE
  5
455
102
{ACAD_REACTORS
330
44C
102
}
330
44C
100
AcDbScale
 70
     0
300
1:30
140
1.0
141
30.0
290
     0
  0
SCALE
  5
456
102
{ACAD_REACTORS
330
44C
102
}
330
44C
100
AcDbScale
 70
     0
300
1:40
140
1.0
141
40.0
290
     0
  0
SCALE
  5
457
102
{ACAD_REACTORS
330
44C
102
}
330
44C
100
AcDbScale
 70
     0
300
1:50
140
1.0
141
50.0
290
     0
  0
SCALE
  5
458
102
{ACAD_REACTORS
330
44C
102
}
330
44C
100
AcDbScale
 70
     0
300
1:100
140
1.0
141
100.0
290
     0
  0
SCALE
  5
459
102
{ACAD_REACTORS
330
44C
102
}
330
44C
100
AcDbScale
 70
     0
300
2:1
140
2.0
141
1.0
290
     0
  0
SCALE
  5
45A
102
{ACAD_REACTORS
330
44C
102
}
330
44C
100
AcDbScale
 70
     0
300
4:1
140
4.0
141
1.0
290
     0
  0
SCALE
  5
45B
102
{ACAD_REACTORS
330
44C
102
}
330
44C
100
AcDbScale
 70
     0
300
8:1
140
8.0
141
1.0
290
     0
  0
SCALE
  5
45C
102
{ACAD_REACTORS
330
44C
102
}
330
44C
100
AcDbScale
 70
     0
300
10:1
140
10.0
141
1.0
290
     0
  0
SCALE
  5
45D
102
{ACAD_REACTORS
330
44C
102
}
330
44C
100
AcDbScale
 70
     0
300
100:1
140
100.0
141
1.0
290
     0
  0
SCALE
  5
45E
102
{ACAD_REACTORS
330
44C
102
}
330
44C
100
AcDbScale
 70
     0
300
1/128" = 1'-0"
140
0.0078125
141
12.0
290
     0
  0
SCALE
  5
45F
102
{ACAD_REACTORS
330
44C
102
}
330
44C
100
AcDbScale
 70
     0
300
1/64" = 1'-0"
140
0.015625
141
12.0
290
     0
  0
SCALE
  5
460
102
{ACAD_REACTORS
330
44C
102
}
330
44C
100
AcDbScale
 70
     0
300
1/32" = 1'-0"
140
0.03125
141
12.0
290
     0
  0
SCALE
  5
461
102
{ACAD_REACTORS
330
44C
102
}
330
44C
100
AcDbScale
 70
     0
300
1/16" = 1'-0"
140
0.0625
141
12.0
290
     0
  0
SCALE
  5
462
102
{ACAD_REACTORS
330
44C
102
}
330
44C
100
AcDbScale
 70
     0
300
3/32" = 1'-0"
140
0.09375
141
12.0
290
     0
  0
SCALE
  5
463
102
{ACAD_REACTORS
330
44C
102
}
330
44C
100
AcDbScale
 70
     0
300
1/8" = 1'-0"
140
0.125
141
12.0
290
     0
  0
SCALE
  5
464
102
{ACAD_REACTORS
330
44C
102
}
330
44C
100
AcDbScale
 70
     0
300
3/16" = 1'-0"
140
0.1875
141
12.0
290
     0
  0
SCALE
  5
465
102
{ACAD_REACTORS
330
44C
102
}
330
44C
100
AcDbScale
 70
     0
300
1/4" = 1'-0"
140
0.25
141
12.0
290
     0
  0
SCALE
  5
466
102
{ACAD_REACTORS
330
44C
102
}
330
44C
100
AcDbScale
 70
     0
300
3/8" = 1'-0"
140
0.375
141
12.0
290
     0
  0
SCALE
  5
467
102
{ACAD_REACTORS
330
44C
102
}
330
44C
100
AcDbScale
 70
     0
300
1/2" = 1'-0"
140
0.5
141
12.0
290
     0
  0
SCALE
  5
468
102
{ACAD_REACTORS
330
44C
102
}
330
44C
100
AcDbScale
 70
     0
300
3/4" = 1'-0"
140
0.75
141
12.0
290
     0
  0
SCALE
  5
469
102
{ACAD_REACTORS
330
44C
102
}
330
44C
100
AcDbScale
 70
     0
300
1" = 1'-0"
140
1.0
141
12.0
290
     0
  0
SCALE
  5
46A
102
{ACAD_REACTORS
330
44C
102
}
330
44C
100
AcDbScale
 70
     0
300
1-1/2" = 1'-0"
140
1.5
141
12.0
290
     0
  0
SCALE
  5
46B
102
{ACAD_REACTORS
330
44C
102
}
330
44C
100
AcDbScale
 70
     0
300
3" = 1'-0"
140
3.0
141
12.0
290
     0
  0
SCALE
  5
46C
102
{ACAD_REACTORS
330
44C
102
}
330
44C
100
AcDbScale
 70
     0
300
6" = 1'-0"
140
6.0
141
12.0
290
     0
  0
SCALE
  5
46D
102
{ACAD_REACTORS
330
44C
102
}
330
44C
100
AcDbScale
 70
     0
300
1'-0" = 1'-0"
140
12.0
141
12.0
290
     0
  0
TABLESTYLE
  5
46F
102
{ACAD_REACTORS
330
46E
102
}
102
{ACAD_XDICTIONARY
360
4F3
102
}
330
46E
100
AcDbTableStyle
  3
Standard
 70
     0
 71
     0
 40
0.06
 41
0.06
280
     0
281
     0
  7
Standard
140
0.18
170
     2
 62
     0
 63
   257
283
     0
 90
        4
 91
        0
  1

274
    -2
284
     1
 64
     0
275
    -2
285
     1
 65
     0
276
    -2
286
     1
 66
     0
277
    -2
287
     1
 67
     0
278
    -2
288
     1
 68
     0
279
    -2
289
     1
 69
     0
  7
Standard
140
0.25
170
     5
 62
     0
 63
   257
283
     0
 90
        4
 91
        0
  1

274
    -2
284
     1
 64
     0
275
    -2
285
     1
 65
     0
276
    -2
286
     1
 66
     0
277
    -2
287
     1
 67
     0
278
    -2
288
     1
 68
     0
279
    -2
289
     1
 69
     0
  7
Standard
140
0.18
170
     5
 62
     0
 63
   257
283
     0
 90
        4
 91
        0
  1

274
    -2
284
     1
 64
     0
275
    -2
285
     1
 65
     0
276
    -2
286
     1
 66
     0
277
    -2
287
     1
 67
     0
278
    -2
288
     1
 68
     0
279
    -2
289
     1
 69
     0
  0
VISUALSTYLE
  5
434
102
{ACAD_REACTORS
330
42F
102
}
330
42F
100
AcDbVisualStyle
  2
2dWireframe
 70
     4
177
     3
291
     0
 70
    58
 90
        0
176
     1
 90
        2
176
     1
 90
        0
176
     1
 90
        0
176
     1
 40
0.6
176
     1
 40
30.0
176
     1
 62
     7
420
 16777215
176
     1
 90
        1
176
     1
 90
        4
176
     1
 62
     7
176
     1
 62
   257
176
     1
 90
        1
176
     1
 90
        1
176
     1
 40
1.0
176
     1
 90
        0
176
     1
 62
   257
176
     1
 40
1.0
176
     1
 90
        1
176
     1
 90
        6
176
     1
 90
        2
176
     1
 62
     7
176
     1
 90
        5
176
     1
 90
        0
176
     1
 90
        0
176
     1
290
     0
176
     1
 90
        1
176
     1
 40
0.0
176
     1
 90
        0
176
     1
290
     1
176
     1
290
     1
176
     1
290
     0
176
     1
290
     0
176
     1
290
     0
176
     1
290
     0
176
     1
290
     0
176
     1
290
     0
176
     1
290
     0
176
     1
 90
       50
176
     1
 40
0.0
176
     1
 40
1.0
176
     1
 90
        0
176
     1
 62
    18
420
        0
176
     1
 90
       50
176
     1
 90
        3
176
     1
 62
     5
420
      255
176
     1
290
     0
176
     1
 90
       50
176
     1
 90
       50
176
     1
 90
       50
176
     1
290
     0
176
     1
 90
       50
176
     1
 62
   256
176
     0
 40
1.0
176
     0
 90
        2
176
     1
  1
strokes_ogs.tif
176
     1
290
     0
176
     1
 40
1.0
176
     1
 40
1.0
176
     1
  0
VISUALSTYLE
  5
437
102
{ACAD_REACTORS
330
42F
102
}
330
42F
100
AcDbVisualStyle
  2
Basic
 70
     7
177
     3
291
     1
 70
    58
 90
        1
176
     1
 90
        0
176
     1
 90
        1
176
     1
 90
        0
176
     1
 40
0.6
176
     1
 40
30.0
176
     1
 62
     7
420
 16777215
176
     1
 90
        0
176
     1
 90
        4
176
     1
 62
     7
176
     1
 62
   257
176
     1
 90
        1
176
     1
 90
        1
176
     1
 40
1.0
176
     1
 90
        8
176
     1
 62
     7
176
     1
 40
1.0
176
     1
 90
        1
176
     1
 90
        6
176
     1
 90
        2
176
     1
 62
     7
176
     1
 90
        5
176
     1
 90
        0
176
     1
 90
        0
176
     1
290
     0
176
     1
 90
        1
176
     1
 40
0.0
176
     1
 90
        0
176
     1
290
     0
176
     1
290
     1
176
     1
290
     1
176
     1
290
     0
176
     1
290
     0
176
     1
290
     0
176
     1
290
     0
176
     1
290
     0
176
     1
290
     0
176
     1
 90
       50
176
     1
 40
0.0
176
     1
 40
1.0
176
     1
 90
        0
176
     1
 62
    18
420
        0
176
     1
 90
       50
176
     1
 90
        3
176
     1
 62
     5
420
      255
176
     1
290
     0
176
     1
 90
       50
176
     1
 90
       50
176
     1
 90
       50
176
     1
290
     0
176
     1
 90
       50
176
     1
 62
   256
176
     0
 40
1.0
176
     0
 90
        2
176
     1
  1
strokes_ogs.tif
176
     1
290
     0
176
     1
 40
1.0
176
     1
 40
1.0
176
     1
  0
VISUALSTYLE
  5
43B
102
{ACAD_REACTORS
330
42F
102
}
330
42F
100
AcDbVisualStyle
  2
Brighten
 70
    12
177
     3
291
     1
 70
    58
 90
        2
176
     1
 90
        2
176
     1
 90
        0
176
     1
 90
        0
176
     1
 40
0.6
176
     1
 40
30.0
176
     1
 62
     7
420
 16777215
176
     1
 90
        1
176
     1
 90
        4
176
     1
 62
     7
176
     1
 62
   257
176
     1
 90
        1
176
     1
 90
        1
176
     1
 40
1.0
176
     1
 90
        8
176
     1
 62
     7
176
     1
 40
1.0
176
     1
 90
        1
176
     1
 90
        6
176
     1
 90
        2
176
     1
 62
     7
176
     1
 90
        5
176
     1
 90
        0
176
     1
 90
        0
176
     1
290
     0
176
     1
 90
        1
176
     1
 40
50.0
176
     1
 90
        0
176
     1
290
     0
176
     1
290
     1
176
     1
290
     1
176
     1
290
     0
176
     1
290
     0
176
     1
290
     0
176
     1
290
     0
176
     1
290
     0
176
     1
290
     0
176
     1
 90
       50
176
     1
 40
0.0
176
     1
 40
1.0
176
     1
 90
        0
176
     1
 62
    18
420
        0
176
     1
 90
       50
176
     1
 90
        3
176
     1
 62
     5
420
      255
176
     1
290
     0
176
     1
 90
       50
176
     1
 90
       50
176
     1
 90
       50
176
     1
290
     0
176
     1
 90
       50
176
     1
 62
   256
176
     0
 40
1.0
176
     0
 90
        2
176
     1
  1
strokes_ogs.tif
176
     1
290
     0
176
     1
 40
1.0
176
     1
 40
1.0
176
     1
  0
VISUALSTYLE
  5
43F
102
{ACAD_REACTORS
330
42F
102
}
330
42F
100
AcDbVisualStyle
  2
ColorChange
 70
    16
177
     3
291
     1
 70
    58
 90
        2
176
     1
 90
        2
176
     1
 90
        3
176
     1
 90
        0
176
     1
 40
0.6
176
     1
 40
30.0
176
     1
 62
     8
420
  8421504
176
     1
 90
        1
176
     1
 90
        4
176
     1
 62
     7
176
     1
 62
   257
176
     1
 90
        1
176
     1
 90
        1
176
     1
 40
1.0
176
     1
 90
        8
176
     1
 62
     8
420
  8421504
176
     1
 40
1.0
176
     1
 90
        1
176
     1
 90
        6
176
     1
 90
        2
176
     1
 62
     7
176
     1
 90
        5
176
     1
 90
        0
176
     1
 90
        0
176
     1
290
     0
176
     1
 90
        1
176
     1
 40
0.0
176
     1
 90
        0
176
     1
290
     0
176
     1
290
     1
176
     1
290
     1
176
     1
290
     0
176
     1
290
     0
176
     1
290
     0
176
     1
290
     0
176
     1
290
     0
176
     1
290
     0
176
     1
 90
       50
176
     1
 40
0.0
176
     1
 40
1.0
176
     1
 90
        0
176
     1
 62
    18
420
        0
176
     1
 90
       50
176
     1
 90
        3
176
     1
 62
     5
420
      255
176
     1
290
     0
176
     1
 90
       50
176
     1
 90
       50
176
     1
 90
       50
176
     1
290
     0
176
     1
 90
       50
176
     1
 62
   256
176
     0
 40
1.0
176
     0
 90
        2
176
     1
  1
strokes_ogs.tif
176
     1
290
     0
176
     1
 40
1.0
176
     1
 40
1.0
176
     1
  0
VISUALSTYLE
  5
439
102
{ACAD_REACTORS
330
42F
102
}
330
42F
100
AcDbVisualStyle
  2
Conceptual
 70
     9
177
     3
291
     0
 70
    58
 90
        3
176
     1
 90
        2
176
     1
 90
        0
176
     1
 90
        0
176
     1
 40
0.6
176
     1
 40
30.0
176
     1
 62
     7
420
 16777215
176
     1
 90
        2
176
     1
 90
        2
176
     1
 62
     7
176
     1
 62
   257
176
     1
 90
        1
176
     1
 90
        1
176
     1
 40
179.0
176
     1
 90
        8
176
     1
 62
     7
176
     1
 40
1.0
176
     1
 90
        1
176
     1
 90
        6
176
     1
 90
        2
176
     1
 62
     7
176
     1
 90
        3
176
     1
 90
        0
176
     1
 90
        0
176
     1
290
     0
176
     1
 90
        1
176
     1
 40
0.0
176
     1
 90
        0
176
     1
290
     0
176
     1
290
     1
176
     1
290
     1
176
     1
290
     0
176
     1
290
     0
176
     1
290
     0
176
     1
290
     0
176
     1
290
     0
176
     1
290
     0
176
     1
 90
       50
176
     1
 40
0.0
176
     1
 40
1.0
176
     1
 90
        0
176
     1
 62
    18
420
        0
176
     1
 90
       50
176
     1
 90
        3
176
     1
 62
     5
420
      255
176
     1
290
     0
176
     1
 90
       50
176
     1
 90
       50
176
     1
 90
       50
176
     1
290
     0
176
     1
 90
       50
176
     1
 62
   256
176
     0
 40
1.0
176
     0
 90
        2
176
     1
  1
strokes_ogs.tif
176
     1
290
     0
176
     1
 40
1.0
176
     1
 40
1.0
176
     1
  0
VISUALSTYLE
  5
43A
102
{ACAD_REACTORS
330
42F
102
}
330
42F
100
AcDbVisualStyle
  2
Dim
 70
    11
177
     3
291
     1
 70
    58
 90
        2
176
     1
 90
        2
176
     1
 90
        0
176
     1
 90
        0
176
     1
 40
0.6
176
     1
 40
30.0
176
     1
 62
     7
420
 16777215
176
     1
 90
        1
176
     1
 90
        4
176
     1
 62
     7
176
     1
 62
   257
176
     1
 90
        1
176
     1
 90
        1
176
     1
 40
1.0
176
     1
 90
        8
176
     1
 62
     7
176
     1
 40
1.0
176
     1
 90
        1
176
     1
 90
        6
176
     1
 90
        2
176
     1
 62
     7
176
     1
 90
        5
176
     1
 90
        0
176
     1
 90
        0
176
     1
290
     0
176
     1
 90
        1
176
     1
 40
-50.0
176
     1
 90
        0
176
     1
290
     0
176
     1
290
     1
176
     1
290
     1
176
     1
290
     0
176
     1
290
     0
176
     1
290
     0
176
     1
290
     0
176
     1
290
     0
176
     1
290
     0
176
     1
 90
       50
176
     1
 40
0.0
176
     1
 40
1.0
176
     1
 90
        0
176
     1
 62
    18
420
        0
176
     1
 90
       50
176
     1
 90
        3
176
     1
 62
     5
420
      255
176
     1
290
     0
176
     1
 90
       50
176
     1
 90
       50
176
     1
 90
       50
176
     1
290
     0
176
     1
 90
       50
176
     1
 62
   256
176
     0
 40
1.0
176
     0
 90
        2
176
     1
  1
strokes_ogs.tif
176
     1
290
     0
176
     1
 40
1.0
176
     1
 40
1.0
176
     1
  0
VISUALSTYLE
  5
442
102
{ACAD_REACTORS
330
42F
102
}
330
42F
100
AcDbVisualStyle
  2
EdgeColorOff
 70
    22
177
     3
291
     1
 70
    58
 90
        2
176
     0
 90
        2
176
     0
 90
        0
176
     0
 90
        0
176
     0
 40
0.6
176
     0
 40
30.0
176
     0
 62
     7
420
 16777215
176
     0
 90
        1
176
     0
 90
        4
176
     0
 62
     7
176
     0
 62
   257
176
     0
 90
        1
176
     0
 90
        1
176
     0
 40
1.0
176
     0
 90
        8
176
     2
 62
     7
176
     0
 40
1.0
176
     0
 90
        1
176
     0
 90
        6
176
     0
 90
        2
176
     0
 62
     7
176
     0
 90
        5
176
     0
 90
        0
176
     0
 90
        0
176
     0
290
     0
176
     0
 90
        1
176
     0
 40
0.0
176
     0
 90
        0
176
     0
290
     0
176
     0
290
     1
176
     0
290
     1
176
     0
290
     0
176
     0
290
     0
176
     0
290
     0
176
     0
290
     0
176
     0
290
     0
176
     0
290
     0
176
     0
 90
       50
176
     0
 40
0.0
176
     0
 40
1.0
176
     0
 90
        0
176
     0
 62
    18
420
        0
176
     0
 90
       50
176
     0
 90
        3
176
     0
 62
     5
420
      255
176
     0
290
     0
176
     0
 90
       50
176
     0
 90
       50
176
     0
 90
       50
176
     0
290
     0
176
     0
 90
       50
176
     0
 62
   256
176
     0
 40
1.0
176
     0
 90
        2
176
     0
  1
strokes_ogs.tif
176
     0
290
     0
176
     0
 40
1.0
176
     0
 40
1.0
176
     0
  0
VISUALSTYLE
  5
43E
102
{ACAD_REACTORS
330
42F
102
}
330
42F
100
AcDbVisualStyle
  2
Facepattern
 70
    15
177
     3
291
     1
 70
    58
 90
        2
176
     1
 90
        2
176
     1
 90
        0
176
     1
 90
        0
176
     1
 40
0.6
176
     1
 40
30.0
176
     1
 62
     7
420
 16777215
176
     1
 90
        1
176
     1
 90
        4
176
     1
 62
     7
176
     1
 62
   257
176
     1
 90
        1
176
     1
 90
        1
176
     1
 40
1.0
176
     1
 90
        8
176
     1
 62
     7
176
     1
 40
1.0
176
     1
 90
        1
176
     1
 90
        6
176
     1
 90
        2
176
     1
 62
     7
176
     1
 90
        5
176
     1
 90
        0
176
     1
 90
        0
176
     1
290
     0
176
     1
 90
        1
176
     1
 40
0.0
176
     1
 90
        0
176
     1
290
     0
176
     1
290
     1
176
     1
290
     1
176
     1
290
     0
176
     1
290
     0
176
     1
290
     0
176
     1
290
     0
176
     1
290
     0
176
     1
290
     0
176
     1
 90
       50
176
     1
 40
0.0
176
     1
 40
1.0
176
     1
 90
        0
176
     1
 62
    18
420
        0
176
     1
 90
       50
176
     1
 90
        3
176
     1
 62
     5
420
      255
176
     1
290
     0
176
     1
 90
       50
176
     1
 90
       50
176
     1
 90
       50
176
     1
290
     0
176
     1
 90
       50
176
     1
 62
   256
176
     0
 40
1.0
176
     0
 90
        2
176
     1
  1
strokes_ogs.tif
176
     1
290
     0
176
     1
 40
1.0
176
     1
 40
1.0
176
     1
  0
VISUALSTYLE
  5
430
102
{ACAD_REACTORS
330
42F
102
}
330
42F
100
AcDbVisualStyle
  2
Flat
 70
     0
177
     3
291
     1
 70
    58
 90
        2
176
     1
 90
        1
176
     1
 90
        1
176
     1
 90
        2
176
     1
 40
0.6
176
     1
 40
30.0
176
     1
 62
     7
420
 16777215
176
     1
 90
        0
176
     1
 90
        0
176
     1
 62
     7
176
     1
 62
   257
176
     1
 90
        1
176
     1
 90
        1
176
     1
 40
1.0
176
     1
 90
        8
176
     1
 62
     7
176
     1
 40
1.0
176
     1
 90
        1
176
     1
 90
        6
176
     1
 90
        2
176
     1
 62
     7
176
     1
 90
        5
176
     1
 90
        0
176
     1
 90
        0
176
     1
290
     0
176
     1
 90
       13
176
     1
 40
0.0
176
     1
 90
        0
176
     1
290
     0
176
     1
290
     1
176
     1
290
     1
176
     1
290
     0
176
     1
290
     0
176
     1
290
     0
176
     1
290
     0
176
     1
290
     0
176
     1
290
     0
176
     1
 90
       50
176
     1
 40
0.0
176
     1
 40
1.0
176
     1
 90
        0
176
     1
 62
    18
420
        0
176
     1
 90
       50
176
     1
 90
        3
176
     1
 62
     5
420
      255
176
     1
290
     0
176
     1
 90
       50
176
     1
 90
       50
176
     1
 90
       50
176
     1
290
     0
176
     1
 90
       50
176
     1
 62
   256
176
     0
 40
1.0
176
     0
 90
        2
176
     1
  1
strokes_ogs.tif
176
     1
290
     0
176
     1
 40
1.0
176
     1
 40
1.0
176
     1
  0
VISUALSTYLE
  5
431
102
{ACAD_REACTORS
330
42F
102
}
330
42F
100
AcDbVisualStyle
  2
FlatWithEdges
 70
     1
177
     3
291
     1
 70
    58
 90
        2
176
     1
 90
        1
176
     1
 90
        1
176
     1
 90
        2
176
     1
 40
0.6
176
     1
 40
30.0
176
     1
 62
     7
420
 16777215
176
     1
 90
        1
176
     1
 90
        0
176
     1
 62
     7
176
     1
 62
   257
176
     1
 90
        1
176
     1
 90
        1
176
     1
 40
1.0
176
     1
 90
        0
176
     1
 62
   257
176
     1
 40
1.0
176
     1
 90
        1
176
     1
 90
        6
176
     1
 90
        2
176
     1
 62
     7
176
     1
 90
        5
176
     1
 90
        0
176
     1
 90
        0
176
     1
290
     0
176
     1
 90
       13
176
     1
 40
0.0
176
     1
 90
        0
176
     1
290
     0
176
     1
290
     1
176
     1
290
     1
176
     1
290
     0
176
     1
290
     0
176
     1
290
     0
176
     1
290
     0
176
     1
290
     0
176
     1
290
     0
176
     1
 90
       50
176
     1
 40
0.0
176
     1
 40
1.0
176
     1
 90
        0
176
     1
 62
    18
420
        0
176
     1
 90
       50
176
     1
 90
        3
176
     1
 62
     5
420
      255
176
     1
290
     0
176
     1
 90
       50
176
     1
 90
       50
176
     1
 90
       50
176
     1
290
     0
176
     1
 90
       50
176
     1
 62
   256
176
     0
 40
1.0
176
     0
 90
        2
176
     1
  1
strokes_ogs.tif
176
     1
290
     0
176
     1
 40
1.0
176
     1
 40
1.0
176
     1
  0
VISUALSTYLE
  5
432
102
{ACAD_REACTORS
330
42F
102
}
330
42F
100
AcDbVisualStyle
  2
Gouraud
 70
     2
177
     3
291
     1
 70
    58
 90
        2
176
     1
 90
        2
176
     1
 90
        1
176
     1
 90
        2
176
     1
 40
0.6
176
     1
 40
30.0
176
     1
 62
     7
420
 16777215
176
     1
 90
        0
176
     1
 90
        0
176
     1
 62
     7
176
     1
 62
   257
176
     1
 90
        1
176
     1
 90
        1
176
     1
 40
1.0
176
     1
 90
        0
176
     1
 62
     7
176
     1
 40
1.0
176
     1
 90
        1
176
     1
 90
        6
176
     1
 90
        2
176
     1
 62
     7
176
     1
 90
        5
176
     1
 90
        0
176
     1
 90
        0
176
     1
290
     0
176
     1
 90
       13
176
     1
 40
0.0
176
     1
 90
        0
176
     1
290
     0
176
     1
290
     1
176
     1
290
     1
176
     1
290
     0
176
     1
290
     0
176
     1
290
     0
176
     1
290
     0
176
     1
290
     0
176
     1
290
     0
176
     1
 90
       50
176
     1
 40
0.0
176
     1
 40
1.0
176
     1
 90
        0
176
     1
 62
    18
420
        0
176
     1
 90
       50
176
     1
 90
        3
176
     1
 62
     5
420
      255
176
     1
290
     0
176
     1
 90
       50
176
     1
 90
       50
176
     1
 90
       50
176
     1
290
     0
176
     1
 90
       50
176
     1
 62
   256
176
     0
 40
1.0
176
     0
 90
        2
176
     1
  1
strokes_ogs.tif
176
     1
290
     0
176
     1
 40
1.0
176
     1
 40
1.0
176
     1
  0
VISUALSTYLE
  5
433
102
{ACAD_REACTORS
330
42F
102
}
330
42F
100
AcDbVisualStyle
  2
GouraudWithEdges
 70
     3
177
     3
291
     1
 70
    58
 90
        2
176
     1
 90
        2
176
     1
 90
        1
176
     1
 90
        2
176
     1
 40
0.6
176
     1
 40
30.0
176
     1
 62
     7
420
 16777215
176
     1
 90
        1
176
     1
 90
        0
176
     1
 62
     7
176
     1
 62
   257
176
     1
 90
        1
176
     1
 90
        1
176
     1
 40
1.0
176
     1
 90
        0
176
     1
 62
   257
176
     1
 40
1.0
176
     1
 90
        1
176
     1
 90
        6
176
     1
 90
        2
176
     1
 62
     7
176
     1
 90
        5
176
     1
 90
        0
176
     1
 90
        0
176
     1
290
     0
176
     1
 90
       13
176
     1
 40
0.0
176
     1
 90
        0
176
     1
290
     0
176
     1
290
     1
176
     1
290
     1
176
     1
290
     0
176
     1
290
     0
176
     1
290
     0
176
     1
290
     0
176
     1
290
     0
176
     1
290
     0
176
     1
 90
       50
176
     1
 40
0.0
176
     1
 40
1.0
176
     1
 90
        0
176
     1
 62
    18
420
        0
176
     1
 90
       50
176
     1
 90
        3
176
     1
 62
     5
420
      255
176
     1
290
     0
176
     1
 90
       50
176
     1
 90
       50
176
     1
 90
       50
176
     1
290
     0
176
     1
 90
       50
176
     1
 62
   256
176
     0
 40
1.0
176
     0
 90
        2
176
     1
  1
strokes_ogs.tif
176
     1
290
     0
176
     1
 40
1.0
176
     1
 40
1.0
176
     1
  0
VISUALSTYLE
  5
436
102
{ACAD_REACTORS
330
42F
102
}
330
42F
100
AcDbVisualStyle
  2
Hidden
 70
     6
177
     3
291
     0
 70
    58
 90
        1
176
     1
 90
        2
176
     1
 90
        2
176
     1
 90
        0
176
     1
 40
0.6
176
     1
 40
30.0
176
     1
 62
     7
420
 16777215
176
     1
 90
        2
176
     1
 90
        2
176
     1
 62
     7
176
     1
 62
   257
176
     1
 90
        2
176
     1
 90
        1
176
     1
 40
40.0
176
     1
 90
        0
176
     1
 62
   257
176
     1
 40
1.0
176
     1
 90
        1
176
     1
 90
        6
176
     1
 90
        2
176
     1
 62
     7
176
     1
 90
        3
176
     1
 90
        0
176
     1
 90
        0
176
     1
290
     0
176
     1
 90
        1
176
     1
 40
0.0
176
     1
 90
        0
176
     1
290
     0
176
     1
290
     1
176
     1
290
     1
176
     1
290
     0
176
     1
290
     0
176
     1
290
     0
176
     1
290
     0
176
     1
290
     0
176
     1
290
     0
176
     1
 90
       50
176
     1
 40
0.0
176
     1
 40
1.0
176
     1
 90
        0
176
     1
 62
    18
420
        0
176
     1
 90
       50
176
     1
 90
        3
176
     1
 62
     5
420
      255
176
     1
290
     0
176
     1
 90
       50
176
     1
 90
       50
176
     1
 90
       50
176
     1
290
     0
176
     1
 90
       50
176
     1
 62
   256
176
     0
 40
1.0
176
     0
 90
        2
176
     1
  1
strokes_ogs.tif
176
     1
290
     0
176
     1
 40
1.0
176
     1
 40
1.0
176
     1
  0
VISUALSTYLE
  5
440
102
{ACAD_REACTORS
330
42F
102
}
330
42F
100
AcDbVisualStyle
  2
JitterOff
 70
    20
177
     3
291
     1
 70
    58
 90
        2
176
     0
 90
        2
176
     0
 90
        0
176
     0
 90
        0
176
     0
 40
0.6
176
     0
 40
30.0
176
     0
 62
     7
420
 16777215
176
     0
 90
        1
176
     0
 90
        4
176
     0
 62
     7
176
     0
 62
   257
176
     0
 90
        1
176
     0
 90
        1
176
     0
 40
1.0
176
     0
 90
       10
176
     2
 62
     7
176
     0
 40
1.0
176
     0
 90
        1
176
     0
 90
        6
176
     0
 90
        2
176
     0
 62
     7
176
     0
 90
        5
176
     0
 90
        0
176
     0
 90
        0
176
     0
290
     0
176
     0
 90
        1
176
     0
 40
0.0
176
     0
 90
        0
176
     0
290
     0
176
     0
290
     1
176
     0
290
     1
176
     0
290
     0
176
     0
290
     0
176
     0
290
     0
176
     0
290
     0
176
     0
290
     0
176
     0
290
     0
176
     0
 90
       50
176
     0
 40
0.0
176
     0
 40
1.0
176
     0
 90
        0
176
     0
 62
    18
420
        0
176
     0
 90
       50
176
     0
 90
        3
176
     0
 62
     5
420
      255
176
     0
290
     0
176
     0
 90
       50
176
     0
 90
       50
176
     0
 90
       50
176
     0
290
     0
176
     0
 90
       50
176
     0
 62
   256
176
     0
 40
1.0
176
     0
 90
        2
176
     0
  1
strokes_ogs.tif
176
     0
290
     0
176
     0
 40
1.0
176
     0
 40
1.0
176
     0
  0
VISUALSTYLE
  5
43D
102
{ACAD_REACTORS
330
42F
102
}
330
42F
100
AcDbVisualStyle
  2
Linepattern
 70
    14
177
     3
291
     1
 70
    58
 90
        2
176
     1
 90
        2
176
     1
 90
        0
176
     1
 90
        0
176
     1
 40
0.6
176
     1
 40
30.0
176
     1
 62
     7
420
 16777215
176
     1
 90
        1
176
     1
 90
        4
176
     1
 62
     7
176
     1
 62
   257
176
     1
 90
        7
176
     1
 90
        7
176
     1
 40
1.0
176
     1
 90
        8
176
     1
 62
     7
176
     1
 40
1.0
176
     1
 90
        1
176
     1
 90
        6
176
     1
 90
        2
176
     1
 62
     7
176
     1
 90
        5
176
     1
 90
        0
176
     1
 90
        0
176
     1
290
     0
176
     1
 90
        1
176
     1
 40
0.0
176
     1
 90
        0
176
     1
290
     0
176
     1
290
     1
176
     1
290
     1
176
     1
290
     0
176
     1
290
     0
176
     1
290
     0
176
     1
290
     0
176
     1
290
     0
176
     1
290
     0
176
     1
 90
       50
176
     1
 40
0.0
176
     1
 40
1.0
176
     1
 90
        0
176
     1
 62
    18
420
        0
176
     1
 90
       50
176
     1
 90
        3
176
     1
 62
     5
420
      255
176
     1
290
     0
176
     1
 90
       50
176
     1
 90
       50
176
     1
 90
       50
176
     1
290
     0
176
     1
 90
       50
176
     1
 62
   256
176
     0
 40
1.0
176
     0
 90
        2
176
     1
  1
strokes_ogs.tif
176
     1
290
     0
176
     1
 40
1.0
176
     1
 40
1.0
176
     1
  0
VISUALSTYLE
  5
441
102
{ACAD_REACTORS
330
42F
102
}
330
42F
100
AcDbVisualStyle
  2
OverhangOff
 70
    21
177
     3
291
     1
 70
    58
 90
        2
176
     0
 90
        2
176
     0
 90
        0
176
     0
 90
        0
176
     0
 40
0.6
176
     0
 40
30.0
176
     0
 62
     7
420
 16777215
176
     0
 90
        1
176
     0
 90
        4
176
     0
 62
     7
176
     0
 62
   257
176
     0
 90
        1
176
     0
 90
        1
176
     0
 40
1.0
176
     0
 90
        9
176
     2
 62
     7
176
     0
 40
1.0
176
     0
 90
        1
176
     0
 90
        6
176
     0
 90
        2
176
     0
 62
     7
176
     0
 90
        5
176
     0
 90
        0
176
     0
 90
        0
176
     0
290
     0
176
     0
 90
        1
176
     0
 40
0.0
176
     0
 90
        0
176
     0
290
     0
176
     0
290
     1
176
     0
290
     1
176
     0
290
     0
176
     0
290
     0
176
     0
290
     0
176
     0
290
     0
176
     0
290
     0
176
     0
290
     0
176
     0
 90
       50
176
     0
 40
0.0
176
     0
 40
1.0
176
     0
 90
        0
176
     0
 62
    18
420
        0
176
     0
 90
       50
176
     0
 90
        3
176
     0
 62
     5
420
      255
176
     0
290
     0
176
     0
 90
       50
176
     0
 90
       50
176
     0
 90
       50
176
     0
290
     0
176
     0
 90
       50
176
     0
 62
   256
176
     0
 40
1.0
176
     0
 90
        2
176
     0
  1
strokes_ogs.tif
176
     0
290
     0
176
     0
 40
1.0
176
     0
 40
1.0
176
     0
  0
VISUALSTYLE
  5
438
102
{ACAD_REACTORS
330
42F
102
}
330
42F
100
AcDbVisualStyle
  2
Realistic
 70
     8
177
     3
291
     0
 70
    58
 90
        2
176
     1
 90
        3
176
     1
 90
        0
176
     1
 90
        2
176
     1
 40
0.6
176
     1
 40
30.0
176
     1
 62
     7
420
 16777215
176
     1
 90
        0
176
     1
 90
        0
176
     1
 62
     7
176
     1
 62
   257
176
     1
 90
        1
176
     1
 90
        1
176
     1
 40
1.0
176
     1
 90
        8
176
     1
 62
   257
176
     1
 40
1.0
176
     1
 90
        1
176
     1
 90
        6
176
     1
 90
        2
176
     1
 62
     7
176
     1
 90
        3
176
     1
 90
        0
176
     1
 90
        0
176
     1
290
     0
176
     1
 90
       13
176
     1
 40
0.0
176
     1
 90
        0
176
     1
290
     0
176
     1
290
     1
176
     1
290
     1
176
     1
290
     0
176
     1
290
     0
176
     1
290
     0
176
     1
290
     0
176
     1
290
     0
176
     1
290
     0
176
     1
 90
       50
176
     1
 40
0.0
176
     1
 40
1.0
176
     1
 90
        0
176
     1
 62
    18
420
        0
176
     1
 90
       50
176
     1
 90
        3
176
     1
 62
     5
420
      255
176
     1
290
     0
176
     1
 90
       50
176
     1
 90
       50
176
     1
 90
       50
176
     1
290
     0
176
     1
 90
       50
176
     1
 62
   256
176
     0
 40
1.0
176
     0
 90
        2
176
     1
  1
strokes_ogs.tif
176
     1
290
     0
176
     1
 40
1.0
176
     1
 40
1.0
176
     1
  0
VISUALSTYLE
  5
447
102
{ACAD_REACTORS
330
42F
102
}
330
42F
100
AcDbVisualStyle
  2
Shaded
 70
    27
177
     3
291
     0
 70
    58
 90
        2
176
     1
 90
        2
176
     1
 90
        1
176
     1
 90
        2
176
     1
 40
0.6
176
     1
 40
30.0
176
     1
 62
     7
420
 16777215
176
     1
 90
        0
176
     1
 90
        4
176
     1
 62
     7
176
     1
 62
   257
176
     1
 90
        1
176
     1
 90
        1
176
     1
 40
1.0
176
     1
 90
        8
176
     1
 62
   257
176
     1
 40
1.0
176
     1
 90
        1
176
     1
 90
        6
176
     1
 90
        2
176
     1
 62
     8
420
  7895160
176
     1
 90
        3
176
     1
 90
        0
176
     1
 90
        0
176
     1
290
     0
176
     1
 90
        5
176
     1
 40
0.0
176
     1
 90
        0
176
     1
290
     0
176
     1
290
     1
176
     1
290
     1
176
     1
290
     0
176
     1
290
     0
176
     1
290
     0
176
     1
290
     0
176
     1
290
     0
176
     1
290
     0
176
     1
 90
       50
176
     1
 40
0.0
176
     1
 40
1.0
176
     1
 90
        0
176
     1
 62
    18
420
        0
176
     1
 90
       50
176
     1
 90
        3
176
     1
 62
     5
420
      255
176
     1
290
     0
176
     1
 90
       50
176
     1
 90
       50
176
     1
 90
       50
176
     1
290
     0
176
     1
 90
       50
176
     1
 62
   256
176
     0
 40
1.0
176
     0
 90
        2
176
     1
  1
strokes_ogs.tif
176
     1
290
     0
176
     1
 40
1.0
176
     1
 40
1.0
176
     1
  0
VISUALSTYLE
  5
446
102
{ACAD_REACTORS
330
42F
102
}
330
42F
100
AcDbVisualStyle
  2
Shaded with edges
 70
    26
177
     3
291
     0
 70
    58
 90
        2
176
     1
 90
        2
176
     1
 90
        1
176
     1
 90
        2
176
     1
 40
0.6
176
     1
 40
30.0
176
     1
 62
     7
420
 16777215
176
     1
 90
        1
176
     1
 90
       10
176
     1
 62
     7
176
     1
 62
   257
176
     1
 90
        2
176
     1
 90
        1
176
     1
 40
1.0
176
     1
 90
        8
176
     1
 62
   257
176
     1
 40
1.0
176
     1
 90
        1
176
     1
 90
        6
176
     1
 90
        2
176
     1
 62
     7
176
     1
 90
        3
176
     1
 90
        0
176
     1
 90
        0
176
     1
290
     0
176
     1
 90
        5
176
     1
 40
0.0
176
     1
 90
        0
176
     1
290
     0
176
     1
290
     1
176
     1
290
     1
176
     1
290
     0
176
     1
290
     0
176
     1
290
     0
176
     1
290
     0
176
     1
290
     0
176
     1
290
     0
176
     1
 90
       50
176
     1
 40
0.0
176
     1
 40
1.0
176
     1
 90
        0
176
     1
 62
    18
420
        0
176
     1
 90
       50
176
     1
 90
        3
176
     1
 62
     5
420
      255
176
     1
290
     0
176
     1
 90
       50
176
     1
 90
       50
176
     1
 90
       50
176
     1
290
     0
176
     1
 90
       50
176
     1
 62
   256
176
     0
 40
1.0
176
     0
 90
        2
176
     1
  1
strokes_ogs.tif
176
     1
290
     0
176
     1
 40
1.0
176
     1
 40
1.0
176
     1
  0
VISUALSTYLE
  5
443
102
{ACAD_REACTORS
330
42F
102
}
330
42F
100
AcDbVisualStyle
  2
Shades of Gray
 70
    23
177
     3
291
     0
 70
    58
 90
        2
176
     1
 90
        2
176
     1
 90
        3
176
     1
 90
        0
176
     1
 40
0.6
176
     1
 40
30.0
176
     1
 62
     7
420
 16777215
176
     1
 90
        2
176
     1
 90
        2
176
     1
 62
     7
176
     1
 62
     7
176
     1
 90
        1
176
     1
 90
        1
176
     1
 40
40.0
176
     1
 90
        8
176
     1
 62
     7
176
     1
 40
1.0
176
     1
 90
        1
176
     1
 90
        6
176
     1
 90
        2
176
     1
 62
     7
176
     1
 90
        3
176
     1
 90
        0
176
     1
 90
        0
176
     1
290
     0
176
     1
 90
        1
176
     1
 40
0.0
176
     1
 90
        0
176
     1
290
     0
176
     1
290
     1
176
     1
290
     1
176
     1
290
     0
176
     1
290
     0
176
     1
290
     0
176
     1
290
     0
176
     1
290
     0
176
     1
290
     0
176
     1
 90
       50
176
     1
 40
0.0
176
     1
 40
1.0
176
     1
 90
        0
176
     1
 62
    18
420
        0
176
     1
 90
       50
176
     1
 90
        3
176
     1
 62
     5
420
      255
176
     1
290
     0
176
     1
 90
       50
176
     1
 90
       50
176
     1
 90
       50
176
     1
290
     0
176
     1
 90
       50
176
     1
 62
   256
176
     0
 40
1.0
176
     0
 90
        2
176
     1
  1
strokes_ogs.tif
176
     1
290
     0
176
     1
 40
1.0
176
     1
 40
1.0
176
     1
  0
VISUALSTYLE
  5
444
102
{ACAD_REACTORS
330
42F
102
}
330
42F
100
AcDbVisualStyle
  2
Sketchy
 70
    24
177
     3
291
     0
 70
    58
 90
        1
176
     1
 90
        2
176
     1
 90
        2
176
     1
 90
        0
176
     1
 40
0.6
176
     1
 40
30.0
176
     1
 62
     7
420
 16777215
176
     1
 90
        2
176
     1
 90
        2
176
     1
 62
     7
176
     1
 62
     7
176
     1
 90
        1
176
     1
 90
        1
176
     1
 40
40.0
176
     1
 90
       11
176
     1
 62
     7
176
     1
 40
1.0
176
     1
 90
        1
176
     1
 90
        6
176
     1
 90
        2
176
     1
 62
     7
176
     1
 90
        6
176
     1
 90
        0
176
     1
 90
        0
176
     1
290
     0
176
     1
 90
        1
176
     1
 40
0.0
176
     1
 90
        0
176
     1
290
     0
176
     1
290
     1
176
     1
290
     1
176
     1
290
     0
176
     1
290
     0
176
     1
290
     0
176
     1
290
     0
176
     1
290
     0
176
     1
290
     0
176
     1
 90
       50
176
     1
 40
0.0
176
     1
 40
1.0
176
     1
 90
        0
176
     1
 62
    18
420
        0
176
     1
 90
       50
176
     1
 90
        3
176
     1
 62
     5
420
      255
176
     1
290
     0
176
     1
 90
       50
176
     1
 90
       50
176
     1
 90
       50
176
     1
290
     0
176
     1
 90
       50
176
     1
 62
   256
176
     0
 40
1.0
176
     0
 90
        2
176
     1
  1
strokes_ogs.tif
176
     1
290
     0
176
     1
 40
1.0
176
     1
 40
1.0
176
     1
  0
VISUALSTYLE
  5
43C
102
{ACAD_REACTORS
330
42F
102
}
330
42F
100
AcDbVisualStyle
  2
Thicken
 70
    13
177
     3
291
     1
 70
    58
 90
        2
176
     1
 90
        2
176
     1
 90
        0
176
     1
 90
        0
176
     1
 40
0.6
176
     1
 40
30.0
176
     1
 62
     7
420
 16777215
176
     1
 90
        1
176
     1
 90
        4
176
     1
 62
     7
176
     1
 62
   257
176
     1
 90
        1
176
     1
 90
        1
176
     1
 40
1.0
176
     1
 90
       12
176
     1
 62
     7
176
     1
 40
1.0
176
     1
 90
        1
176
     1
 90
        6
176
     1
 90
        2
176
     1
 62
     7
176
     1
 90
        5
176
     1
 90
        0
176
     1
 90
        0
176
     1
290
     0
176
     1
 90
        1
176
     1
 40
0.0
176
     1
 90
        0
176
     1
290
     0
176
     1
290
     1
176
     1
290
     1
176
     1
290
     0
176
     1
290
     0
176
     1
290
     0
176
     1
290
     0
176
     1
290
     0
176
     1
290
     0
176
     1
 90
       50
176
     1
 40
0.0
176
     1
 40
1.0
176
     1
 90
        0
176
     1
 62
    18
420
        0
176
     1
 90
       50
176
     1
 90
        3
176
     1
 62
     5
420
      255
176
     1
290
     0
176
     1
 90
       50
176
     1
 90
       50
176
     1
 90
       50
176
     1
290
     0
176
     1
 90
       50
176
     1
 62
   256
176
     0
 40
1.0
176
     0
 90
        2
176
     1
  1
strokes_ogs.tif
176
     1
290
     0
176
     1
 40
1.0
176
     1
 40
1.0
176
     1
  0
VISUALSTYLE
  5
435
102
{ACAD_REACTORS
330
42F
102
}
330
42F
100
AcDbVisualStyle
  2
Wireframe
 70
     5
177
     3
291
     0
 70
    58
 90
        0
176
     1
 90
        2
176
     1
 90
        0
176
     1
 90
        0
176
     1
 40
0.6
176
     1
 40
30.0
176
     1
 62
     7
420
 16777215
176
     1
 90
        1
176
     1
 90
        4
176
     1
 62
     7
176
     1
 62
   257
176
     1
 90
        1
176
     1
 90
        1
176
     1
 40
1.0
176
     1
 90
        0
176
     1
 62
   257
176
     1
 40
1.0
176
     1
 90
        1
176
     1
 90
        6
176
     1
 90
        2
176
     1
 62
     7
176
     1
 90
        3
176
     1
 90
        0
176
     1
 90
        0
176
     1
290
     0
176
     1
 90
        1
176
     1
 40
0.0
176
     1
 90
        0
176
     1
290
     0
176
     1
290
     1
176
     1
290
     1
176
     1
290
     0
176
     1
290
     0
176
     1
290
     0
176
     1
290
     0
176
     1
290
     0
176
     1
290
     0
176
     1
 90
       50
176
     1
 40
0.0
176
     1
 40
1.0
176
     1
 90
        0
176
     1
 62
    18
420
        0
176
     1
 90
       50
176
     1
 90
        3
176
     1
 62
     5
420
      255
176
     1
290
     0
176
     1
 90
       50
176
     1
 90
       50
176
     1
 90
       50
176
     1
290
     0
176
     1
 90
       50
176
     1
 62
   256
176
     0
 40
1.0
176
     0
 90
        2
176
     1
  1
strokes_ogs.tif
176
     1
290
     0
176
     1
 40
1.0
176
     1
 40
1.0
176
     1
  0
VISUALSTYLE
  5
445
102
{ACAD_REACTORS
330
42F
102
}
330
42F
100
AcDbVisualStyle
  2
X-Ray
 70
    25
177
     3
291
     0
 70
    58
 90
        2
176
     1
 90
        2
176
     1
 90
        1
176
     1
 90
        1
176
     1
 40
0.5
176
     1
 40
30.0
176
     1
 62
     7
420
 16777215
176
     1
 90
        1
176
     1
 90
        0
176
     1
 62
     7
176
     1
 62
   257
176
     1
 90
        1
176
     1
 90
        1
176
     1
 40
1.0
176
     1
 90
        8
176
     1
 62
     7
176
     1
 40
1.0
176
     1
 90
        1
176
     1
 90
        6
176
     1
 90
        2
176
     1
 62
     7
176
     1
 90
        3
176
     1
 90
        0
176
     1
 90
        0
176
     1
290
     0
176
     1
 90
       13
176
     1
 40
0.0
176
     1
 90
        0
176
     1
290
     0
176
     1
290
     1
176
     1
290
     1
176
     1
290
     0
176
     1
290
     0
176
     1
290
     0
176
     1
290
     0
176
     1
290
     0
176
     1
290
     0
176
     1
 90
       50
176
     1
 40
0.0
176
     1
 40
1.0
176
     1
 90
        0
176
     1
 62
    18
420
        0
176
     1
 90
       50
176
     1
 90
        3
176
     1
 62
     5
420
      255
176
     1
290
     0
176
     1
 90
       50
176
     1
 90
       50
176
     1
 90
       50
176
     1
290
     0
176
     1
 90
       50
176
     1
 62
   256
176
     0
 40
1.0
176
     0
 90
        2
176
     1
  1
strokes_ogs.tif
176
     1
290
     0
176
     1
 40
1.0
176
     1
 40
1.0
176
     1
  0
DICTIONARYVAR
  5
4F2
102
{ACAD_REACTORS
330
4F1
102
}
330
4F1
100
DictionaryVariables
280
     0
  1
1:1
  0
DICTIONARYVAR
  5
4F7
102
{ACAD_REACTORS
330
4F1
102
}
330
4F1
100
DictionaryVariables
280
     0
  1
Standard
  0
DICTIONARYVAR
  5
4F6
102
{ACAD_REACTORS
330
4F1
102
}
330
4F1
100
DictionaryVariables
280
     0
  1
Standard
  0
XRECORD
  5
476
102
{ACAD_REACTORS
330
474
102
}
330
474
100
AcDbXrecord
280
     1
1000
#ffffff
  0
XRECORD
  5
477
102
{ACAD_REACTORS
330
474
102
}
330
474
100
AcDbXrecord
280
     1
1000
FullColor
  0
XRECORD
  5
478
102
{ACAD_REACTORS
330
474
102
}
330
474
100
AcDbXrecord
280
     1
290
     1
  0
XRECORD
  5
479
102
{ACAD_REACTORS
330
474
102
}
330
474
100
AcDbXrecord
280
     1
290
     1
  0
XRECORD
  5
47A
102
{ACAD_REACTORS
330
474
102
}
330
474
100
AcDbXrecord
280
     1
290
     1
  0
XRECORD
  5
47B
102
{ACAD_REACTORS
330
474
102
}
330
474
100
AcDbXrecord
280
     1
290
     1
  0
XRECORD
  5
47C
102
{ACAD_REACTORS
330
474
102
}
330
474
100
AcDbXrecord
280
     1
1000
auto
  0
XRECORD
  5
47D
102
{ACAD_REACTORS
330
474
102
}
330
474
100
AcDbXrecord
280
     1
1000
auto
  0
XRECORD
  5
47E
102
{ACAD_REACTORS
330
474
102
}
330
474
100
AcDbXrecord
280
     1
1000
auto
  0
XRECORD
  5
47F
102
{ACAD_REACTORS
330
474
102
}
330
474
100
AcDbXrecord
280
     1
1000
auto
  0
XRECORD
  5
480
102
{ACAD_REACTORS
330
474
102
}
330
474
100
AcDbXrecord
280
     1
1000
auto
  0
XRECORD
  5
481
102
{ACAD_REACTORS
330
474
102
}
330
474
100
AcDbXrecord
280
     1
1000
auto
  0
XRECORD
  5
482
102
{ACAD_REACTORS
330
474
102
}
330
474
100
AcDbXrecord
280
     1
1000
auto
  0
XRECORD
  5
483
102
{ACAD_REACTORS
330
474
102
}
330
474
100
AcDbXrecord
280
     1
1000
auto
  0
XRECORD
  5
484
102
{ACAD_REACTORS
330
474
102
}
330
474
100
AcDbXrecord
280
     1
290
     0
  0
XRECORD
  5
485
102
{ACAD_REACTORS
330
474
102
}
330
474
100
AcDbXrecord
280
     1
290
     0
  0
XRECORD
  5
486
102
{ACAD_REACTORS
330
474
102
}
330
474
100
AcDbXrecord
280
     1
290
     0
  0
XRECORD
  5
487
102
{ACAD_REACTORS
330
474
102
}
330
474
100
AcDbXrecord
280
     1
290
     0
  0
XRECORD
  5
488
102
{ACAD_REACTORS
330
474
102
}
330
474
100
AcDbXrecord
280
     1
 90
    65537
  0
XRECORD
  5
489
102
{ACAD_REACTORS
330
474
102
}
330
474
100
AcDbXrecord
280
     1
 90
    65537
  0
XRECORD
  5
48A
102
{ACAD_REACTORS
330
474
102
}
330
474
100
AcDbXrecord
280
     1
 90
    65537
  0
XRECORD
  5
48B
102
{ACAD_REACTORS
330
474
102
}
330
474
100
AcDbXrecord
280
     1
 90
    65537
  0
XRECORD
  5
48C
102
{ACAD_REACTORS
330
474
102
}
330
474
100
AcDbXrecord
280
     1
1000
auto
  0
XRECORD
  5
48D
102
{ACAD_REACTORS
330
474
102
}
330
474
100
AcDbXrecord
280
     1
1000
auto
  0
XRECORD
  5
48E
102
{ACAD_REACTORS
330
474
102
}
330
474
100
AcDbXrecord
280
     1
1000
auto
  0
XRECORD
  5
48F
102
{ACAD_REACTORS
330
474
102
}
330
474
100
AcDbXrecord
280
     1
1000
auto
  0
XRECORD
  5
490
102
{ACAD_REACTORS
330
474
102
}
330
474
100
AcDbXrecord
280
     1
1000
auto
  0
XRECORD
  5
491
102
{ACAD_REACTORS
330
474
102
}
330
474
100
AcDbXrecord
280
     1
1000
auto
  0
XRECORD
  5
492
102
{ACAD_REACTORS
330
474
102
}
330
474
100
AcDbXrecord
280
     1
1000
auto
  0
XRECORD
  5
493
102
{ACAD_REACTORS
330
474
102
}
330
474
100
AcDbXrecord
280
     1
1000
auto
  0
XRECORD
  5
494
102
{ACAD_REACTORS
330
474
102
}
330
474
100
AcDbXrecord
280
     1
 90
        1
  0
XRECORD
  5
495
102
{ACAD_REACTORS
330
474
102
}
330
474
100
AcDbXrecord
280
     1
 40
10.0
  0
XRECORD
  5
496
102
{ACAD_REACTORS
330
474
102
}
330
474
100
AcDbXrecord
280
     1
 40
10.0
  0
XRECORD
  5
497
102
{ACAD_REACTORS
330
474
102
}
330
474
100
AcDbXrecord
280
     1
 40
10.0
  0
XRECORD
  5
498
102
{ACAD_REACTORS
330
474
102
}
330
474
100
AcDbXrecord
280
     1
 40
10.0
  0
XRECORD
  5
499
102
{ACAD_REACTORS
330
474
102
}
330
474
100
AcDbXrecord
280
     1
290
     0
  0
XRECORD
  5
49A
102
{ACAD_REACTORS
330
474
102
}
330
474
100
AcDbXrecord
280
     1
 90
        1
  0
XRECORD
  5
49B
102
{ACAD_REACTORS
330
474
102
}
330
474
100
AcDbXrecord
280
     1
 40
0.0
  0
XRECORD
  5
49C
102
{ACAD_REACTORS
330
474
102
}
330
474
100
AcDbXrecord
280
     1
 40
0.0
  0
XRECORD
  5
49D
102
{ACAD_REACTORS
330
474
102
}
330
474
100
AcDbXrecord
280
     1
1000
Portrait
  0
XRECORD
  5
49E
102
{ACAD_REACTORS
330
474
102
}
330
474
100
AcDbXrecord
280
     1
 40
297.0
  0
XRECORD
  5
49F
102
{ACAD_REACTORS
330
474
102
}
330
474
100
AcDbXrecord
280
     1
 40
210.0
  0
XRECORD
  5
4A0
102
{ACAD_REACTORS
330
474
102
}
330
474
100
AcDbXrecord
280
     1
1000
1:1
  0
XRECORD
  5
4A1
102
{ACAD_REACTORS
330
474
102
}
330
474
100
AcDbXrecord
280
     1
290
     1
  0
XRECORD
  5
4A2
102
{ACAD_REACTORS
330
474
102
}
330
474
100
AcDbXrecord
280
     1
290
     0
  0
XRECORD
  5
4A3
102
{ACAD_REACTORS
330
474
102
}
330
474
100
AcDbXrecord
280
     1
1000
Inside
  0
XRECORD
  5
4A4
102
{ACAD_REACTORS
330
474
102
}
330
474
100
AcDbXrecord
280
     1
1000
Arial,10,-1,5,50,0,0,0,0,0
  0
XRECORD
  5
4A5
102
{ACAD_REACTORS
330
474
102
}
330
474
100
AcDbXrecord
280
     1
1000
TopLeft
  0
XRECORD
  5
475
102
{ACAD_REACTORS
330
474
102
}
330
474
100
AcDbXrecord
280
     1
1000
3.24.2
  0
XRECORD
  5
4A6
102
{ACAD_REACTORS
330
474
102
}
330
474
100
AcDbXrecord
280
     1
 90
        4
  0
XRECORD
  5
4A7
102
{ACAD_REACTORS
330
474
102
}
330
474
100
AcDbXrecord
280
     1
  0
XRECORD
  5
4A8
102
{ACAD_REACTORS
330
474
102
}
330
474
100
AcDbXrecord
280
     1
 40
151.1654399999998
  0
XRECORD
  5
4A9
102
{ACAD_REACTORS
330
474
102
}
330
474
100
AcDbXrecord
280
     1
 40
262.5177599999996
  0
DICTIONARY
  5
4F3
330
46F
100
AcDbDictionary
280
     1
281
     1
  3
ACAD_ROUNDTRIP_2008_TABLESTYLE_CELLSTYLEMAP
360
4F4
  0
CELLSTYLEMAP
  5
4F4
102
{ACAD_REACTORS
330
4F3
102
}
330
4F3
100
AcDbCellStyleMap
 90
        3
300
CELLSTYLE
  1
TABLEFORMAT_BEGIN
 90
        5
170
     1
 91
        0
 92
    32768
 62
   257
 93
        1
300
CONTENTFORMAT
  1
CONTENTFORMAT_BEGIN
 90
        0
 91
        0
 92
        4
 93
        0
300

 40
0.0
140
1.0
 94
        5
 62
     0
340
417
144
0.25
309
CONTENTFORMAT_END
171
     1
301
MARGIN
  1
CELLMARGIN_BEGIN
 40
0.06
 40
0.06
 40
0.06
 40
0.06
 40
0.06
 40
0.06
309
CELLMARGIN_END
 94
        6
 95
        1
302
GRIDFORMAT
  1
GRIDFORMAT_BEGIN
 90
        0
 91
        1
 62
     0
 92
       -2
340
419
 93
        0
 40
0.045
309
GRIDFORMAT_END
 95
        2
302
GRIDFORMAT
  1
GRIDFORMAT_BEGIN
 90
        0
 91
        1
 62
     0
 92
       -2
340
419
 93
        0
 40
0.045
309
GRIDFORMAT_END
 95
        4
302
GRIDFORMAT
  1
GRIDFORMAT_BEGIN
 90
        0
 91
        1
 62
     0
 92
       -2
340
419
 93
        0
 40
0.045
309
GRIDFORMAT_END
 95
        8
302
GRIDFORMAT
  1
GRIDFORMAT_BEGIN
 90
        0
 91
        1
 62
     0
 92
       -2
340
419
 93
        0
 40
0.045
309
GRIDFORMAT_END
 95
       16
302
GRIDFORMAT
  1
GRIDFORMAT_BEGIN
 90
        0
 91
        1
 62
     0
 92
       -2
340
419
 93
        0
 40
0.045
309
GRIDFORMAT_END
 95
       32
302
GRIDFORMAT
  1
GRIDFORMAT_BEGIN
 90
        0
 91
        1
 62
     0
 92
       -2
340
419
 93
        0
 40
0.045
309
GRIDFORMAT_END
309
TABLEFORMAT_END
  1
CELLSTYLE_BEGIN
 90
        1
 91
        1
300
_TITLE
309
CELLSTYLE_END
300
CELLSTYLE
  1
TABLEFORMAT_BEGIN
 90
        5
170
     1
 91
        0
 92
        0
 62
   257
 93
        1
300
CONTENTFORMAT
  1
CONTENTFORMAT_BEGIN
 90
        0
 91
        0
 92
        4
 93
        0
300

 40
0.0
140
1.0
 94
        5
 62
     0
340
417
144
0.18
309
CONTENTFORMAT_END
171
     1
301
MARGIN
  1
CELLMARGIN_BEGIN
 40
0.06
 40
0.06
 40
0.06
 40
0.06
 40
0.06
 40
0.06
309
CELLMARGIN_END
 94
        6
 95
        1
302
GRIDFORMAT
  1
GRIDFORMAT_BEGIN
 90
        0
 91
        1
 62
     0
 92
       -2
340
419
 93
        0
 40
0.045
309
GRIDFORMAT_END
 95
        2
302
GRIDFORMAT
  1
GRIDFORMAT_BEGIN
 90
        0
 91
        1
 62
     0
 92
       -2
340
419
 93
        0
 40
0.045
309
GRIDFORMAT_END
 95
        4
302
GRIDFORMAT
  1
GRIDFORMAT_BEGIN
 90
        0
 91
        1
 62
     0
 92
       -2
340
419
 93
        0
 40
0.045
309
GRIDFORMAT_END
 95
        8
302
GRIDFORMAT
  1
GRIDFORMAT_BEGIN
 90
        0
 91
        1
 62
     0
 92
       -2
340
419
 93
        0
 40
0.045
309
GRIDFORMAT_END
 95
       16
302
GRIDFORMAT
  1
GRIDFORMAT_BEGIN
 90
        0
 91
        1
 62
     0
 92
       -2
340
419
 93
        0
 40
0.045
309
GRIDFORMAT_END
 95
       32
302
GRIDFORMAT
  1
GRIDFORMAT_BEGIN
 90
        0
 91
        1
 62
     0
 92
       -2
340
419
 93
        0
 40
0.045
309
GRIDFORMAT_END
309
TABLEFORMAT_END
  1
CELLSTYLE_BEGIN
 90
        2
 91
        1
300
_HEADER
309
CELLSTYLE_END
300
CELLSTYLE
  1
TABLEFORMAT_BEGIN
 90
        5
170
     1
 91
        0
 92
        0
 62
   257
 93
        1
300
CONTENTFORMAT
  1
CONTENTFORMAT_BEGIN
 90
        0
 91
        0
 92
        4
 93
        0
300

 40
0.0
140
1.0
 94
        2
 62
     0
340
417
144
0.18
309
CONTENTFORMAT_END
171
     1
301
MARGIN
  1
CELLMARGIN_BEGIN
 40
0.06
 40
0.06
 40
0.06
 40
0.06
 40
0.06
 40
0.06
309
CELLMARGIN_END
 94
        6
 95
        1
302
GRIDFORMAT
  1
GRIDFORMAT_BEGIN
 90
        0
 91
        1
 62
     0
 92
       -2
340
419
 93
        0
 40
0.045
309
GRIDFORMAT_END
 95
        2
302
GRIDFORMAT
  1
GRIDFORMAT_BEGIN
 90
        0
 91
        1
 62
     0
 92
       -2
340
419
 93
        0
 40
0.045
309
GRIDFORMAT_END
 95
        4
302
GRIDFORMAT
  1
GRIDFORMAT_BEGIN
 90
        0
 91
        1
 62
     0
 92
       -2
340
419
 93
        0
 40
0.045
309
GRIDFORMAT_END
 95
        8
302
GRIDFORMAT
  1
GRIDFORMAT_BEGIN
 90
        0
 91
        1
 62
     0
 92
       -2
340
419
 93
        0
 40
0.045
309
GRIDFORMAT_END
 95
       16
302
GRIDFORMAT
  1
GRIDFORMAT_BEGIN
 90
        0
 91
        1
 62
     0
 92
       -2
340
419
 93
        0
 40
0.045
309
GRIDFORMAT_END
 95
       32
302
GRIDFORMAT
  1
GRIDFORMAT_BEGIN
 90
        0
 91
        1
 62
     0
 92
       -2
340
419
 93
        0
 40
0.045
309
GRIDFORMAT_END
309
TABLEFORMAT_END
  1
CELLSTYLE_BEGIN
 90
        3
 91
        2
300
_DATA
309
CELLSTYLE_END
  0
ENDSEC
  0
EOF
